<?xml version="1.0" encoding="utf-8"?>
<!-- Generator: Adobe Illustrator 19.2.0, SVG Export Plug-In . SVG Version: 6.00 Build 0)  -->
<svg version="1.1" id="Layer_1" xmlns="http://www.w3.org/2000/svg" xmlns:xlink="http://www.w3.org/1999/xlink" x="0px" y="0px"
	 viewBox="0 0 11.3 15.6" style="enable-background:new 0 0 11.3 15.6;" xml:space="preserve">
<style type="text/css">
	.st0{fill:none;stroke:#FFFFFF;stroke-width:0.75;stroke-miterlimit:10;}
</style>
<title>bag_white</title>
<path class="st0" d="M0.8,15.4h9.7c0.3,0,0.5-0.2,0.5-0.5c0,0,0,0,0-0.1l-1-9.5C10,5,9.8,4.8,9.5,4.8h-8C1.2,4.8,1,5,1,5.3l-0.7,9.5
	C0.2,15.1,0.4,15.4,0.8,15.4C0.8,15.4,0.8,15.4,0.8,15.4z"/>
<path class="st0" d="M8,4.7V2.6c0-1.3-1-2.3-2.3-2.3c0,0,0,0,0,0H5.6c-1.3,0-2.3,1-2.3,2.3c0,0,0,0,0,0v2.2"/>
</svg>
