<svg id="Layer_1" data-name="Layer 1" xmlns="http://www.w3.org/2000/svg" viewBox="0 0 97.29 56.63"><defs><style>.cls-1,.cls-2{fill:#fff;}.cls-2,.cls-3,.cls-4,.cls-5,.cls-6{stroke:#000;stroke-miterlimit:10;}.cls-3,.cls-4,.cls-5{fill:none;}.cls-4{stroke-width:0.5px;}.cls-5{stroke-width:0.25px;}</style></defs><title>beg-plashka</title><path class="cls-1" d="M71.09,34.16" transform="translate(-3.94 -3.35)"/><polyline class="cls-2" points="0 45.07 3.37 45.07 97.29 45.07"/><path class="cls-3" d="M7.3,48.43v8.28a2.78,2.78,0,0,0,2.78,2.78H95.24A2.78,2.78,0,0,0,98,56.71V48.43" transform="translate(-3.94 -3.35)"/><polyline class="cls-4" points="0.66 45.07 0.66 38.3 96.47 38.3 96.47 45.07"/><polyline class="cls-4" points="0.66 38.3 16.58 16.77 19.57 12.72 78.4 12.72 96.47 38.3"/><path class="cls-4" d="M20.51,20.12V5.77A2.17,2.17,0,0,1,22.68,3.6H83.1a2.17,2.17,0,0,1,2.17,2.18L85.2,20.12" transform="translate(-3.94 -3.35)"/><path class="cls-4" d="M16.27,25.87V18.38a3.11,3.11,0,0,1,1-2.25L20.51,13" transform="translate(-3.94 -3.35)"/><path class="cls-4" d="M89.53,26V18.5a3.11,3.11,0,0,0-1-2.25l-3.29-3.14" transform="translate(-3.94 -3.35)"/><line class="cls-4" x1="48.96" y1="0.25" x2="48.96" y2="12.72"/><line class="cls-5" x1="4.57" y1="33.01" x2="92.74" y2="33.01"/><path class="cls-5" d="M11.68,35.11" transform="translate(-3.94 -3.35)"/><polygon class="cls-6" points="8.26 32.18 5.89 33.01 8.26 33.84 8.26 32.18"/><polygon class="cls-6" points="88.9 32.18 91.27 33.01 88.9 33.84 88.9 32.18"/><path d="M51.18,24.35l0.09-3h1.12l0.18,0.59a4.18,4.18,0,0,1,2.32-.76c2.58,0,3.64,1.71,3.64,3.19,0,3.6-4.34,3-4.34,6.16a4.93,4.93,0,0,0,0,.5l-1.1.09a4.5,4.5,0,0,1-.29-1.46c0-2.68,3.55-2.59,3.55-5.06a1.76,1.76,0,0,0-2-1.89,2.37,2.37,0,0,0-1.69.63l-0.09,1h-1.4Zm2.5,10.82a1.1,1.1,0,1,1,0-2.2,1.14,1.14,0,0,1,1.19,1.1A1.11,1.11,0,0,1,53.68,35.18Z" transform="translate(-3.94 -3.35)"/></svg>