<?xml version="1.0" encoding="utf-8"?>
<!-- Generator: Adobe Illustrator 23.0.1, SVG Export Plug-In . SVG Version: 6.00 Build 0)  -->
<svg version="1.1" id="Capa_1" xmlns="http://www.w3.org/2000/svg" xmlns:xlink="http://www.w3.org/1999/xlink" x="0px" y="0px"
	 viewBox="0 0 512 512" style="enable-background:new 0 0 512 512;" xml:space="preserve">
<style type="text/css">
	.st0{fill:#DAD5D6;}
</style>
<g>
	<g>
		<g>
			<path class="st0" d="M302.1,327.8c31-13,55.4-30.8,73.3-53.3c17.9-22.5,26.9-46.9,26.9-73.4c0-26.5-9-51-26.9-73.4
				c-17.9-22.5-42.3-40.2-73.3-53.3c-31-13-64.6-19.6-101-19.6c-36.4,0-70,6.5-101,19.6c-31,13-55.4,30.8-73.3,53.3
				C9,150.2,0,174.7,0,201.1c0,22.7,6.8,44,20.3,64c13.5,20,32.1,36.9,55.7,50.6c-1.9,4.6-3.9,8.8-5.9,12.6c-2,3.8-4.4,7.5-7.1,11
				c-2.8,3.5-4.9,6.3-6.4,8.3c-1.5,2-4,4.8-7.4,8.4c-3.4,3.6-5.6,6-6.6,7.1c0-0.2-0.4,0.2-1.1,1.3c-0.8,1-1.2,1.5-1.3,1.4
				c-0.1-0.1-0.5,0.4-1.1,1.4c-0.7,1-1,1.6-1,1.6l-0.7,1.4c-0.3,0.6-0.5,1.1-0.6,1.7c-0.1,0.6-0.1,1.2-0.1,1.9
				c0,0.7,0.1,1.3,0.3,1.9c0.4,2.5,1.5,4.5,3.3,6c1.8,1.5,3.8,2.3,5.9,2.3h0.9c9.5-1.3,17.7-2.9,24.6-4.6
				c29.3-7.6,55.8-19.8,79.4-36.6c17.1,3,33.9,4.6,50.3,4.6C237.5,347.4,271.2,340.9,302.1,327.8z M142.3,304l-12.6,8.9
				c-5.3,3.6-11.2,7.3-17.7,11.1l10-24l-27.7-16c-18.3-10.7-32.5-23.2-42.6-37.7c-10.1-14.5-15.1-29.5-15.1-45.1
				c0-19.4,7.5-37.6,22.4-54.6c14.9-17,35.1-30.4,60.4-40.3c25.3-9.9,52.6-14.9,81.7-14.9s56.4,5,81.7,14.9
				c25.3,9.9,45.5,23.3,60.4,40.3c15,17,22.4,35.1,22.4,54.6c0,19.4-7.5,37.6-22.4,54.6c-15,17-35.1,30.4-60.4,40.3
				c-25.3,9.9-52.6,14.9-81.7,14.9c-14.3,0-28.9-1.3-43.7-4L142.3,304z"/>
			<path class="st0" d="M491.7,338.4c13.5-19.9,20.3-41.3,20.3-64.1c0-23.4-7.1-45.3-21.4-65.7c-14.3-20.4-33.7-37.3-58.3-50.9
				c4.4,14.3,6.6,28.8,6.6,43.4c0,25.5-6.4,49.7-19.1,72.6c-12.8,22.9-31,43-54.9,60.6c-22.1,16-47.2,28.3-75.4,36.9
				c-28.2,8.6-57.6,12.9-88.3,12.9c-5.7,0-14.1-0.4-25.1-1.1c38.3,25.1,83.2,37.7,134.9,37.7c16.4,0,33.1-1.5,50.3-4.6
				c23.6,16.8,50.1,29,79.4,36.6c6.9,1.7,15,3.2,24.6,4.6c2.3,0.2,4.4-0.5,6.3-2c1.9-1.5,3.1-3.6,3.7-6.3c-0.1-1.1,0-1.8,0.3-1.9
				c0.3-0.1,0.2-0.7-0.1-1.9c-0.4-1.1-0.6-1.7-0.6-1.7L474,442c-0.2-0.4-0.5-0.9-1-1.6c-0.5-0.7-0.9-1.1-1.1-1.4
				c-0.3-0.3-0.7-0.8-1.3-1.4c-0.6-0.7-1-1.1-1.1-1.3c-1-1.1-3.1-3.5-6.6-7.1c-3.4-3.6-5.9-6.4-7.4-8.4c-1.5-2-3.7-4.8-6.4-8.3
				c-2.8-3.5-5.1-7.2-7.1-11c-2-3.8-4-8-5.9-12.6C459.6,375.1,478.2,358.3,491.7,338.4z"/>
		</g>
	</g>
</g>
</svg>
