<svg height="24" viewBox="0 0 24 24" width="24" xmlns="http://www.w3.org/2000/svg"><g fill="none" fill-rule="evenodd"><rect height="12" rx="1" stroke="#868170" stroke-width="2" width="12" x="3" y="9"/><g fill="#868170"><path d="m10 4v10h10v-10zm10 12v-2h-10v-10h-2v-1c0-.55228475.44771525-1 1-1h12c.5522847 0 1 .44771525 1 1v12c0 .5522847-.4477153 1-1 1z" fill-rule="nonzero"/><path d="m1.950077 4.970344h8.242641v2h-8.242641z" transform="matrix(.70710678 -.70710678 .70710678 .70710678 -2.4434 6.041799)"/><path d="m13.43934 5.474874h8.656854v2h-8.656854z" transform="matrix(.70710678 -.70710678 .70710678 .70710678 .625631 14.460155)"/><path d="m13.466887 16.939314h9v2h-9z" transform="matrix(.70710678 -.70710678 .70710678 .70710678 -7.422631 17.958811)"/></g></g></svg>