<svg height="24" viewBox="0 0 24 24" width="24" xmlns="http://www.w3.org/2000/svg"><g fill="none" fill-rule="evenodd"><path d="m4 8v10h16v-10zm14 12v-2h-5v2h-10c-.55228475 0-1-.4477153-1-1v-12c0-.55228475.44771525-1 1-1h18c.5522847 0 1 .44771525 1 1v12c0 .5522847-.4477153 1-1 1z" fill="#868170" fill-rule="nonzero"/><path d="m6 3h12c.5522847 0 1 .44771525 1 1v1h-14v-1c0-.55228475.44771525-1 1-1z" fill="#868170"/><g stroke="#868170" stroke-width="2"><circle cx="15.5" cy="13.5" r="2.5"/><path d="m14 16v4.9193752l1.5-1.2 1.5 1.2v-4.9193752z"/></g></g></svg>