<svg height="24" viewBox="0 0 24 24" width="24" xmlns="http://www.w3.org/2000/svg"><g fill="none" fill-rule="evenodd"><path d="m12 22c-.553 0-1-.447-1-1v-10c0-.552.447-1 1-1s1 .448 1 1v10c0 .553-.447 1-1 1" fill="#868170"/><path d="m11.607 3.01869634c-2.08.199-3.607 2.064-3.607 4.153v8.32799996c0 .315.148.612.4.8l3.6 2.7 3.599-2.7c.252-.188.401-.485.401-.8v-8.49999996c0-2.338-2.007-4.208-4.393-3.981z" stroke="#868170" stroke-width="2"/><g fill="#868170"><path d="m12.3535 11.6465-.707.707-4.268-4.268.707-.707z"/><path d="m12.3535 15.6465-.707.707-4.268-4.268.707-.707z"/></g></g></svg>