<svg id="Layer_1" data-name="Layer 1" xmlns="http://www.w3.org/2000/svg" viewBox="0 0 61.69 46.43"><defs><style>.cls-1{fill:#024665;}.cls-2{fill:#e74a27;}</style></defs><title>ico_metro</title><g id="p9GqrO"><path class="cls-1" d="M31.15,48H5.05a0.7,0.7,0,0,1-.71-0.41A30.85,30.85,0,0,1,17,5,29.6,29.6,0,0,1,28.6,1.68a30.23,30.23,0,0,1,23.63,8.2,29.7,29.7,0,0,1,9.29,17,30.49,30.49,0,0,1-3.46,20.61,0.79,0.79,0,0,1-.81.48Q44.2,48,31.15,48Zm0-3.61H55.06a0.68,0.68,0,0,0,.76-0.4A26.94,26.94,0,0,0,57.9,27.2a26.1,26.1,0,0,0-8-14.54c-7-6.48-15.28-8.81-24.59-6.83A27.09,27.09,0,0,0,4,32.93,27.79,27.79,0,0,0,6.47,43.84a0.83,0.83,0,0,0,.9.56Q19.27,44.38,31.17,44.39Z" transform="translate(-0.33 -1.58)"/><path class="cls-2" d="M39.7,9.56l1.64,4.24Q46.19,26.35,51,38.91a0.58,0.58,0,0,0,.66.43c0.71,0,1.43,0,2.18,0v2.06H38V39.34H41L37.75,29.7,31.2,41.45,24.65,29.69,21.4,39.32h3v2.07H8.45V39.33c0.76,0,1.51,0,2.25,0a0.55,0.55,0,0,0,.62-0.42q5-13.06,10.12-26.11L22.7,9.56l8.5,16.52Z" transform="translate(-0.33 -1.58)"/></g></svg>