<?xml version="1.0" encoding="utf-8"?>
<!-- Generator: Adobe Illustrator 19.2.0, SVG Export Plug-In . SVG Version: 6.00 Build 0)  -->
<svg version="1.1" id="Layer_1" xmlns="http://www.w3.org/2000/svg" xmlns:xlink="http://www.w3.org/1999/xlink" x="0px" y="0px"
	 viewBox="0 0 40.7 42.5" style="enable-background:new 0 0 40.7 42.5;" xml:space="preserve">
<style type="text/css">
	.st0{fill:none;stroke:#878270;stroke-miterlimit:10;}
	.st1{fill:none;stroke:#878270;stroke-width:0.75;stroke-miterlimit:10;}
</style>
<title>imgama2_icon1</title>
<path class="st0" d="M1,42.5V25.3c0-2.5,2-4.5,4.6-4.5h16.9V11c0-4.7,3.9-8.6,8.6-8.6l0,0c4.7,0,8.6,3.9,8.6,8.6c0,0,0,0,0,0v31.5"
	/>
<path class="st0" d="M6.9,42.5V6.7c0-0.2,0.1-0.3,0.2-0.5l3.2-2.7c0.2-0.2,0.5-0.2,0.8,0l3.4,2.6c0.1,0.1,0.2,0.3,0.2,0.5v35.9"/>
<line class="st0" x1="39.7" y1="14.8" x2="22.5" y2="14.8"/>
<line class="st0" x1="1" y1="29.2" x2="39.7" y2="29.2"/>
<polyline class="st0" points="14.7,31.6 31.1,31.6 39.7,31.6 "/>
<line class="st0" x1="31.1" y1="42.5" x2="31.1" y2="31.6"/>
<line class="st1" x1="10.8" y1="3.4" x2="10.8" y2="1.3"/>
<line class="st1" x1="31.1" y1="2.4" x2="31.1" y2="0"/>
<line class="st1" x1="9.6" y1="18.1" x2="9.6" y2="13.5"/>
<line class="st1" x1="11.6" y1="18.1" x2="11.6" y2="13.5"/>
<line class="st1" x1="9.6" y1="36.1" x2="9.6" y2="31.5"/>
<line class="st1" x1="11.6" y1="36.1" x2="11.6" y2="31.5"/>
<line class="st1" x1="10.6" y1="23.9" x2="10.6" y2="27"/>
<path class="st1" d="M26.7,14.4c0,0-0.3-8.5,4.4-11.8"/>
<path class="st1" d="M36.1,14.4c0,0-0.3-8.7-5-11.9"/>
<circle class="st1" cx="31.2" cy="21.7" r="2.2"/>
<circle class="st1" cx="37.5" cy="21.8" r="2.2"/>
<circle class="st1" cx="24.8" cy="21.8" r="2.2"/>
<line class="st0" x1="22.5" y1="20.7" x2="22.5" y2="42.5"/>
</svg>
