<svg id="Layer_1" data-name="Layer 1" xmlns="http://www.w3.org/2000/svg" viewBox="0 0 44.93 42.24"><defs><style>.cls-1,.cls-2,.cls-3{fill:none;stroke:#86816e;stroke-miterlimit:10;}.cls-1{stroke-width:2px;}.cls-2{stroke-width:0.75px;}</style></defs><title>imgama2_icon2</title><path class="cls-1" d="M29,35.63H3.89A2.83,2.83,0,0,1,1.06,32.8v-24A2.83,2.83,0,0,1,3.89,6H41.15A2.83,2.83,0,0,1,44,8.83v24a2.83,2.83,0,0,1-2.83,2.83h-5" transform="translate(-0.06 -0.26)"/><path class="cls-1" d="M5.33,6V4.09A2.83,2.83,0,0,1,8.17,1.26H36.26A2.83,2.83,0,0,1,39.1,4.09V6" transform="translate(-0.06 -0.26)"/><line class="cls-2" x1="6.04" y1="9.4" x2="22.16" y2="9.4"/><line class="cls-2" x1="6.04" y1="11.54" x2="22.16" y2="11.54"/><line class="cls-2" x1="6.04" y1="13.99" x2="22.16" y2="13.99"/><line class="cls-2" x1="6.04" y1="16.28" x2="22.16" y2="16.28"/><line class="cls-2" x1="6.04" y1="18.57" x2="15.97" y2="18.57"/><circle class="cls-1" cx="32.64" cy="23.36" r="7.09"/><circle class="cls-3" cx="32.64" cy="22.36" r="2.71"/><polygon class="cls-3" points="28.9 30.45 28.9 41.26 32.64 38.74 36.12 41.26 36.12 30.45 28.9 30.45"/></svg>