<svg id="Layer_1" data-name="Layer 1" xmlns="http://www.w3.org/2000/svg" viewBox="0 0 45.53 45.53"><defs><style>.cls-1{fill:#86816e;}.cls-2{fill:none;stroke:#86816e;stroke-miterlimit:10;}</style></defs><title>imgama2_icon3</title><path class="cls-1" d="M24,1.58A22.76,22.76,0,1,1,1.19,24.14,22.77,22.77,0,0,1,24,1.58Zm12.68,5c0-.17,0-0.25-0.13-0.29a0.64,0.64,0,0,1-.23-0.12C36.1,6,35.86,5.8,35.64,5.61a0.31,0.31,0,0,1-.1-0.24,0.19,0.19,0,0,0-.13-0.24c-0.65-.35-1.28-0.73-1.94-1a22.16,22.16,0,0,0-7.48-2,22.46,22.46,0,0,0-6.2.29,22.23,22.23,0,0,0-7.9,3.16L11.16,6l0.18,0a0.52,0.52,0,0,1,.48.3,0.23,0.23,0,0,0,.25.23,0.31,0.31,0,0,1,.19.16,0.34,0.34,0,0,1-.09.17c-0.1.15-.21,0.28-0.3,0.44s-0.19.37-.28,0.56a0.25,0.25,0,0,1-.3.16,1.74,1.74,0,0,0-.46,0c-0.21,0-.42.08-0.63,0.1A0.23,0.23,0,0,1,10.07,8a0.38,0.38,0,0,1,.39-0.47,0.32,0.32,0,0,0-.26-0.33,1.1,1.1,0,0,1-.33-0.25L9,7.68a1.22,1.22,0,0,0,.5,0c0.2-.06.31,0,0.33,0.2a1.43,1.43,0,0,1,0,.33,0.31,0.31,0,0,0,.28.34,0.31,0.31,0,0,0,.27,0,0.33,0.33,0,0,1,.41-0.19l0.56,0.07a1,1,0,0,0,1.12-.77A0.77,0.77,0,0,1,13.22,7c-0.06.29-.12,0.57-0.16,0.85a0.72,0.72,0,0,0,0,.29,1,1,0,0,0,.15.23l0.34-.18A3.46,3.46,0,0,1,14,8c0.21-.09.28,0,0.27,0.19a0.75,0.75,0,0,1-.8.75,1.85,1.85,0,0,0-1.08.38c-0.7.56-1.4,1.13-2.07,1.72a0.71,0.71,0,0,0,.17,1.08c0.16,0.09.29,0.2,0.44,0.3a2.32,2.32,0,0,0,.34.2,0.62,0.62,0,0,1,.38.69c0,0.1-.06.2-0.07,0.31s0.07,0.29.32,0.32a0.23,0.23,0,0,0,.3-0.22,2.65,2.65,0,0,0,0-.43,0.46,0.46,0,0,1,.38-0.57,2.28,2.28,0,0,0,.52-0.26,0.43,0.43,0,0,0,.06-0.72c-0.08-.09-0.18-0.19-0.06-0.29a1.62,1.62,0,0,0,.47-0.89,0.48,0.48,0,0,1,.27-0.31,2.49,2.49,0,0,1,.68,0,1.8,1.8,0,0,1,.73.49,0.21,0.21,0,0,1,0,.15c0,0.11,0,.22,0,0.33a0.4,0.4,0,0,0,0,.26,0.44,0.44,0,0,0,.35.07,4,4,0,0,0,.54-0.45A0.35,0.35,0,0,1,16.27,11a0.25,0.25,0,0,1,.13.13,1.89,1.89,0,0,0,.26.44,0.61,0.61,0,0,1,.19.52c0,0.5,0,.5.45,0.69l0,0a6,6,0,0,1,.49.78c0.08,0.17-.1.34-0.35,0.42s-0.36.14-.53,0.21a1.83,1.83,0,0,1-.47.18c-0.42,0-.85,0-1.28.07a0.67,0.67,0,0,0-.23.07c-0.17.08-.34,0.16-0.5,0.25a2.78,2.78,0,0,0-.28.21l0,0.08,1.09-.23,0.06,0.09a2.17,2.17,0,0,1-.18.27,0.36,0.36,0,0,0,0,.55,0.47,0.47,0,0,0,.56.06,1.57,1.57,0,0,1,.33-0.19,0.75,0.75,0,0,1,.3.05,0.58,0.58,0,0,1-.1.28,1.75,1.75,0,0,1-.61.26,9,9,0,0,1-1.3.09,1.62,1.62,0,0,0-1,.59,0.23,0.23,0,0,0-.05.17,0.34,0.34,0,0,1-.3.38,1.2,1.2,0,0,0-.86.78,0.2,0.2,0,0,1-.1.11,0.65,0.65,0,0,0-.45.7,0.89,0.89,0,0,1-.25.61,12.67,12.67,0,0,1-1,.88A0.68,0.68,0,0,0,10,21a5.41,5.41,0,0,0,0,.63c0,0.25.07,0.5,0.09,0.76a0.21,0.21,0,0,1-.11.17,0.28,0.28,0,0,1-.19-0.05,0.25,0.25,0,0,1-.1-0.12q-0.18-.48-0.36-1c0-.1,0-0.23-0.19-0.22a1.52,1.52,0,0,1-.42-0.06,0.39,0.39,0,0,0-.51.07,0.56,0.56,0,0,1-.67.25,1,1,0,0,0-1.22.69c0,0.12-.1.23-0.14,0.36a2,2,0,0,0,0,1.51,0.82,0.82,0,0,0,1,.6,1,1,0,0,0,.5-0.42,1.5,1.5,0,0,1,.45-0.33,0.17,0.17,0,0,1,.24.17,3.4,3.4,0,0,1-.07.65,5,5,0,0,1-.23.61,0.22,0.22,0,0,0,.2.34,4.58,4.58,0,0,0,.62.08,0.33,0.33,0,0,1,.35.35,0.77,0.77,0,0,1,0,.27,1.36,1.36,0,0,0,.46,1.24,0.35,0.35,0,0,0,.24.09c0.22,0,.43,0,0.65,0a0.28,0.28,0,0,1,.32.24,1.19,1.19,0,0,0-.25,0,0.83,0.83,0,0,0-.36.17,0.34,0.34,0,0,1-.49.09c-0.21-.13-0.4-0.29-0.62-0.41a0.83,0.83,0,0,1-.4-0.46,1.38,1.38,0,0,0-.6-0.62,2.12,2.12,0,0,1-.94-0.8,0.43,0.43,0,0,0-.29-0.17,5.94,5.94,0,0,0-.76-0.05A1.59,1.59,0,0,1,5,25a0.93,0.93,0,0,1-.21-0.51,5.47,5.47,0,0,0-.2-1.25C4.47,22.82,4.32,22.41,4.18,22A7.77,7.77,0,0,1,4,21.17c0-.12,0-0.24-0.07-0.36H3.81a3.18,3.18,0,0,0-.07.33A3,3,0,0,0,4,22.49a2.81,2.81,0,0,1,.16.74l-0.11,0a3,3,0,0,1-.28-0.51,7.48,7.48,0,0,1-.3-2.13,3.93,3.93,0,0,0-.19-0.8,2.2,2.2,0,0,1-.11-0.42A8.33,8.33,0,0,1,3.87,16c0.09-.24.23-0.45,0.34-0.68a6.36,6.36,0,0,0,.33-0.71C4.71,14.08,4.87,13.53,5,13L5.4,11.86c-0.43.66-.84,1.32-1.21,2a22.31,22.31,0,0,0,1.38,23.2,22.34,22.34,0,0,0,21.67,9.4,21.94,21.94,0,0,0,6.15-1.85A22.56,22.56,0,0,0,45.07,31.72a22.59,22.59,0,0,0,1.21-5.9,6.94,6.94,0,0,0-.17-2.54,6.74,6.74,0,0,0-1-2.4,0.54,0.54,0,0,0-.5-0.27,0.91,0.91,0,0,1-.82-0.33,0.47,0.47,0,0,0-.28-0.17,0.79,0.79,0,0,1-.5-0.27c-0.14-.14-0.26-0.31-0.4-0.44a0.85,0.85,0,0,0-.26-0.11,0.63,0.63,0,0,0,0,.23c0.27,0.39.55,0.77,0.86,1.2a1.64,1.64,0,0,1,.14-0.2c0.16-.16.24-0.15,0.37,0a3.4,3.4,0,0,0,.33.42,0.76,0.76,0,0,1,.24.53A1.84,1.84,0,0,1,43.82,23l-0.63.66a8.22,8.22,0,0,1-.67.66c-0.36.29-.54,0.22-0.67-0.21,0-.13-0.06-0.26-0.1-0.39a8.37,8.37,0,0,0-.41-1.09C41,22,40.61,21.34,40.26,20.7,40.13,20.48,40,20.24,39.9,20a1,1,0,0,0-.33-0.21,1.18,1.18,0,0,0,0,.35c0.3,0.65.61,1.3,0.92,2,0.08,0.17.19,0.34,0.29,0.51a6.63,6.63,0,0,1,.43.8,2.08,2.08,0,0,0,.42.71,1.42,1.42,0,0,1,.22.45c0,0.1,0,.21.08,0.3a0.3,0.3,0,0,0,.47.17c0.15-.08.28-0.2,0.42-0.29s0.24-.12.39-0.19c0,0.14,0,.2,0,0.27a4.53,4.53,0,0,1-.69,2.29c-0.23.35-.42,0.73-0.67,1.06s-0.7.8-1.06,1.19a1.41,1.41,0,0,0-.39,1c0,0.43,0,.85,0,1.28A1.47,1.47,0,0,1,40,33c-0.24.18-.5,0.33-0.74,0.5a1.06,1.06,0,0,0-.29.27,2,2,0,0,0-.35.91,0.9,0.9,0,0,1-.45.71,1.54,1.54,0,0,0-.41.45,6,6,0,0,1-.4.7,4.88,4.88,0,0,1-2.66,1.53,1.83,1.83,0,0,1-.54,0,0.22,0.22,0,0,1-.23-0.29,6.46,6.46,0,0,0,.06-1c0-.58,0-1.15-0.09-1.72,0-.35-0.12-0.7-0.18-1.06a3.87,3.87,0,0,1-.07-0.39,2,2,0,0,1,.57-1.49,1,1,0,0,0,.3-1,1.46,1.46,0,0,1,0-.2,2.32,2.32,0,0,0-.62-1.5,0.8,0.8,0,0,1-.18-0.33,2.16,2.16,0,0,1,.08-1.22A0.58,0.58,0,0,0,33.14,27a0.77,0.77,0,0,1-.47-0.16,1,1,0,0,0-1.34-.22,3.65,3.65,0,0,1-1.74.37,1.9,1.9,0,0,1-1.35-.37c-0.52-.48-1.08-0.93-1.6-1.41a2.32,2.32,0,0,1-.41-0.52,1.73,1.73,0,0,1,0-1.58,0.49,0.49,0,0,0,.08-0.27A3.23,3.23,0,0,0,26.22,22a0.93,0.93,0,0,1,.16-0.9,8.91,8.91,0,0,0,.54-1,1.36,1.36,0,0,1,.79-0.84,0.5,0.5,0,0,0,.39-0.6,0.68,0.68,0,0,1,.09-0.38c0.25-.34.52-0.66,0.79-1a0.49,0.49,0,0,1,.54-0.11,0.86,0.86,0,0,0,.38,0c0.38-.1.76-0.22,1.14-0.34a6.55,6.55,0,0,1,2.16-.14,0.29,0.29,0,0,1,.28.39c0,0.07,0,.15,0,0.22a0.43,0.43,0,0,0,.35.52,5.4,5.4,0,0,1,1.85.63h0c0.29,0.09.42,0,.45-0.29a0.2,0.2,0,0,1,.28-0.2,2.8,2.8,0,0,1,.57.19,4.52,4.52,0,0,0,2,.4,0.39,0.39,0,0,0,.48-0.42c0-.11.06-0.22,0.05-0.33a8.15,8.15,0,0,0-.15-0.85A0.22,0.22,0,0,0,39.15,17a7.57,7.57,0,0,0-.93.09,0.56,0.56,0,0,1-.67-0.27c-0.08-.12-0.18-0.22-0.26-0.33S37,16,36.84,15.83a0.22,0.22,0,0,0-.41,0,1.73,1.73,0,0,0,.09.49c0.07,0.24.15,0.49,0.22,0.73l-0.08,0a0.75,0.75,0,0,1-.43-0.35A1.72,1.72,0,0,0,35.68,16a1.2,1.2,0,0,1-.29-0.36,1.58,1.58,0,0,0-.51-0.61c-0.36-.21-0.7-0.45-1.06-0.67a0.93,0.93,0,0,0-.28-0.05,0.93,0.93,0,0,0,.41.58c0.33,0.19.65,0.4,1,.61a0.47,0.47,0,0,1,.11.7l-0.5.65A2.78,2.78,0,0,1,34,16.7a0.63,0.63,0,0,1-.14-0.27,1,1,0,0,1,.23-0.07c0.07,0,.15,0,0.22,0a0.59,0.59,0,0,0,.33-0.1,0.23,0.23,0,0,0-.07-0.35l-1-.86a1.42,1.42,0,0,1-.15-0.13,1,1,0,0,0-1.25-.25,1.72,1.72,0,0,1-.51.14,0.55,0.55,0,0,0-.52.35,1.89,1.89,0,0,1-.16.24,2,2,0,0,0-.19.39,1.74,1.74,0,0,1-.56.87A1.77,1.77,0,0,1,29,17a1,1,0,0,1-.86-0.74,4.34,4.34,0,0,1,0-1.38c0-.23.14-0.22,0.31-0.22,0.44,0,.88,0,1.32,0A0.24,0.24,0,0,0,30,14.37a0.69,0.69,0,0,0-.42-0.79,2,2,0,0,1-.3-0.16C29.13,13.3,29,13.16,28.83,13l0-.07c0.15,0,.31,0,0.46,0a1,1,0,0,0,.52,0,12.91,12.91,0,0,0,1-.91l0.43-.44c0.11-.1.23-0.19,0.34-0.29s0.3-.28.47-0.4,0.27-.25.05-0.49a2,2,0,0,1-.46-0.54,0.39,0.39,0,0,0-.63,0,0.34,0.34,0,0,1-.2.1,0.54,0.54,0,0,1-.58-0.37,0.93,0.93,0,0,1,.24-1.17,0.94,0.94,0,0,0,.31-0.53,4.07,4.07,0,0,1,.54-1.42,0.69,0.69,0,0,1,.5-0.38,2.57,2.57,0,0,1,.71.06,4.53,4.53,0,0,1,.62.25L34.81,7a0.35,0.35,0,0,1,.18.13,0.47,0.47,0,0,1,.08.32,0.51,0.51,0,0,1-.28.21,0.86,0.86,0,0,1-.3,0L34.33,8a1.52,1.52,0,0,0,1-.06c-0.1-.37-0.1-0.37.26-0.59l0.07-.06c0.23-.28.45-0.56,0.69-0.83a0.29,0.29,0,0,1,.21,0A0.58,0.58,0,0,1,36.7,6.57ZM32.37,8.82a2.35,2.35,0,0,1,.79,1.23,0.64,0.64,0,0,1-.5.85,2,2,0,0,0-.44.17c-0.15.09-.13,0.21,0,0.28a0.87,0.87,0,0,0,.78,0,0.55,0.55,0,0,1,.49,0,0.4,0.4,0,0,0,.56-0.16,2.14,2.14,0,0,0,.16-0.45,0.57,0.57,0,0,1,.15-0.29c0.25-.14.28-0.28,0-0.46a3.3,3.3,0,0,1-.27-0.26,5.52,5.52,0,0,0,.63-0.14A0.64,0.64,0,0,0,35,9.37a0.5,0.5,0,0,0-.21-0.12,4.68,4.68,0,0,0-.7.1,0.68,0.68,0,0,1-.89-0.5A1,1,0,0,1,33.25,8a0.43,0.43,0,0,0,0-.36,0.53,0.53,0,0,0-.4,0,0.83,0.83,0,0,0-.35.23,0.3,0.3,0,0,0-.05.24,1.53,1.53,0,0,1,.15.43A1.05,1.05,0,0,1,32.37,8.82Zm7.45,6.72a0.73,0.73,0,0,0-.32-0.87l-0.4-.25a0.67,0.67,0,0,1-.39-0.65c0-.15-0.08-0.21-0.21-0.14a0.37,0.37,0,0,0-.2.21,0.51,0.51,0,0,0,.12.29,0.62,0.62,0,0,0,.2.12,0.54,0.54,0,0,1-.57.16c-0.18,0-.15-0.16-0.21-0.26a1,1,0,0,0-.36-0.36,0.37,0.37,0,0,0-.28.18,1.41,1.41,0,0,0,0,1.22c0.09,0.18.18,0.37,0.45,0.24a0.81,0.81,0,0,1,.22,0A0.26,0.26,0,0,0,38,15.36a0.3,0.3,0,0,1,.37-0.12c0.17,0,.33.1,0.5,0.14Zm0.66-1.39a1.29,1.29,0,0,0,.6,1.06,0.46,0.46,0,0,1,.2.23c0.1,0.25.17,0.51,0.26,0.76a1,1,0,0,0,.62.72,0.24,0.24,0,0,0,.37-0.26,1,1,0,0,0-.34-0.82c-0.1-.08-0.17-0.16,0-0.29s0.13-.3-0.1-0.38l-0.17-.05a1.37,1.37,0,0,1-.77-0.55,0.66,0.66,0,0,1,.1-0.67A0.24,0.24,0,0,0,41,13.54,0.55,0.55,0,0,0,40.49,14.14Z" transform="translate(-1.19 -1.58)"/><path class="cls-1" d="M16.86,42.15a0.22,0.22,0,0,0,.09.07c0.28,0,.23.22,0.16,0.4-0.15.4-.13,0.45,0.23,0.7a0.25,0.25,0,0,1,.1.18,1.2,1.2,0,0,0,.95,1.13c0.11,0,.24,0,0.35.09a0.85,0.85,0,0,1,.18.13,0.44,0.44,0,0,1-.17.15,2.16,2.16,0,0,1-.66,0,3.88,3.88,0,0,1-1.61-1.18,3.24,3.24,0,0,1-.33-0.37,1.16,1.16,0,0,1-.2-0.39,1.11,1.11,0,0,0-.38-0.62,2.09,2.09,0,0,1-.74-1.1c-0.11-.4-0.3-0.78-0.43-1.18-0.06-.2-0.07-0.41-0.12-0.62a5.32,5.32,0,0,0-.21-0.7c-0.17-.43-0.38-0.84-0.54-1.28a1.88,1.88,0,0,0-1.19-1.36,1.88,1.88,0,0,1-1-.86c-0.31-.48-0.68-0.91-1-1.36a0.26,0.26,0,0,0-.08-0.08,1,1,0,0,1-.49-1,1,1,0,0,0-.18-0.65,0.64,0.64,0,0,1,0-.53A2.09,2.09,0,0,1,9.94,31,0.45,0.45,0,0,0,10,30.36c-0.09-.14-0.2-0.26-0.29-0.4a0.32,0.32,0,0,1,0-.37c0.14-.24.24-0.5,0.36-0.76a0.48,0.48,0,0,1,.49-0.37c0.14,0,.18-0.1.17-0.23s0-.23.2-0.2,0.23,0.07.17,0.25a1.91,1.91,0,0,0-.06.51,0.43,0.43,0,0,0,.12.17l0.06,0a0.58,0.58,0,0,0,0-.22,0.26,0.26,0,0,1,.18-0.39,0.72,0.72,0,0,1,.54,0,1.27,1.27,0,0,0,1,.33,2.6,2.6,0,0,0,.6-0.06,1.24,1.24,0,0,1,.31,0,0.23,0.23,0,0,1,.22.26,0.35,0.35,0,0,0,.29.41,0.73,0.73,0,0,1,.59.49,0.38,0.38,0,0,0,.24.17,1.8,1.8,0,0,0,.53.1,1.7,1.7,0,0,1,1.17.5,2.93,2.93,0,0,1,.51.76,0.39,0.39,0,0,1,0,.27,1,1,0,0,1-.14.17c-0.18.24-.14,0.34,0.17,0.46,0-.4.28-0.38,0.54-0.4a0.33,0.33,0,0,1,.17,0c0.38,0.2.74,0.43,1.13,0.59a2.5,2.5,0,0,0,.81.13,1.28,1.28,0,0,1,.91.42,1.17,1.17,0,0,0,.35.18,1.07,1.07,0,0,1,.49.25,1,1,0,0,1,0,.89,2.82,2.82,0,0,1-.52.57,0.83,0.83,0,0,0-.35.61,9.62,9.62,0,0,1-.14,1.36,2.76,2.76,0,0,1-.31.81,0.74,0.74,0,0,1-.36.19c-0.32.13-.66,0.23-1,0.38a0.43,0.43,0,0,0-.24.53,1.31,1.31,0,0,1-.37,1.25,1.59,1.59,0,0,0-.24.48,0.29,0.29,0,0,1-.31.2H17.52a0.23,0.23,0,0,0-.16.07,0.29,0.29,0,0,0,.08.19c0.09,0.09.21,0.17,0.31,0.26s0.15,0.36-.11.43l-0.33.08a0.31,0.31,0,0,0-.27.26A0.84,0.84,0,0,1,16.86,42.15Z" transform="translate(-1.19 -1.58)"/><path class="cls-1" d="M19.79,6.56a0.46,0.46,0,0,1-.5.43,0.24,0.24,0,0,1-.18,0,0.23,0.23,0,0,1,0-.21c0.14-.21.29-0.41,0.44-0.61a0.15,0.15,0,0,0,0,0A3,3,0,0,0,19.69,5a0.31,0.31,0,0,0-.37-0.28H19.15a0.42,0.42,0,0,1,.4-0.62,0.82,0.82,0,0,0,.62-0.3,0.79,0.79,0,0,1,.46-0.23,1.78,1.78,0,0,0,1-.4A0.48,0.48,0,0,1,22,3.12a1.52,1.52,0,0,0,.79-0.06A1.88,1.88,0,0,1,23.14,3a2.53,2.53,0,0,1,0,.34,0.41,0.41,0,0,0,.18.43,2.38,2.38,0,0,0,.21.17,0.8,0.8,0,0,1,.45.67,0.65,0.65,0,0,0,.26.34c0.17,0.14.37,0.25,0.54,0.39a0.55,0.55,0,0,1,.07.25,3.83,3.83,0,0,0-.39-0.08,0.18,0.18,0,0,0-.15.06,0.24,0.24,0,0,0,0,.18c0.26,0.3.26,0.32,0,.59a0.39,0.39,0,0,0-.13.15,0.22,0.22,0,0,1-.27.17,0.29,0.29,0,0,0-.21.09c-0.14.23-.26,0.49-0.39,0.72a0.26,0.26,0,0,1-.15.14,1.45,1.45,0,0,0-.93.45,0.33,0.33,0,0,0-.08.26,0.68,0.68,0,0,1-.17.53,1.94,1.94,0,0,0-.24.55,0.08,0.08,0,0,0,0,.07c0.25,0.25,0,.45-0.09.65a0.65,0.65,0,0,1-.75.22A1.29,1.29,0,0,1,20.71,10l-0.13,0a1.11,1.11,0,0,1-1.08-.35,0.74,0.74,0,0,1-.12-0.32C19.3,9.14,19.23,9,19.14,8.78S19,8.61,19,8.52a0.51,0.51,0,0,1,.1-0.78c0.23-.25.45-0.51,0.66-0.78a1.6,1.6,0,0,0,.16-0.35Z" transform="translate(-1.19 -1.58)"/><path class="cls-1" d="M14.51,6.42l-0.1.41,0,0c0.07-.08.14-0.15,0.2-0.23a0.67,0.67,0,0,1,.66-0.26,1.21,1.21,0,0,1,.4.26c0.14-.11.28,0,0.45,0.11a2.06,2.06,0,0,0,.53.29,0.51,0.51,0,0,1,.35.8,0.37,0.37,0,0,0,.1.49c0.23,0.19.48,0.36,0.73,0.55-0.08.08-.18,0.19-0.29,0.29a0.41,0.41,0,0,1-.62,0,0.69,0.69,0,0,0-.28-0.17,0.31,0.31,0,0,0-.26,0,0.44,0.44,0,0,0,0,.31,1.31,1.31,0,0,0,.18.26,1.76,1.76,0,0,1,.18.35,0.23,0.23,0,0,1-.05.21,0.27,0.27,0,0,1-.22,0C16.37,10,16.3,9.91,16.2,9.86a1.08,1.08,0,0,0-.28-0.06A1.21,1.21,0,0,0,16,10c0.05,0.12.13,0.23,0.2,0.36a0.59,0.59,0,0,1-.61-0.11,5.11,5.11,0,0,1-.49-0.53,0.48,0.48,0,0,0-.42-0.21c-0.2,0-.4,0-0.63-0.05,0.18-.36.48-0.41,1-0.22,0-.06,0-0.12,0-0.17a0.3,0.3,0,0,1,.18-0.35,0.88,0.88,0,0,0,.3-0.23,0.51,0.51,0,0,0,0-.25,1.15,1.15,0,0,0-.28,0,0.27,0.27,0,0,0-.12.15,0.22,0.22,0,0,1-.29.13,0.2,0.2,0,0,1-.14-0.09,0.17,0.17,0,0,1,0-.15c0.1-.08.22-0.13,0.31-0.21a0.41,0.41,0,0,0,.16-0.25A0.46,0.46,0,0,0,15,7.63a1.46,1.46,0,0,0-.44,0,4.39,4.39,0,0,1-.66,0,0.33,0.33,0,0,1-.31-0.31,0.41,0.41,0,0,1,.16-0.45,1.85,1.85,0,0,1,.72-0.52h0.08Z" transform="translate(-1.19 -1.58)"/><path class="cls-1" d="M41.87,31.87a1.35,1.35,0,0,1-.05,1l-1,2a4.46,4.46,0,0,1-.3.5,0.59,0.59,0,0,1-.69.2,1.65,1.65,0,0,1,.35-1.13,1.68,1.68,0,0,0,.28-0.62,2.35,2.35,0,0,0,.1-0.46A0.73,0.73,0,0,1,41,32.9,1.53,1.53,0,0,0,41.81,32,0.37,0.37,0,0,1,41.87,31.87Z" transform="translate(-1.19 -1.58)"/><path class="cls-1" d="M19.92,3.45a1.7,1.7,0,0,1-1.29.84,0.73,0.73,0,0,0-.44.23,0.62,0.62,0,0,1-.53.21c-0.37,0-.4,0-0.4.39a0.39,0.39,0,0,1-.6.4,0.55,0.55,0,0,0-.2,0c-0.15,0-.3,0-0.45,0a0.56,0.56,0,0,1-.23-0.1,0.21,0.21,0,0,1,.05-0.15,0.68,0.68,0,0,1,.28-0.09,1.25,1.25,0,0,1,.21.07A0.2,0.2,0,0,0,16.58,5c0-.33,0-0.33.34-0.41a2.42,2.42,0,0,0,1.25-.51,4.42,4.42,0,0,0,.39-0.51,0.3,0.3,0,0,1,.11-0.13l1.16,0A0.3,0.3,0,0,1,19.92,3.45Z" transform="translate(-1.19 -1.58)"/><path class="cls-1" d="M28.74,12.67l0.17-.48a0.62,0.62,0,0,1-.12-0.29,1.87,1.87,0,0,1,.27-0.39h0.09A0.92,0.92,0,0,0,29,11.4a1.4,1.4,0,0,1-.65-0.86,0.32,0.32,0,0,1,.07-0.31,0.36,0.36,0,0,1,.32,0,1,1,0,0,1,.32.33,3.33,3.33,0,0,0,.92,1,0.37,0.37,0,0,1,.13.12,1.18,1.18,0,0,1,.15.54,0.61,0.61,0,0,1-.41.23C29.49,12.58,29.14,12.61,28.74,12.67Z" transform="translate(-1.19 -1.58)"/><path class="cls-1" d="M24.27,7.34a2.84,2.84,0,0,1,.19.21c0.11,0.15.19,0.11,0.3,0a0.51,0.51,0,0,1,.31-0.2,2.57,2.57,0,0,1,.85.1c0.32,0.12.31,0.37,0.08,0.61a1.64,1.64,0,0,1-1.53.33A0.62,0.62,0,0,1,24.27,7.34Z" transform="translate(-1.19 -1.58)"/><path class="cls-1" d="M17.55,15.33a2,2,0,0,1-.92,0c0.09-.13.16-0.26,0.25-0.37s0.27-.32.4-0.48a0.26,0.26,0,0,1,.43,0,0.65,0.65,0,0,0,.26.2,0.88,0.88,0,0,1,.49.92,0.13,0.13,0,0,1,0,.08,3.92,3.92,0,0,1-.67.06c-0.18,0-.17-0.19-0.18-0.34A0.42,0.42,0,0,0,17.55,15.33Z" transform="translate(-1.19 -1.58)"/><path class="cls-1" d="M9.9,23.32c0.28,0.06.51,0.09,0.73,0.15a0.53,0.53,0,0,1,.2.13l0.59,0.55a1.15,1.15,0,0,1,.12.15,0.56,0.56,0,0,1-.17.12,0.8,0.8,0,0,1-1-.24,1.57,1.57,0,0,0-.59-0.43,0.94,0.94,0,0,0-.43,0s-0.06.05-.1,0.05L9,23.76a0.7,0.7,0,0,1,.19-0.2C9.41,23.46,9.67,23.39,9.9,23.32Z" transform="translate(-1.19 -1.58)"/><path class="cls-1" d="M13.38,5.17l-0.14.21,0,0.05a0.66,0.66,0,0,0,.27-0.22C13.58,5,13.71,5,13.86,5a3.49,3.49,0,0,1,.34.06,2.22,2.22,0,0,1-.24.17c-0.14.07-.33,0-0.35,0.28a0.46,0.46,0,0,1-.23.17,3.06,3.06,0,0,1-1,.43c-0.21,0-.3-0.12-0.21-0.32A1.24,1.24,0,0,1,13.38,5.17Z" transform="translate(-1.19 -1.58)"/><path class="cls-1" d="M27.47,11.77a0.92,0.92,0,0,1,.3-0.74,0.66,0.66,0,0,1,.66,0,0.47,0.47,0,0,1,.07.34,2.54,2.54,0,0,1-.22.49,0.41,0.41,0,0,1-.54.24A0.34,0.34,0,0,1,27.47,11.77Z" transform="translate(-1.19 -1.58)"/><path class="cls-1" d="M11.54,24.83L12,24.76l-0.1-.29a0.78,0.78,0,0,1,.33-0.07,8.34,8.34,0,0,1,.84.29,0.36,0.36,0,0,1,.14.14c0.11,0.16.07,0.24-.11,0.28A3.11,3.11,0,0,1,11.72,25a0.64,0.64,0,0,1-.19-0.13V24.83Z" transform="translate(-1.19 -1.58)"/><path class="cls-1" d="M14.53,6.05a2.49,2.49,0,0,1,.15-0.22c0.18-.21.18-0.26,0-0.43a0.38,0.38,0,0,1,.57.19,0.42,0.42,0,0,0,.52.17A1.16,1.16,0,0,1,16,5.66a0.72,0.72,0,0,1,.23,0,0.49,0.49,0,0,1-.12.23,3,3,0,0,1-.69.18,7.83,7.83,0,0,1-.84,0Z" transform="translate(-1.19 -1.58)"/><path class="cls-1" d="M15.88,4.88c-0.07-.35,0-0.42.26-0.55A5,5,0,0,0,16.9,4,1.71,1.71,0,0,1,18,3.71a0.9,0.9,0,0,1-.19.2,1.28,1.28,0,0,1-.32.09,0.79,0.79,0,0,0-.56.34,0.6,0.6,0,0,1-.25.14,0.81,0.81,0,0,0-.57.34A0.46,0.46,0,0,1,15.88,4.88Z" transform="translate(-1.19 -1.58)"/><path class="cls-1" d="M14.05,6.36a1,1,0,0,1-.15.18,1.51,1.51,0,0,1-.45.31,4.56,4.56,0,0,1-.84.11,0.15,0.15,0,0,1,0-.27,1.48,1.48,0,0,0,.32-0.24,1.16,1.16,0,0,1,.63-0.1,0.64,0.64,0,0,0,.41,0Z" transform="translate(-1.19 -1.58)"/><path class="cls-1" d="M13.16,9.94h-0.7c-0.14,0-.2-0.08-0.12-0.21a0.88,0.88,0,0,1,.61-0.44,0.56,0.56,0,0,1,.5.53,0.61,0.61,0,0,1-.26.18Z" transform="translate(-1.19 -1.58)"/><path class="cls-1" d="M33.14,16.33c-0.37,0-.42-0.07-0.3-0.4a0.33,0.33,0,0,0,0-.19c-0.06-.15-0.14-0.3-0.18-0.46a0.45,0.45,0,0,1,.07-0.21,0.48,0.48,0,0,1,.21.13c0.1,0.29.17,0.6,0.25,0.9A0.93,0.93,0,0,1,33.14,16.33Z" transform="translate(-1.19 -1.58)"/><path class="cls-1" d="M15.35,4.49a1.82,1.82,0,0,0,0,.21c0,0.1.17,0.22,0,.28a0.42,0.42,0,0,1-.5,0,0.23,0.23,0,0,1,.05-0.39A2.3,2.3,0,0,1,15.35,4.49Z" transform="translate(-1.19 -1.58)"/><path class="cls-1" d="M13.84,25.3c-0.12,0-.33,0-0.32-0.21a0.22,0.22,0,0,1,.26-0.21c0.15,0,.3,0,0.29.22A0.17,0.17,0,0,1,13.84,25.3Z" transform="translate(-1.19 -1.58)"/><path class="cls-1" d="M13.8,5.86a0.27,0.27,0,0,1,.28-0.32,1.43,1.43,0,0,0,.27-0.07,0.78,0.78,0,0,1-.07.26A0.44,0.44,0,0,1,13.8,5.86Z" transform="translate(-1.19 -1.58)"/><path class="cls-1" d="M19.91,44.53a0.29,0.29,0,0,1-.42-0.13,0.22,0.22,0,0,1,0-.19,0.38,0.38,0,0,1,.29,0A0.88,0.88,0,0,1,19.91,44.53Z" transform="translate(-1.19 -1.58)"/><path class="cls-1" d="M39,17.52a1.8,1.8,0,0,1-.35,0,0.21,0.21,0,0,1-.12-0.15,0.19,0.19,0,0,1,.12-0.13A0.26,0.26,0,0,1,39,17.52Z" transform="translate(-1.19 -1.58)"/><path class="cls-1" d="M37.3,17.54a2,2,0,0,1-.37,0,0.4,0.4,0,0,1-.12-0.16A0.45,0.45,0,0,1,37,17.25C37.2,17.22,37.28,17.29,37.3,17.54Z" transform="translate(-1.19 -1.58)"/><path class="cls-1" d="M12.12,7.85c0,0.25-.13.23-0.28,0.21C11.81,7.82,11.85,7.79,12.12,7.85Z" transform="translate(-1.19 -1.58)"/><line class="cls-2" x1="23.87" y1="42.36" x2="23.87" y2="42.36"/></svg>