<svg id="Layer_1" data-name="Layer 1" xmlns="http://www.w3.org/2000/svg" viewBox="0 0 58.76 41.68"><defs><style>.cls-1,.cls-2{fill:none;stroke:#878270;stroke-miterlimit:10;}.cls-2{stroke-width:0.75px;}</style></defs><title>imgama2_icon4</title><circle class="cls-1" cx="4.47" cy="4.47" r="3.97"/><path class="cls-1" d="M4.87,0.89H29.82a5.32,5.32,0,0,1,5.32,5.32V36.75h7.91a4.83,4.83,0,0,1-4.83,4.83H15.41A6.57,6.57,0,0,1,8.84,35V4.86" transform="translate(-0.4 -0.39)"/><path class="cls-1" d="M14.94,41.57a4.73,4.73,0,0,0,4.73-4.73h0l15.47-.1" transform="translate(-0.4 -0.39)"/><line class="cls-2" x1="13.16" y1="10.66" x2="29.22" y2="10.66"/><line class="cls-2" x1="13.16" y1="16.66" x2="29.22" y2="16.66"/><line class="cls-2" x1="13.16" y1="22.66" x2="29.22" y2="22.66"/><line class="cls-2" x1="13.16" y1="28.86" x2="20.04" y2="28.86"/><path class="cls-2" d="M32.63,31.41" transform="translate(-0.4 -0.39)"/><path class="cls-1" d="M53,14.27c-5.32,3.24-14.66,10-20.83,17.63" transform="translate(-0.4 -0.39)"/><path class="cls-1" d="M58.66,9.85S52.16,9,44.29,14.66C32.19,23.43,34.4,28.83,34.4,28.83s7.71,0,15.16-6.53C59.21,13.85,58.66,9.85,58.66,9.85Z" transform="translate(-0.4 -0.39)"/></svg>