<svg id="Layer_1" data-name="Layer 1" xmlns="http://www.w3.org/2000/svg" viewBox="0 0 56.68 47.04"><defs><style>.cls-1{fill:#044464;}.cls-2{fill:#e42529;}.cls-3{fill:none;}</style></defs><title>logoX@2x</title><path class="cls-1" d="M34.32,7.5c-3.7-2.1-10.3.3-13.3,8-.2.5-.6-.6-.9-1.1-5-10.1-8.4-11.4-12.6-9.6-6.7,3-9.7,9.7-1.8,19.2a43.84,43.84,0,0,0,8.7,8.3c1.3,1,2.6,1.4,2.8,1.1s-.8-1.3-2.1-2.9c-1.9-2.3-2.3-3.7-4.1-6.4-3.6-5.3-3.2-8.8-1.4-10.2,2-1.6,5.3-2.7,8.6,3.5,1.3,2.5,1.9,3.5,2.7,2.8s3.9-5.4,6.1-5.3c7.3.2,1.6,8.2.8,9.6s.1.9,1,0A28.77,28.77,0,0,0,33,20.2C38.22,13.8,37.72,9.6,34.32,7.5Z" transform="translate(-1 -3.63)"/><path class="cls-2" d="M35,8c-3.6-2.7-8.5-.7-12.5,6.5-.3.5-.4.5-.6,0-3.7-10.7-8.3-12.3-13.7-9.9-4.4,2-8.8,7.8-1.9,17.4a64.12,64.12,0,0,0,8.5,9.6c3.6,3.5,2.7,1.2.9-1.6a78.09,78.09,0,0,1-4-7.1c-2.9-5.7-2-9.2-.1-10.4s4.8-1.1,7.5,4.7c.6,1.4,1.2,3,1.7,3.1s1.2-1,4.3-4.1c1.8-1.8,4.4-2.1,5.4-1.4,1.5,1.1,2.1,3-.6,6.9-.3.4-1,1.5-1.9,2.6-1,1.3-.7,1.5.4.8a44,44,0,0,0,5.3-4.2C39.62,15.2,38.32,10.4,35,8Z" transform="translate(-1 -3.63)"/><path class="cls-3" d="M27.52,24.7c1-1.3,1.6-2.5,2.2-3.2,5.1-6.7-1.3-7.9-4.2-5.3a19.36,19.36,0,0,0-2.8,2.9,8,8,0,0,0-.9-2.9C26.42,6.6,32,5.3,35.72,8.4c2.9,2.5,4.3,7.7-2.4,13.4a44.52,44.52,0,0,1-4.8,3.8C27.12,26.4,26.82,25.6,27.52,24.7Z" transform="translate(-1 -3.63)"/><path class="cls-1" d="M54.82,21.1c-9.6,2.9-22.2,12.8-23.5,14.1-.9.9-1,1.3-.4,2.6,1,2,2.5,4.9,3.1,6.5.9,2.4.3,3.4-.1,3.7s-1.3.1-3.8-2.9c-2.3-2.8-4.9-3.9-6.3-3.9a7.12,7.12,0,0,0-3.9,1.5c-1.4,1-3.7,2.9-9.2,7.1-2.5,1.9-4.6.5-1.7-2.5,3.2-3.3,5-4.7,10.9-10.3,1.4-1.3,1.4-1.8.5-3.8s-2.3-4.9-2.3-6.8.3-2.8.8-3,.9.4,1.6,2c1.3,2.7,3.1,5.4,5.2,5.4,1.6,0,5.1-2.2,9-4.3a70.87,70.87,0,0,1,11.4-4.8c3.2-1,10-2.1,11.5-1.4C58,20.6,56.22,20.7,54.82,21.1Z" transform="translate(-1 -3.63)"/></svg>