<?xml version="1.0" encoding="utf-8"?>
<!-- Generator: Adobe Illustrator 19.2.0, SVG Export Plug-In . SVG Version: 6.00 Build 0)  -->
<svg version="1.1" id="Слой_1" xmlns="http://www.w3.org/2000/svg" xmlns:xlink="http://www.w3.org/1999/xlink" x="0px" y="0px"
	 viewBox="0 0 317 77" style="enable-background:new 0 0 317 77;" xml:space="preserve">
<style type="text/css">
	.st0{fill:#004363;}
	.st1{fill:#FF0012;}
	.st2{fill:none;}
	.st3{fill:#004562;}
	.st4{fill:#004462;}
	.st5{fill:#004564;}
	.st6{fill:#004560;}
</style>
<g>
	<path class="st0" d="M34.8,19.5c-3.7-2.1-10.3,0.3-13.3,8c-0.2,0.5-0.6-0.6-0.9-1.1C15.6,16.3,12.2,15,8,16.8
		c-6.7,3-9.7,9.7-1.8,19.2c3.4,4.1,5.6,6,8.7,8.3c1.3,1,2.6,1.4,2.8,1.1c0.2-0.4-0.8-1.3-2.1-2.9c-1.9-2.3-2.3-3.7-4.1-6.4
		c-3.6-5.3-3.2-8.8-1.4-10.2c2-1.6,5.3-2.7,8.6,3.5c1.3,2.5,1.9,3.5,2.7,2.8c0.8-0.6,3.9-5.4,6.1-5.3c7.3,0.2,1.6,8.2,0.8,9.6
		c-0.8,1.4,0.1,0.9,1,0c1.5-1.3,2.6-2.3,4.2-4.3C38.7,25.8,38.2,21.6,34.8,19.5z"/>
</g>
<g>
	<path class="st1" d="M35.5,20c-3.6-2.7-8.5-0.7-12.5,6.5c-0.3,0.5-0.4,0.5-0.6,0c-3.7-10.7-8.3-12.3-13.7-9.9
		c-4.4,2-8.8,7.8-1.9,17.4c2.9,4.1,5.7,6.9,8.5,9.6c3.6,3.5,2.7,1.2,0.9-1.6c-1.6-2.5-2.5-4.2-4-7.1c-2.9-5.7-2-9.2-0.1-10.4
		c1.9-1.2,4.8-1.1,7.5,4.7c0.6,1.4,1.2,3,1.7,3.1c0.4,0.1,1.2-1,4.3-4.1c1.8-1.8,4.4-2.1,5.4-1.4c1.5,1.1,2.1,3-0.6,6.9
		c-0.3,0.4-1,1.5-1.9,2.6c-1,1.3-0.7,1.5,0.4,0.8c1.6-1.1,3.5-2.5,5.3-4.2C40.1,27.2,38.8,22.4,35.5,20z"/>
</g>
<path class="st2" d="M28,36.7c1-1.3,1.6-2.5,2.2-3.2c5.1-6.7-1.3-7.9-4.2-5.3c-0.8,0.7-2.1,1.9-2.8,2.9c0-1.2-0.9-2.9-0.9-2.9
	c4.6-9.6,10.2-10.9,13.9-7.8c2.9,2.5,4.3,7.7-2.4,13.4c-1.4,1.2-3.2,2.8-4.8,3.8C27.6,38.4,27.3,37.6,28,36.7z"/>
<g>
	<rect x="64.6" y="16.2" class="st3" width="137" height="2.5"/>
	<rect x="255.2" y="16.2" class="st3" width="51.2" height="2.5"/>
</g>
<path class="st3" d="M147,30.4c-1.1,0-2.1,0.9-2.1,2.1c0,0,0,15.9,0,21.5c0,1.4,1.2,1.9,1.9,1.9c2,0,13.1,0,13.1,0v6
	c0,1.1-0.9,2-2,2h-1.6c-1.1,0-2-0.9-2-2v-1.7h-9.4v5.7c0,1.1,0.9,2.1,2.1,2.1h19c1.1,0,2.1-0.9,2.1-2.1c0,0,0,0,0-28
	c0-0.8,1-1.5,1.9-1.5h0.1v-5.9L147,30.4L147,30.4z M160,49.8c0,1.1-0.9,2-2,2h-1.6c-1.1,0-2-0.9-2-2V37.1c0-1.1,0.9-2,2-2h1.6
	c1.1,0,2,0.9,2,2V49.8z"/>
<path class="st4" d="M201,50.1c0-9,0-16.6,0-16.6c0.1-1.9-1-3.1-3.1-3.2h-24v6.4h0.1c0.9,0,1.9,0.8,1.9,1.7c0,7.5,0,13.1,0,17.4h9.9
	V38.2c0-1.7,0.9-3,2-3h1.6c1.1,0,2,1.4,2,3v17.5h11.8v-3.6C202.3,52.1,201,51.2,201,50.1z"/>
<path class="st0" d="M112.6,51.8c-0.4,0-0.9,0-1.5,0c-1.2,0-2.3-1-2.3-2.3c0,0,0-8.5,0-14.5c0-2.9-1.5-4.7-5.4-4.7
	c-10.7,0-38.9,0-38.9,0V35c0.5,0,0.8,0,1.2,0c1.2,0,2.3,1,2.3,2.3v18.4h11.9V37.2c0-1.2,1-2.3,2.3-2.3s2.3,1,2.3,2.3v18.5h10.4V37.2
	c0-1.2,1-2.3,2.3-2.3s2.3,1,2.3,2.3v18.5h13.3v-3.9H112.6z"/>
<path class="st4" d="M142.1,51.8c-1.2,0-2.3-1-2.3-2.3V48l0,0V33.3c0-1.7-1.3-3-2.9-3h-18.8c-1.6,0-2.9,1.3-2.9,3v4.8h9.9
	c0-1.2,1-2.3,2.3-2.3h0.9c1.2,0,2.3,1,2.3,2.3v3h-15.3v11.5c0,1.7,1.3,3,2.9,3h24.2c0-1.4,0-2.2,0-3.8H142.1z M130.5,50.7
	c0,0.4-0.4,0.8-0.8,0.8h-4.2c-0.4,0-0.8-0.4-0.8-0.8v-4.2c0-0.4,0.4-0.8,0.8-0.8h4.2c0.4,0,0.8,0.4,0.8,0.8V50.7z"/>
<polygon class="st5" points="314.5,61.9 299.7,41.4 308,30.3 298.5,30.3 295.1,34.9 291.8,30.3 282.3,30.3 290.3,41.4 275.1,61.7 
	286.3,61.7 294.9,47.8 303.3,61.9 "/>
<path class="st0" d="M268.5,46.3v1.6c0,1.2-0.9,2.3-2.1,2.3h-0.9c-1.1,0-2.1-1-2.1-2.3v-4.1h14.2V33.3c0-1.7-1.2-3-2.7-3
	c0,0-10,0-16.7,0c-3.5,0-3.5,1.8-3.5,4.8c0,0.7,0,2.9,0,2.9l0,0v14.6c0,1.7,1.2,3,2.7,3H275c1.5,0,2.7-1.3,2.7-3v-6.4h-9.2V46.3z
	 M263.5,37.5c0-1.1,0.9-2,2-2h1c1.1,0,2,0.9,2,2v0.8c0,1.1-0.9,2-2,2h-1c-1.1,0-2-0.9-2-2V37.5z"/>
<path class="st5" d="M250.3,49.9V37.2c0-0.1,0-0.1,0-0.2V16H240v37.8c0,1.1,1.1,2,2.4,2h10.5V52h-0.6
	C251.2,51.9,250.3,51,250.3,49.9z"/>
<g>
	<rect x="206.1" y="15.9" class="st3" width="8.7" height="11.9"/>
	<path class="st3" d="M214.8,50.8V38.7v-8.4h-8.7v23.4c0,1.7,0.4,2,2,2h10.8v-3.9h-3.1C215,51.8,214.8,51.6,214.8,50.8z"/>
</g>
<path class="st3" d="M235.8,21.9h1.9V16h-11.9c-1.7,0-3,1.3-3,3v11.4h-4.2v3.4h1.4c2.1,0.1,2.9,1.1,2.9,2.2v31h10V36
	c0.1-1.7,1.5-2.2,2.8-2.2h1.4v-3.4h-4.2v-5.5C232.8,23.2,234.2,21.9,235.8,21.9z"/>
<g>
	<rect x="171.2" y="59.2" class="st6" width="46.5" height="2.5"/>
	<rect x="64.6" y="59.2" class="st6" width="77.2" height="2.5"/>
	<rect x="238.2" y="59.2" class="st6" width="32.6" height="2.5"/>
</g>
<path class="st0" d="M55.3,33.1C45.7,36,33.1,45.9,31.8,47.2c-0.9,0.9-1,1.3-0.4,2.6c1,2,2.5,4.9,3.1,6.5c0.9,2.4,0.3,3.4-0.1,3.7
	c-0.3,0.2-1.3,0.1-3.8-2.9c-2.3-2.8-4.9-3.9-6.3-3.9c-1.1,0.1-2.2,0.3-3.9,1.5c-1.4,1-3.7,2.9-9.2,7.1c-2.5,1.9-4.6,0.5-1.7-2.5
	c3.2-3.3,5-4.7,10.9-10.3c1.4-1.3,1.4-1.8,0.5-3.8c-1-2-2.3-4.9-2.3-6.8c0-1.8,0.3-2.8,0.8-3c0.4-0.2,0.9,0.4,1.6,2
	c1.3,2.7,3.1,5.4,5.2,5.4c1.6,0,5.1-2.2,9-4.3c2.4-1.3,6.7-3.3,11.4-4.8c3.2-1,10-2.1,11.5-1.4C58.5,32.6,56.7,32.7,55.3,33.1z"/>
<g>
	<path class="st0" d="M310,14.3c-1.4,0-2.5,1.1-2.5,2.5s1.1,2.5,2.5,2.5s2.5-1.1,2.5-2.5C312.4,15.4,311.3,14.3,310,14.3z M310,18.7
		c-1.1,0-2-0.9-2-2s0.9-2,2-2s2,0.9,2,2S311.1,18.7,310,18.7z"/>
	<path class="st3" d="M310.5,18.2l-0.7-1.1h-0.3v1.1h-0.6v-2.9h0.9c0.2,0,0.3,0,0.5,0c0.1,0,0.3,0.1,0.4,0.1
		c0.1,0.1,0.2,0.2,0.3,0.3c0,0.1,0,0.3,0,0.4c0,0.2-0.1,0.4-0.2,0.5s-0.2,0.2-0.4,0.3l0.8,1.2h-0.7L310.5,18.2L310.5,18.2z
		 M309.7,16.6c0.1,0,0.2,0,0.3,0c0.1,0,0.1,0,0.2-0.1l0.1-0.1c0-0.1,0-0.1,0-0.2s0-0.1,0-0.2l-0.1-0.1c0,0-0.1,0-0.2-0.1
		c-0.1,0-0.2,0-0.3,0h-0.3v0.8C309.4,16.6,309.7,16.6,309.7,16.6z"/>
</g>
</svg>
