<?xml version="1.0" encoding="utf-8"?>
<!-- Generator: Adobe Illustrator 19.2.0, SVG Export Plug-In . SVG Version: 6.00 Build 0)  -->
<svg version="1.1" id="Слой_1" xmlns="http://www.w3.org/2000/svg" xmlns:xlink="http://www.w3.org/1999/xlink" x="0px" y="0px"
	 viewBox="0 0 317 77" style="enable-background:new 0 0 317 77;" xml:space="preserve">
<style type="text/css">
	.st0{fill:#004363;}
	.st1{fill:#FF0012;}
	.st2{fill:none;}
	.st3{fill:#004562;}
	.st4{fill:#004462;}
	.st5{fill:#004564;}
	.st6{fill:#004560;}
	.st7{fill:#0D0606;}
	.st8{fill:#E22019;}
	.st9{fill:#FFFFFF;}
</style>
<g>
	<path class="st0" d="M34.8,25.5c-3.7-2.1-10.3,0.3-13.3,8c-0.2,0.5-0.6-0.6-0.9-1.1C15.6,22.3,12.2,21,8,22.8
		c-6.7,3-9.7,9.7-1.8,19.2c3.4,4.1,5.6,6,8.7,8.3c1.3,1,2.6,1.4,2.8,1.1c0.2-0.4-0.8-1.3-2.1-2.9c-1.9-2.3-2.3-3.7-4.1-6.4
		c-3.6-5.3-3.2-8.8-1.4-10.2c2-1.6,5.3-2.7,8.6,3.5c1.3,2.5,1.9,3.5,2.7,2.8c0.8-0.6,3.9-5.4,6.1-5.3c7.3,0.2,1.6,8.2,0.8,9.6
		c-0.8,1.4,0.1,0.9,1,0c1.5-1.3,2.6-2.3,4.2-4.3C38.7,31.8,38.2,27.6,34.8,25.5z"/>
</g>
<g>
	<path class="st1" d="M35.5,26c-3.6-2.7-8.5-0.7-12.5,6.5c-0.3,0.5-0.4,0.5-0.6,0c-3.7-10.7-8.3-12.3-13.7-9.9
		c-4.4,2-8.8,7.8-1.9,17.4c2.9,4.1,5.7,6.9,8.5,9.6c3.6,3.5,2.7,1.2,0.9-1.6c-1.6-2.5-2.5-4.2-4-7.1c-2.9-5.7-2-9.2-0.1-10.4
		c1.9-1.2,4.8-1.1,7.5,4.7c0.6,1.4,1.2,3,1.7,3.1c0.4,0.1,1.2-1,4.3-4.1c1.8-1.8,4.4-2.1,5.4-1.4c1.5,1.1,2.1,3-0.6,6.9
		c-0.3,0.4-1,1.5-1.9,2.6c-1,1.3-0.7,1.5,0.4,0.8c1.6-1.1,3.5-2.5,5.3-4.2C40.1,33.2,38.8,28.4,35.5,26z"/>
</g>
<path class="st2" d="M28,42.7c1-1.3,1.6-2.5,2.2-3.2c5.1-6.7-1.3-7.9-4.2-5.3c-0.8,0.7-2.1,1.9-2.8,2.9c0-1.2-0.9-2.9-0.9-2.9
	c4.6-9.6,10.2-10.9,13.9-7.8c2.9,2.5,4.3,7.7-2.4,13.4c-1.4,1.2-3.2,2.8-4.8,3.8C27.6,44.4,27.3,43.6,28,42.7z"/>
<g>
	<rect x="64.6" y="22.2" class="st3" width="137" height="2.5"/>
	<rect x="255.2" y="22.2" class="st3" width="51.2" height="2.5"/>
</g>
<path class="st3" d="M147,36.4c-1.1,0-2.1,0.9-2.1,2.1c0,0,0,15.9,0,21.5c0,1.4,1.2,1.9,1.9,1.9c2,0,13.1,0,13.1,0v6
	c0,1.1-0.9,2-2,2h-1.6c-1.1,0-2-0.9-2-2v-1.7h-9.4v5.7c0,1.1,0.9,2.1,2.1,2.1h19c1.1,0,2.1-0.9,2.1-2.1c0,0,0,0,0-28
	c0-0.8,1-1.5,1.9-1.5h0.1v-5.9H147V36.4z M160,55.8c0,1.1-0.9,2-2,2h-1.6c-1.1,0-2-0.9-2-2V43.1c0-1.1,0.9-2,2-2h1.6
	c1.1,0,2,0.9,2,2V55.8z"/>
<path class="st4" d="M201,56.1c0-9,0-16.6,0-16.6c0.1-1.9-1-3.1-3.1-3.2h-24v6.4h0.1c0.9,0,1.9,0.8,1.9,1.7c0,7.5,0,13.1,0,17.4h9.9
	V44.2c0-1.7,0.9-3,2-3h1.6c1.1,0,2,1.4,2,3v17.5h11.8v-3.6C202.3,58.1,201,57.2,201,56.1z"/>
<path class="st0" d="M112.6,57.8c-0.4,0-0.9,0-1.5,0c-1.2,0-2.3-1-2.3-2.3c0,0,0-8.5,0-14.5c0-2.9-1.5-4.7-5.4-4.7
	c-10.7,0-38.9,0-38.9,0V41c0.5,0,0.8,0,1.2,0c1.2,0,2.3,1,2.3,2.3v18.4h11.9V43.2c0-1.2,1-2.3,2.3-2.3s2.3,1,2.3,2.3v18.5h10.4V43.2
	c0-1.2,1-2.3,2.3-2.3s2.3,1,2.3,2.3v18.5h13.3v-3.9H112.6z"/>
<path class="st4" d="M142.1,57.8c-1.2,0-2.3-1-2.3-2.3V54l0,0V39.3c0-1.7-1.3-3-2.9-3h-18.8c-1.6,0-2.9,1.3-2.9,3v4.8h9.9
	c0-1.2,1-2.3,2.3-2.3h0.9c1.2,0,2.3,1,2.3,2.3v3h-15.3v11.5c0,1.7,1.3,3,2.9,3h24.2c0-1.4,0-2.2,0-3.8H142.1z M130.5,56.7
	c0,0.4-0.4,0.8-0.8,0.8h-4.2c-0.4,0-0.8-0.4-0.8-0.8v-4.2c0-0.4,0.4-0.8,0.8-0.8h4.2c0.4,0,0.8,0.4,0.8,0.8V56.7z"/>
<polygon class="st5" points="314.5,67.9 299.7,47.4 308,36.3 298.5,36.3 295.1,40.9 291.8,36.3 282.3,36.3 290.3,47.4 275.1,67.7 
	286.3,67.7 294.9,53.8 303.3,67.9 "/>
<path class="st0" d="M268.5,52.3v1.6c0,1.2-0.9,2.3-2.1,2.3h-0.9c-1.1,0-2.1-1-2.1-2.3v-4.1h14.2V39.3c0-1.7-1.2-3-2.7-3
	c0,0-10,0-16.7,0c-3.5,0-3.5,1.8-3.5,4.8c0,0.7,0,2.9,0,2.9l0,0v14.6c0,1.7,1.2,3,2.7,3H275c1.5,0,2.7-1.3,2.7-3v-6.4h-9.2V52.3z
	 M263.5,43.5c0-1.1,0.9-2,2-2h1c1.1,0,2,0.9,2,2v0.8c0,1.1-0.9,2-2,2h-1c-1.1,0-2-0.9-2-2V43.5z"/>
<path class="st5" d="M250.3,55.9V43.2c0-0.1,0-0.1,0-0.2V22H240v37.8c0,1.1,1.1,2,2.4,2h10.5V58h-0.6
	C251.2,57.9,250.3,57,250.3,55.9z"/>
<g>
	<rect x="206.1" y="21.9" class="st3" width="8.7" height="11.9"/>
	<path class="st3" d="M214.8,56.8V44.7v-8.4h-8.7v23.4c0,1.7,0.4,2,2,2h10.8v-3.9h-3.1C215,57.8,214.8,57.6,214.8,56.8z"/>
</g>
<path class="st3" d="M235.8,27.9h1.9V22h-11.9c-1.7,0-3,1.3-3,3v11.4h-4.2v3.4h1.4c2.1,0.1,2.9,1.1,2.9,2.2v31h10V42
	c0.1-1.7,1.5-2.2,2.8-2.2h1.4v-3.4h-4.2v-5.5C232.8,29.2,234.2,27.9,235.8,27.9z"/>
<g>
	<rect x="171.2" y="65.2" class="st6" width="46.5" height="2.5"/>
	<rect x="64.6" y="65.2" class="st6" width="77.2" height="2.5"/>
	<rect x="238.2" y="65.2" class="st6" width="32.6" height="2.5"/>
</g>
<path class="st0" d="M55.3,39.1C45.7,42,33.1,51.9,31.8,53.2c-0.9,0.9-1,1.3-0.4,2.6c1,2,2.5,4.9,3.1,6.5c0.9,2.4,0.3,3.4-0.1,3.7
	c-0.3,0.2-1.3,0.1-3.8-2.9c-2.3-2.8-4.9-3.9-6.3-3.9c-1.1,0.1-2.2,0.3-3.9,1.5c-1.4,1-3.7,2.9-9.2,7.1c-2.5,1.9-4.6,0.5-1.7-2.5
	c3.2-3.3,5-4.7,10.9-10.3c1.4-1.3,1.4-1.8,0.5-3.8c-1-2-2.3-4.9-2.3-6.8c0-1.8,0.3-2.8,0.8-3c0.4-0.2,0.9,0.4,1.6,2
	c1.3,2.7,3.1,5.4,5.2,5.4c1.6,0,5.1-2.2,9-4.3c2.4-1.3,6.7-3.3,11.4-4.8c3.2-1,10-2.1,11.5-1.4C58.5,38.6,56.7,38.7,55.3,39.1z"/>
<g>
	<path class="st0" d="M310,20.3c-1.4,0-2.5,1.1-2.5,2.5s1.1,2.5,2.5,2.5s2.5-1.1,2.5-2.5C312.4,21.4,311.3,20.3,310,20.3z M310,24.7
		c-1.1,0-2-0.9-2-2s0.9-2,2-2s2,0.9,2,2S311.1,24.7,310,24.7z"/>
	<path class="st3" d="M310.5,24.2l-0.7-1.1h-0.3v1.1h-0.6v-2.9h0.9c0.2,0,0.3,0,0.5,0c0.1,0,0.3,0.1,0.4,0.1
		c0.1,0.1,0.2,0.2,0.3,0.3c0,0.1,0,0.3,0,0.4c0,0.2-0.1,0.4-0.2,0.5s-0.2,0.2-0.4,0.3l0.8,1.2h-0.7V24.2z M309.7,22.6
		c0.1,0,0.2,0,0.3,0c0.1,0,0.1,0,0.2-0.1l0.1-0.1c0-0.1,0-0.1,0-0.2s0-0.1,0-0.2l-0.1-0.1c0,0-0.1,0-0.2-0.1c-0.1,0-0.2,0-0.3,0
		h-0.3v0.8C309.4,22.6,309.7,22.6,309.7,22.6z"/>
</g>
<g>
	<path class="st7" d="M31,2.6c0.1,0,0.3,0,0.6,0c0.7,0,1.2-0.1,1.9-0.1c1,0,1.9,0.1,2.8,0.2c2.3,0.3,4.4,0.9,6.4,2.2
		C44,5.9,45.2,7,46.1,8.3c1.1,1.6,2,3.2,2.7,5c0.6,1.5,1.1,2.9,1.5,4.5c0.2,1,0.6,2,0.8,3c0.2,0.7,0.3,1.6,0.6,2.3c0,0,0,0.1,0.1,0
		c1-0.1,1.9,0.3,2.6,1c0.6,0.7,1,1.3,1.3,2.1c0.3,0.9,0.4,1.7,0.5,2.7c0,0.7-0.1,1.4-0.4,2c-0.5,1.2-1.3,1.8-2.4,2.2
		c-1.7,0.5-3.5,0.4-5-0.7c-1-0.6-1.5-1.5-1.9-2.5c-0.3-0.6-0.5-1.3-0.5-2c0-0.1,0-0.1-0.1-0.3c-0.3,0.1-0.6,0.2-0.7,0.3
		c-0.1,0-0.3,0.1-0.4,0.1c-0.1,0-0.2-0.2-0.2-0.3s0-0.3-0.1-0.3c-0.2-0.4-0.6-0.8-0.7-1.2c-1.5-1.9-3.2-3.6-5-5
		c-1.3-1.1-2.8-2.1-4.3-2.8c-1.5-0.8-3.1-1.4-4.7-1.6c-1.2-0.2-2.3-0.3-3.6-0.1c-1.6,0.3-2.9,0.9-4.3,1.7c-1.4,0.9-2.4,2.1-3.5,3.4
		c0,0.1-0.2,0.1-0.1,0c-0.2-0.2-0.3-0.5-0.4-0.6c-0.2-0.4-0.4-0.9-0.6-1.3l0,0c-0.1-0.8-0.1-1.7-0.2-2.5c0-0.3,0.2-0.4,0.3-0.6
		c0.2-0.1,0.2-0.4,0.3-0.6c0-0.3,0.1-0.4,0.1-0.7c0.1-0.5,0.2-0.9,0.4-1.4c0-0.3,0.2-0.5,0.5-0.6s0.5-0.3,0.8-0.4
		c0.4-0.2,0.8-0.4,1-0.8c0.3-1,1.1-2.4,2-3.6c0.9-1.4,2.1-2.5,3.4-3.5s2.6-1.7,4.2-2c0.1,0,0.3,0,0.3-0.1C30.4,2.7,30.7,2.6,31,2.6z
		 M32.1,9.6c0.1,0,0.1,0,0.3,0c0.4-0.1,1,0,1.4,0.1c1.1,0.2,2.1,0.6,3,1.1c0.2,0.2,0.5,0.2,0.9,0.4c0-0.1-0.1-0.3-0.1-0.3
		c-0.1-0.2-0.4-0.3-0.5-0.5c-1.1-1-2-1.7-3.1-2.5c-0.1-0.2-0.4-0.2-0.5-0.4c0.1,0,0.1,0,0.3,0c0.1,0,0.1,0,0.3,0
		c0.9,0.2,1.7,0.7,2.3,1.1c0.8,0.7,1.7,1.4,2.4,2.2c1.3,1.5,2.4,2.9,3.3,4.4c2,3,3.7,6.2,5.4,9.3c0,0.1,0.1,0.2,0.1,0
		c0.5-0.3,0.9-0.7,1.4-1c0.3-0.2,0.5-0.3,0.8-0.4c0.3-0.1,0.7-0.2,1-0.2c0,0,0.1,0,0.2-0.1c-0.3-0.9-0.4-1.7-0.6-2.6
		c-0.4-1.5-0.8-2.7-1.2-4.1c-0.6-1.9-1.4-3.7-2.2-5.5C45.9,9.3,45,8,43.9,6.7c-0.9-1-1.9-1.7-3.2-2.3c-1.3-0.4-2.5-0.6-3.8-0.8
		c-1.1-0.2-2.2-0.2-3.2-0.4S31.5,3,30.4,3.3c-1,0.2-2.1,0.7-2.9,1.4c-1.6,1.1-3,2.4-4.3,3.9c-0.8,0.7-1.5,1.7-2.2,2.5
		c-0.2,0.4-0.4,0.8-0.7,1l0.1,0c0.9-0.3,1.7-0.5,2.6-0.6c0.6-0.2,1.3-0.2,2-0.2c0.7,0,1.5,0,2.2,0c1.1,0.1,2,0.2,3.1,0.4
		c3.3,0.6,6.4,1.7,9.4,3c0.1,0,0.4,0.2,0.5,0.2c-0.1-0.3-0.2-0.4-0.3-0.6c-0.4-0.8-1-1.4-1.7-2c-0.7-0.5-1.6-1-2.5-1.4
		C34.6,10.4,33.4,9.9,32.1,9.6z M26.5,14.6c-0.4,0.1-0.8,0-1.2,0.1c-1.2,0.1-2.4,0.1-3.7,0.5c-0.8,0.1-1.7,0.4-2.5,0.7
		c-0.6,0.2-1.2,0.5-1.5,1c-0.3,0.2-0.5,0.6-0.6,1c0,0.3,0,0.6,0.1,0.8c0.2,0.7,0.6,1.5,0.9,2.1c0.1,0.2,0.1,0.2,0.3,0l0,0
		c0.2-0.1,0.3-0.2,0.5-0.3c0.3-0.4,0.7-0.8,1.2-1.2c1.7-1.6,3.6-2.5,5.9-2.8c1-0.1,2-0.2,2.9-0.2c0.8,0,1.6,0.1,2.3,0.3
		c1.7,0.3,3.3,1,4.7,1.9c2,1.2,3.8,2.7,5.4,4.4c1.2,1.2,2.3,2.5,3.3,3.7c0.2,0.3,0.6,0.7,0.8,1c0.2,0.2,0.4,0.2,0.6,0
		c0.2-0.1,0.2-0.2,0.4-0.5c0.2-0.5,0.5-1.2,0.6-1.8l0-0.1c-0.7-0.5-1.3-1.2-2-1.9c-1.4-1.3-2.8-2.8-4.2-4.3
		c-0.2-0.2-0.4-0.3-0.6-0.5l0.1,0c0.4,0.3,0.7,0.5,1,0.9c0.7,0.5,1.4,1.2,2.2,1.8c0.2,0.2,0.5,0.4,0.8,0.4c0.1,0,0.3,0,0.2-0.2
		c-0.1-0.2-0.2-0.4-0.3-0.6c-0.9-1.7-1.9-3.4-2.8-5c0,0-0.1,0-0.1-0.2c-2.2-0.9-4.4-1.7-6.7-2.4c-1.6-0.1-3-0.7-4.6-1
		c-0.7-0.1-1.2-0.2-1.9-0.2c-0.3,0.1-0.6,0.2-0.8,0.1c-1.4,0.2-2.9,0.2-4.3,0.5c-0.7,0-1.4,0.2-2.1,0.5c-0.6,0.2-1.2,0.5-1.5,0.8
		c-0.7,0.6-0.7,1.1-0.6,2c1.9-0.8,2.1-0.7,4.2-1.1c1.1-0.2,2.4-0.3,3.5-0.1C26,14.5,26.3,14.6,26.5,14.6z M51.5,33
		c2.5-0.2,4.4-2.4,4.2-4.9c-0.2-2.5-2.4-4.4-5-4.2c-2.5,0.2-4.4,2.4-4.2,4.9C46.7,31.4,49,33.3,51.5,33z"/>
	<path class="st8" d="M32.1,9.6c1.3,0.4,2.6,0.9,3.8,1.3c0.9,0.4,1.6,0.8,2.5,1.4c0.7,0.5,1.3,1.1,1.7,2c0.1,0.2,0.2,0.4,0.3,0.6
		c-0.1,0-0.4-0.2-0.5-0.2c-3.1-1.4-6.2-2.5-9.4-3c-1.1-0.2-2-0.4-3.1-0.4c-0.8,0.1-1.7,0.1-2.4,0.1c-0.7,0-1.4,0-2,0.2
		c-0.8,0.1-1.7,0.4-2.6,0.6c0,0,0,0-0.1,0c0.2-0.4,0.4-0.6,0.7-1c0.7-1,1.4-1.8,2.1-2.7c1.3-1.4,2.7-2.8,4.4-3.8
		c0.9-0.7,1.9-1.2,3-1.4c1-0.4,2.1-0.5,3.2-0.3c1,0,2,0.2,3.1,0.4c1.3,0.2,2.5,0.4,3.8,1.1c1.2,0.5,2.2,1.4,3.2,2.3
		c1.1,1.3,2,2.7,2.8,4.2c0.9,1.8,1.6,3.6,2.2,5.5c0.5,1.3,0.9,2.8,1.2,4.1c0.3,0.9,0.5,1.7,0.6,2.6c0,0.1,0,0.1-0.2,0.1
		c-0.3,0.1-0.7,0.2-1,0.2S49,23.8,48.8,24c-0.5,0.3-0.9,0.7-1.4,1c-0.2,0.1-0.2,0.1-0.1,0c-1.6-3.2-3.4-6.4-5.4-9.3
		c-1.1-1.6-2.1-3-3.3-4.4C37.9,10.4,37,9.6,36.2,9c-0.7-0.5-1.5-0.9-2.3-1.1c-0.1,0-0.1,0-0.3,0s-0.1,0-0.3,0
		c0.1,0.2,0.4,0.2,0.5,0.4c1.2,0.5,2.1,1.2,3.1,2.1c0.2,0.2,0.4,0.3,0.5,0.5c0.1,0.2,0.1,0.2,0.1,0.3c-0.2-0.2-0.5-0.2-0.9-0.4
		c-1-0.5-1.9-0.8-3-1.1c-0.4-0.1-0.9-0.2-1.4-0.1C32.2,9.6,32.1,9.6,32.1,9.6z"/>
	<path class="st9" d="M26.5,14.6c-0.3,0-0.5-0.1-0.8-0.1c-1.2-0.2-2.3-0.1-3.5,0.1c-2.1,0.3-2.1,0.5-4.2,1.1c-0.2-0.7,0-1.4,0.6-2
		c0.5-0.5,0.9-0.7,1.5-0.8c0.7-0.3,1.5-0.4,2.3-0.6c1.4-0.2,2.8-0.3,4.3-0.5c0.3-0.1,0.6,0,0.8-0.1c0.6-0.2,1.2-0.1,1.9,0.2
		c1.6,0.3,3,0.8,4.6,1.4c2.2,0.8,4.5,1.6,6.7,2.4c0,0,0.1,0,0.1,0.2c0.9,1.7,1.9,3.2,2.8,5c0.1,0.2,0.2,0.4,0.3,0.6
		c0.1,0.2,0,0.3-0.2,0.2c-0.3,0-0.5-0.2-0.8-0.4c-0.7-0.5-1.5-1.1-2.2-1.8c-0.4-0.3-0.7-0.5-1-0.9c0,0,0,0-0.1,0
		c0.2,0.2,0.4,0.3,0.6,0.5c1.4,1.5,2.8,2.8,4.2,4.3c0.6,0.7,1.3,1.2,2,1.9c0,0,0,0,0,0.1c-0.1,0.7-0.3,1.2-0.6,1.8
		c0,0.1-0.2,0.4-0.4,0.5c-0.2,0.2-0.4,0.2-0.6,0c-0.4-0.3-0.6-0.7-0.8-1c-1-1.3-2.2-2.6-3.3-3.7c-1.6-1.7-3.4-3.2-5.4-4.4
		c-1.5-0.9-3-1.6-4.7-1.9c-0.8-0.1-1.6-0.3-2.3-0.3c-1,0-1.9-0.1-2.9,0.2c-2.3,0.3-4.2,1.3-5.9,2.8c-0.3,0.4-0.7,0.8-1.2,1.2
		c-0.2,0.1-0.3,0.2-0.5,0.3l0,0c-0.2,0.1-0.2,0.1-0.3,0c-0.4-0.9-0.7-1.6-0.8-2.3C17.1,18.3,17,18,17,17.8c0.1-0.4,0.3-0.8,0.6-1
		c0.5-0.5,1.1-0.8,1.5-1c0.7-0.3,1.6-0.5,2.5-0.7c1.3-0.3,2.4-0.4,3.7-0.5C25.7,14.6,26.1,14.7,26.5,14.6z"/>
	<path class="st9" d="M51.5,33c-2.5,0.2-4.8-1.7-4.9-4.2c-0.2-2.5,1.6-4.7,4.2-4.9c2.5-0.2,4.8,1.7,5,4.2C55.9,30.6,54,32.8,51.5,33
		z"/>
</g>
</svg>
