<?xml version="1.0" encoding="utf-8"?>
<!-- Generator: Adobe Illustrator 18.0.0, SVG Export Plug-In . SVG Version: 6.00 Build 0)  -->
<!DOCTYPE svg PUBLIC "-//W3C//DTD SVG 1.1//EN" "http://www.w3.org/Graphics/SVG/1.1/DTD/svg11.dtd">
<svg version="1.1" id="Слой_1" xmlns="http://www.w3.org/2000/svg" xmlns:xlink="http://www.w3.org/1999/xlink" x="0px" y="0px"
	 viewBox="0 0 317 58" enable-background="new 0 0 317 58" xml:space="preserve">
<g>
	<path fill="#004363" d="M34.8,6.5c-3.7-2.1-10.3,0.3-13.3,8c-0.2,0.5-0.6-0.6-0.9-1.1C15.6,3.3,12.2,2,8,3.8
		c-6.7,3-9.7,9.7-1.8,19.2c3.4,4.1,5.6,6,8.7,8.3c1.3,1,2.6,1.4,2.8,1.1c0.2-0.4-0.8-1.3-2.1-2.9c-1.9-2.3-2.3-3.7-4.1-6.4
		c-3.6-5.3-3.2-8.8-1.4-10.2c2-1.6,5.3-2.7,8.6,3.5c1.3,2.5,1.9,3.5,2.7,2.8c0.8-0.6,3.9-5.4,6.1-5.3c7.3,0.2,1.6,8.2,0.8,9.6
		c-0.8,1.4,0.1,0.9,1,0c1.5-1.3,2.6-2.3,4.2-4.3C38.7,12.8,38.2,8.6,34.8,6.5z"/>
</g>
<g>
	<path fill="#FF0012" d="M35.5,7C31.9,4.3,27,6.3,23,13.5c-0.3,0.5-0.4,0.5-0.6,0C18.7,2.8,14.1,1.2,8.7,3.6
		c-4.4,2-8.8,7.8-1.9,17.4c2.9,4.1,5.7,6.9,8.5,9.6c3.6,3.5,2.7,1.2,0.9-1.6c-1.6-2.5-2.5-4.2-4-7.1c-2.9-5.7-2-9.2-0.1-10.4
		c1.9-1.2,4.8-1.1,7.5,4.7c0.6,1.4,1.2,3,1.7,3.1c0.4,0.1,1.2-1,4.3-4.1c1.8-1.8,4.4-2.1,5.4-1.4c1.5,1.1,2.1,3-0.6,6.9
		c-0.3,0.4-1,1.5-1.9,2.6c-1,1.3-0.7,1.5,0.4,0.8c1.6-1.1,3.5-2.5,5.3-4.2C40.1,14.2,38.8,9.4,35.5,7z"/>
</g>
<path fill="none" d="M28,23.7c1-1.3,1.6-2.5,2.2-3.2c5.1-6.7-1.3-7.9-4.2-5.3c-0.8,0.7-2.1,1.9-2.8,2.9c0-1.2-0.9-2.9-0.9-2.9
	c4.6-9.6,10.2-10.9,13.9-7.8c2.9,2.5,4.3,7.7-2.4,13.4c-1.4,1.2-3.2,2.8-4.8,3.8C27.6,25.4,27.3,24.6,28,23.7z"/>
<g>
	<rect x="64.6" y="3.2" fill="#004562" width="137" height="2.5"/>
	<rect x="255.2" y="3.2" fill="#004562" width="51.2" height="2.5"/>
</g>
<path fill="#004562" d="M147,17.4c-1.1,0-2.1,0.9-2.1,2.1c0,0,0,15.9,0,21.5c0,1.4,1.2,1.9,1.9,1.9c2,0,13.1,0,13.1,0v6
	c0,1.1-0.9,2-2,2h-1.6c-1.1,0-2-0.9-2-2l0-1.7h-9.4v5.7c0,1.1,0.9,2.1,2.1,2.1H166c1.1,0,2.1-0.9,2.1-2.1c0,0,0,0,0-28
	c0-0.8,1-1.5,1.9-1.5h0.1v-5.9H147z M160,36.8c0,1.1-0.9,2-2,2h-1.6c-1.1,0-2-0.9-2-2V24.1c0-1.1,0.9-2,2-2h1.6c1.1,0,2,0.9,2,2
	V36.8z"/>
<path fill="#004462" d="M201,37.1c0-9,0-16.6,0-16.6c0.1-1.9-1-3.1-3.1-3.2l-24,0v6.4h0.1c0.9,0,1.9,0.8,1.9,1.7
	c0,7.5,0,13.1,0,17.4h9.9V25.2c0-1.7,0.9-3,2-3h1.6c1.1,0,2,1.4,2,3v17.5h11.8v-3.6C202.3,39.1,201,38.2,201,37.1z"/>
<path fill="#004363" d="M112.6,38.8c-0.4,0-0.9,0-1.5,0c-1.2,0-2.3-1-2.3-2.3c0,0,0-8.5,0-14.5c0-2.9-1.5-4.7-5.4-4.7
	c-10.7,0-38.9,0-38.9,0l0,4.7c0.5,0,0.8,0,1.2,0c1.2,0,2.3,1,2.3,2.3v18.4h11.9V24.2c0-1.2,1-2.3,2.3-2.3s2.3,1,2.3,2.3v18.5h10.4
	V24.2c0-1.2,1-2.3,2.3-2.3s2.3,1,2.3,2.3v18.5h13.3V38.8z"/>
<path fill="#004462" d="M142.1,38.8c-1.2,0-2.3-1-2.3-2.3V35l0,0V20.3c0-1.7-1.3-3-2.9-3h-18.8c-1.6,0-2.9,1.3-2.9,3v4.8h9.9
	c0-1.2,1-2.3,2.3-2.3h0.9c1.2,0,2.3,1,2.3,2.3v3h-15.3v11.5c0,1.7,1.3,3,2.9,3h24.2c0-1.4,0-2.2,0-3.8H142.1z M130.5,37.7
	c0,0.4-0.4,0.8-0.8,0.8h-4.2c-0.4,0-0.8-0.4-0.8-0.8v-4.2c0-0.4,0.4-0.8,0.8-0.8h4.2c0.4,0,0.8,0.4,0.8,0.8V37.7z"/>
<polygon fill="#004564" points="314.5,48.9 299.7,28.4 308,17.3 298.5,17.3 295.1,21.9 291.8,17.3 282.3,17.3 290.3,28.4 
	275.1,48.7 286.3,48.7 294.9,34.8 303.3,48.9 "/>
<path fill="#004363" d="M268.5,33.3l0,1.6c0,1.2-0.9,2.3-2.1,2.3h-0.9c-1.1,0-2.1-1-2.1-2.3l0-4.1h14.2l0-10.5c0-1.7-1.2-3-2.7-3
	c0,0-10,0-16.7,0c-3.5,0-3.5,1.8-3.5,4.8c0,0.7,0,2.9,0,2.9l0,0v14.6c0,1.7,1.2,3,2.7,3H275c1.5,0,2.7-1.3,2.7-3l0-6.4H268.5z
	 M263.5,24.5c0-1.1,0.9-2,2-2h1c1.1,0,2,0.9,2,2v0.8c0,1.1-0.9,2-2,2h-1c-1.1,0-2-0.9-2-2V24.5z"/>
<path fill="#004564" d="M250.3,36.9V24.2c0-0.1,0-0.1,0-0.2V3H240v37.8c0,1.1,1.1,2,2.4,2l10.5,0v-3.8h-0.6
	C251.2,38.9,250.3,38,250.3,36.9z"/>
<g>
	<rect x="206.1" y="2.9" fill="#004562" width="8.7" height="11.9"/>
	<path fill="#004562" d="M214.8,37.8V25.7v-8.4h-8.7v23.4c0,1.7,0.4,2,2,2h10.8v-3.9h-3.1C215,38.8,214.8,38.6,214.8,37.8z"/>
</g>
<path fill="#004562" d="M235.8,8.9h1.9V3h-11.9c-1.7,0-3,1.3-3,3v11.4h-4.2v3.4h1.4c2.1,0.1,2.9,1.1,2.9,2.2l0,31h10l0-31
	c0.1-1.7,1.5-2.2,2.8-2.2h1.4v-3.4h-4.2v-5.5C232.8,10.2,234.2,8.9,235.8,8.9z"/>
<g>
	<rect x="171.2" y="46.2" fill="#004560" width="46.5" height="2.5"/>
	<rect x="64.6" y="46.2" fill="#004560" width="77.2" height="2.5"/>
	<rect x="238.2" y="46.2" fill="#004560" width="32.6" height="2.5"/>
</g>
<path fill="#004363" d="M55.3,20.1C45.7,23,33.1,32.9,31.8,34.2c-0.9,0.9-1,1.3-0.4,2.6c1,2,2.5,4.9,3.1,6.5
	c0.9,2.4,0.3,3.4-0.1,3.7c-0.3,0.2-1.3,0.1-3.8-2.9c-2.3-2.8-4.9-3.9-6.3-3.9c-1.1,0.1-2.2,0.3-3.9,1.5c-1.4,1-3.7,2.9-9.2,7.1
	c-2.5,1.9-4.6,0.5-1.7-2.5c3.2-3.3,5-4.7,10.9-10.3c1.4-1.3,1.4-1.8,0.5-3.8c-1-2-2.3-4.9-2.3-6.8c0-1.8,0.3-2.8,0.8-3
	c0.4-0.2,0.9,0.4,1.6,2c1.3,2.7,3.1,5.4,5.2,5.4c1.6,0,5.1-2.2,9-4.3c2.4-1.3,6.7-3.3,11.4-4.8c3.2-1,10-2.1,11.5-1.4
	C58.5,19.6,56.7,19.7,55.3,20.1z"/>
<g>
	<path fill="#004363" d="M310,1.3c-1.4,0-2.5,1.1-2.5,2.5c0,1.4,1.1,2.5,2.5,2.5c1.4,0,2.5-1.1,2.5-2.5C312.4,2.4,311.3,1.3,310,1.3
		z M310,5.7c-1.1,0-2-0.9-2-2s0.9-2,2-2s2,0.9,2,2S311.1,5.7,310,5.7z"/>
	<path fill="#004562" d="M310.5,5.2l-0.7-1.1h-0.3l0,1.1h-0.6l0-2.9h0.9c0.2,0,0.3,0,0.5,0c0.1,0,0.3,0.1,0.4,0.1
		c0.1,0.1,0.2,0.2,0.3,0.3C311,2.8,311,3,311,3.1c0,0.2-0.1,0.4-0.2,0.5c-0.1,0.1-0.2,0.2-0.4,0.3l0.8,1.2H310.5z M309.7,3.6
		c0.1,0,0.2,0,0.3,0c0.1,0,0.1,0,0.2-0.1c0,0,0.1-0.1,0.1-0.1c0-0.1,0-0.1,0-0.2c0-0.1,0-0.1,0-0.2c0,0-0.1-0.1-0.1-0.1
		c0,0-0.1,0-0.2-0.1c-0.1,0-0.2,0-0.3,0h-0.3v0.8H309.7z"/>
</g>
</svg>
