<?xml version="1.0" encoding="utf-8"?>
<!-- Generator: Adobe Illustrator 23.0.1, SVG Export Plug-In . SVG Version: 6.00 Build 0)  -->
<svg version="1.1" id="Layer_1" xmlns="http://www.w3.org/2000/svg" xmlns:xlink="http://www.w3.org/1999/xlink" x="0px" y="0px"
	 viewBox="0 0 512 512" style="enable-background:new 0 0 512 512;" xml:space="preserve">
<style type="text/css">
	.st0{fill:#DAD5D6;}
</style>
<g>
	<g>
		<g>
			<path class="st0" d="M494.8,104.9l-35.9,0V67.8c0-8.5-6.2-15.7-14.6-17c-1.5-0.2-36.4-5.3-78.5,2.4
				c-46.9,8.5-84.4,29.6-109.8,61.4c-25.4-31.8-62.8-52.9-109.8-61.4c-42.1-7.7-77.1-2.6-78.5-2.4c-8.4,1.3-14.6,8.5-14.6,17v37.2
				H17.2c-9.5,0-17.2,7.7-17.2,17.2v323.8c0,5.6,2.7,10.8,7.2,14c4.5,3.2,10.4,4.1,15.6,2.2c1.3-0.4,130-44.4,226-0.6
				c4.5,2.1,9.7,2.1,14.3,0c95.7-43.7,224.8,0.2,226,0.6c1.8,0.6,3.7,1,5.6,1c3.5,0,7-1.1,10-3.2c4.5-3.2,7.2-8.4,7.2-14V122.1
				C512,112.6,504.3,104.9,494.8,104.9z M34.4,422.9V139.3h18.7v228.8c0,5,2.2,9.7,6,13c3.8,3.3,8.8,4.7,13.7,4
				c0.9-0.1,75.6-10.4,130.1,27C135.7,400.6,68.5,413.9,34.4,422.9z M238.8,396.6c-24-21.7-55.3-36.4-92.6-43.2
				c-17.9-3.3-34.6-4.2-47.9-4.2c-4,0-7.6,0.1-10.9,0.2V83.6h0c33-1.5,113.3,2,151.4,66.5V396.6z M273.2,150.1
				c37.9-64.2,118.4-67.9,151.4-66.5v265.9c-14.5-0.6-35.5-0.2-58.8,4c-37.3,6.8-68.6,21.5-92.6,43.2L273.2,150.1L273.2,150.1z
				 M309.1,412.1c54.5-37.4,129.2-27.2,130.1-27c4.9,0.7,10-0.7,13.8-4c3.8-3.3,6-8,6-13V139.3h18.7v283.6
				C443.5,413.9,376.2,400.6,309.1,412.1z"/>
		</g>
	</g>
</g>
</svg>
