<svg id="Layer_1" data-name="Layer 1" xmlns="http://www.w3.org/2000/svg" viewBox="0 0 54.83 40.41"><defs><style>.cls-1{fill:#4c4c4c;}</style></defs><title>pilow-icon</title><path class="cls-1" d="M55.76,3.37a2.13,2.13,0,0,1-.3.93c-0.3.52-.61,1-0.92,1.55A11,11,0,0,0,53.09,9.5a15.27,15.27,0,0,0-.15,3.25,52.62,52.62,0,0,1-.12,5.73c-0.12,1.58-.24,3.16-0.41,4.74s-0.37,3.11-.6,4.66A20.35,20.35,0,0,0,51.65,33a13.43,13.43,0,0,0,1.22,4.19c0.35,0.76.75,1.49,1.08,2.26a5.83,5.83,0,0,1,.39,1.25,0.55,0.55,0,0,1-.73.7,2.67,2.67,0,0,1-1.25-.59c-0.6-.51-1.18-1.05-1.8-1.54A13.41,13.41,0,0,0,45,36.77a21.56,21.56,0,0,0-5.35-.44c-2.1.06-4.21,0.16-6.31,0.23a62.34,62.34,0,0,1-6.43-.09c-1.78-.13-3.55-0.28-5.32-0.48A50.39,50.39,0,0,1,14,34.67,19.58,19.58,0,0,1,12,34a9.14,9.14,0,0,0-3.23-.6,24.17,24.17,0,0,0-4.63.44c-0.58.1-1.16,0.2-1.75,0.27A2.46,2.46,0,0,1,1.51,34,0.66,0.66,0,0,1,1.06,33a2.86,2.86,0,0,1,.66-0.75c0.48-.38,1-0.7,1.51-1.07,0.7-.52,1.41-1,2.06-1.61a7,7,0,0,0,2.32-4.18c0.19-1,.31-2.06.43-3.1a44.4,44.4,0,0,1,1.15-6,40,40,0,0,1,2-5.63,9,9,0,0,0,.68-2.7,5.17,5.17,0,0,0-.8-3.28c-0.29-.47-0.62-0.92-0.94-1.38a3.21,3.21,0,0,1-.57-1.16c-0.17-.81.26-1.22,1-1a5.74,5.74,0,0,1,.88.41A14.8,14.8,0,0,0,14.7,2.89a12.06,12.06,0,0,0,4.43.32A41.78,41.78,0,0,1,24.58,3c2.25,0,4.5.1,6.74,0.22a67,67,0,0,1,8.06.95c1.54,0.27,3.08.55,4.64,0.76a16,16,0,0,0,6.87-.44,9.32,9.32,0,0,0,2.47-1.19c0.24-.16.47-0.33,0.72-0.46a3.34,3.34,0,0,1,.73-0.31C55.4,2.35,55.77,2.66,55.76,3.37ZM12,3l0,0c0.07,0.17.13,0.35,0.2,0.52,0.27,0.6.55,1.2,0.8,1.81a3.06,3.06,0,0,1,.25,1.73C13.18,7.54,13.09,8,13,8.4a26.32,26.32,0,0,1-1.47,3.75,4.15,4.15,0,0,0-.32.77A9.41,9.41,0,0,0,11,16.66a3.61,3.61,0,0,0,1,2.08l0.13,0.09,0,0A3.22,3.22,0,0,1,10,16.26a0.35,0.35,0,0,0-.05.12,19.11,19.11,0,0,0-.35,3.71c0,1.28,0,2.55,0,3.83a15.67,15.67,0,0,1-.35,2.91,4.42,4.42,0,0,1-1.17,2l-1.1,1.18c-0.13.15-.25,0.3-0.41,0.49H6.84c0.45,0,.89-0.08,1.34-0.08a7.51,7.51,0,0,1,1.7.06,23.26,23.26,0,0,1,2.84.85c1.49,0.54,3,1.16,4.45,1.73a17.88,17.88,0,0,0,3.07.89c-0.61-.36-1.3-0.74-2-1.18a7.18,7.18,0,0,1-1.73-1.63,6.82,6.82,0,0,1-1.12-2.07,0.59,0.59,0,0,1,.12.13,11.73,11.73,0,0,0,3.31,2.87A16.32,16.32,0,0,0,24.16,34a5.32,5.32,0,0,0,1.19.17c2-.09,4-0.37,5.93-0.65,2.46-.34,4.92-0.7,7.39-1A29.49,29.49,0,0,1,44,32.39a5,5,0,0,1,1.47.26A7.64,7.64,0,0,1,47.68,34l2.45,2.06c0.11,0.09.24,0.17,0.36,0.25a0.34,0.34,0,0,0-.08-0.18c-0.39-.48-0.77-1-1.17-1.42a21.88,21.88,0,0,1-1.95-2.37,4.71,4.71,0,0,1-.79-3,9.53,9.53,0,0,1,.61-2.56,7.91,7.91,0,0,0,.64-2.08,10.25,10.25,0,0,0,0-2.61,8.29,8.29,0,0,0-1.54-3.46A19.46,19.46,0,0,0,42.61,15l-0.15-.13a14.16,14.16,0,0,1,6.83,5.25,1,1,0,0,0,0-.22A11.45,11.45,0,0,0,49,17.11c-0.32-1.33-.68-2.64-1-4a12.9,12.9,0,0,1-.42-3.79,2.83,2.83,0,0,1,.9-2c0.25-.23.52-0.45,0.79-0.66L51.07,5.3a2.59,2.59,0,0,0,.2-0.18,2.87,2.87,0,0,0-.64.23c-0.73.36-1.46,0.73-2.2,1.08A5.09,5.09,0,0,1,45.71,7c-1.08-.11-2.17-0.18-3.24-0.37-1.9-.35-3.79-0.77-5.68-1.17-0.65-.14-1.29-0.34-2-0.42a13.56,13.56,0,0,0-3.78.06A8.18,8.18,0,0,0,27.4,6.55c-0.28.21-.55,0.45-0.82,0.67A0.63,0.63,0,0,1,26.66,7,4.94,4.94,0,0,1,29,5a9.45,9.45,0,0,1,2.39-.64l-0.15,0A29,29,0,0,0,27.51,4c-2.36,0-4.71.27-7.06,0.44-1.33.1-2.66,0.12-4,.17a5.37,5.37,0,0,1-3-.83L12.9,3.46Z" transform="translate(-0.93 -1.05)"/><path class="cls-1" d="M36.51,18.63a4.11,4.11,0,0,1-3,3.76,12.22,12.22,0,0,1-2.87.58,55.4,55.4,0,0,1-7.36.05L23.2,23A33.13,33.13,0,0,1,27.27,22l-1.1-.24a17.06,17.06,0,0,1-5-1.95,10.23,10.23,0,0,1-3.29-3.14,0.52,0.52,0,0,1-.09-0.19L18.13,17A10.62,10.62,0,0,0,22,19.62a21.9,21.9,0,0,0,5.13,1.44q1.56,0.26,3.14.41a3.41,3.41,0,0,0,1.07-.13c0.64-.15,1.27-0.3,1.89-0.5A5.66,5.66,0,0,0,36.51,18.63Z" transform="translate(-0.93 -1.05)"/></svg>