<?xml version="1.0" encoding="utf-8"?>
<!-- Generator: Adobe Illustrator 19.2.0, SVG Export Plug-In . SVG Version: 6.00 Build 0)  -->
<svg version="1.1" id="Layer_1" xmlns="http://www.w3.org/2000/svg" xmlns:xlink="http://www.w3.org/1999/xlink" x="0px" y="0px"
	 viewBox="0 0 18 21.2" style="enable-background:new 0 0 18 21.2;" xml:space="preserve">
<style type="text/css">
	.st0{fill:none;stroke:#FFFFFF;stroke-miterlimit:10;}
	.st1{fill:none;stroke:#FFFFFF;stroke-width:0.5;stroke-miterlimit:10;}
</style>
<g id="a3MqrV.tif">
	<g>
		<path class="st0" d="M0.6,13.8c0-3.3,0-6.5,0-9.8C1.1,4,1.5,4,2,4c1.5,0,3,0.1,4.5,0.5c0.7,0.2,1.5,0.5,2.1,1
			C8.7,5.6,8.9,5.7,9,5.8c1.3-1.1,2.8-1.5,4.4-1.7C14.6,4,15.9,4,17.1,4.1c0.1,0,0.2,0,0.3,0c0,3.3,0,6.5,0,9.8c-0.2,0-0.5,0-0.7,0
			c0,0-0.1,0-0.1-0.1c-0.2-0.3-0.5-0.4-0.8-0.5c-0.1,0-0.1,0-0.2-0.1c0.3,0,0.7,0,1,0c0-2.8,0-5.6,0-8.4c-0.2,0-0.4,0-0.6,0
			c-1.5,0-3,0.1-4.5,0.6c-0.6,0.2-1.2,0.4-1.8,0.8C9.7,6.2,9.7,6.2,9.7,6.3c0,2.6,0,5.2,0,7.8c0,0,0,0.1,0,0.1
			c0.2-0.1,0.3-0.1,0.5-0.2c0.1,0.2,0.1,0.4,0.1,0.6C9.9,15,9.4,15.3,9,15.6c-1.1-1-2.6-1.4-4-1.6c-1.4-0.2-2.7-0.3-4.1-0.1
			C0.8,13.8,0.7,13.8,0.6,13.8C0.7,13.8,0.7,13.8,0.6,13.8z M1.3,4.7c0,2.8,0,5.6,0,8.4c2.4-0.1,4.8,0.1,7,1.2c0-0.1,0-0.1,0-0.2
			c0-1,0-2,0-3c0-1.6,0-3.2,0-4.8c0-0.1,0-0.2-0.1-0.2C7.8,5.9,7.4,5.6,6.9,5.4C5.8,5,4.5,4.8,3.3,4.7C2.7,4.7,2,4.7,1.3,4.7z"/>
		<path class="st0" d="M11.9,13.5c0-0.2,0-0.5,0-0.7c0-0.4,0-0.9,0-1.3c0-0.3,0.2-0.6,0.5-0.8c0.3-0.1,0.6-0.1,0.8,0.1
			c0.2,0.2,0.3,0.4,0.3,0.7c0,0.4,0,0.7,0,1.2c0.1,0,0.1,0,0.2,0c0.3,0,0.5,0.1,0.7,0.4c0.1,0.1,0.1,0.1,0.2,0.1
			c0.3,0,0.6,0.1,0.8,0.3c0.1,0.1,0.1,0.1,0.2,0.1c0.4,0,0.7,0.3,0.7,0.7c0,0.7,0.1,1.4,0,2.1c-0.2,1.3-1.3,2-2.6,1.9
			c-1-0.1-1.7-0.6-2.1-1.4c-0.3-0.6-0.5-1.3-0.6-1.9c-0.1-0.3-0.2-0.6-0.2-0.9c-0.1-0.3,0-0.6,0.3-0.7c0.3-0.2,0.5-0.1,0.8,0
			C11.8,13.5,11.8,13.5,11.9,13.5z M12.3,15.1C12.3,15.1,12.3,15.1,12.3,15.1c-0.1-0.2-0.2-0.5-0.3-0.8c-0.1-0.2-0.2-0.4-0.4-0.5
			c-0.1-0.1-0.2-0.2-0.4-0.1c-0.1,0.1-0.1,0.2-0.1,0.3c0,0,0,0.1,0,0.1c0.1,0.3,0.1,0.6,0.2,0.8c0.2,0.5,0.3,1.1,0.5,1.6
			c0.4,0.8,1,1.2,1.9,1.3c1.1,0.1,2-0.6,2.1-1.8c0-0.5,0-1,0-1.6c0-0.1,0-0.1,0-0.2c0-0.2-0.1-0.3-0.3-0.3c-0.2,0-0.3,0-0.4,0.1
			c0,0-0.1,0.1-0.1,0.2c0-0.3,0.1-0.7-0.3-0.8c-0.3-0.1-0.5,0.1-0.6,0.4c0-0.3,0.1-0.7-0.3-0.8c-0.4-0.1-0.5,0.2-0.7,0.5
			c0-0.7,0-1.4,0-2c0-0.3-0.2-0.6-0.4-0.6c-0.3,0-0.4,0.2-0.4,0.6c0,1,0,2,0,3C12.3,14.8,12.3,15,12.3,15.1z"/>
		<path class="st0" d="M16.1,5.7c0,0.2,0,0.4,0,0.7c-2,0-4,0.2-5.8,1.1c0-0.2,0-0.5,0-0.7c0,0,0.1-0.1,0.1-0.1
			c0.8-0.4,1.6-0.6,2.4-0.7c1-0.2,2-0.3,3.1-0.2C16,5.7,16,5.7,16.1,5.7z"/>
		<path class="st0" d="M16.1,7.2c0,0.2,0,0.4,0,0.7c-2,0-4,0.2-5.8,1.1c0-0.2,0-0.5,0-0.7c0,0,0.1-0.1,0.1-0.1
			c0.6-0.3,1.3-0.5,2-0.6C13.6,7.2,14.8,7.1,16.1,7.2C16,7.1,16,7.1,16.1,7.2z"/>
		<path class="st1" d="M4.8,8C3.9,7.9,3.1,7.8,2.2,7.8c0-0.7,0-1.4,0-2.1c0.9,0,1.8,0,2.7,0.2C4.8,6.6,4.8,7.3,4.8,8z"/>
		<path class="st0" d="M1.9,9.3c0-0.2,0-0.5,0-0.7c0.2,0,0.4,0,0.6,0c1.5,0,3.1,0.2,4.5,0.7c0.2,0.1,0.4,0.2,0.6,0.2
			c0.1,0,0.1,0.1,0.1,0.2c0,0.2,0,0.4,0,0.6C5.9,9.5,3.9,9.3,1.9,9.3z"/>
		<path class="st0" d="M7.7,11.9c-1.9-0.9-3.8-1.1-5.8-1.1c0-0.2,0-0.4,0-0.7c0.3,0,0.6,0,0.9,0c1.3,0,2.5,0.2,3.8,0.6
			c0.4,0.1,0.7,0.3,1.1,0.4c0.1,0,0.1,0.1,0.1,0.2C7.7,11.4,7.7,11.6,7.7,11.9z"/>
		<path class="st0" d="M5.2,11.7c0.3,0.1,0.6,0.1,0.9,0.2c0.5,0.2,1,0.4,1.6,0.5c0.1,0,0.1,0.1,0.1,0.2c0,0.2,0,0.4,0,0.6
			c-0.1,0-0.1,0-0.1,0c-0.7-0.4-1.5-0.6-2.3-0.8c-0.1,0-0.2-0.1-0.2-0.2C5.2,12.1,5.2,11.9,5.2,11.7z"/>
		<path class="st0" d="M5.2,7.4c0.3,0.1,0.6,0.1,0.9,0.2c0.5,0.2,1,0.4,1.6,0.5c0.1,0,0.1,0.1,0.1,0.2c0,0.2,0,0.4,0,0.6
			c-0.1,0-0.1,0-0.1,0C7,8.5,6.2,8.3,5.4,8.1c-0.1,0-0.2-0.1-0.2-0.2C5.2,7.8,5.2,7.6,5.2,7.4z"/>
	</g>
</g>
</svg>
