<svg id="Layer_1" data-name="Layer 1" xmlns="http://www.w3.org/2000/svg" viewBox="0 0 16.75 14.35"><defs><style>.cls-1{fill:#004562;}.cls-2{fill:none;stroke:#004562;stroke-miterlimit:10;stroke-width:0.5px;}</style></defs><title>read_blu</title><g id="a3MqrV.tif"><path class="cls-1" d="M0.63,13.83V4.06C1.08,4,1.52,4,2,4a15.19,15.19,0,0,1,4.49.53,6.61,6.61,0,0,1,2.1,1C8.71,5.6,8.85,5.73,9,5.85a8.25,8.25,0,0,1,4.44-1.69,16.87,16.87,0,0,1,3.63-.1l0.31,0v9.77l-0.69,0a0.19,0.19,0,0,1-.1-0.08,1.29,1.29,0,0,0-.78-0.5,0.24,0.24,0,0,1-.15-0.11h1V4.7H16.07a14.55,14.55,0,0,0-4.5.56,5.88,5.88,0,0,0-1.78.83,0.26,0.26,0,0,0-.12.23q0,3.92,0,7.83s0,0.08,0,.14l0.5-.23,0.14,0.64L9,15.61a7.7,7.7,0,0,0-4-1.62,16.24,16.24,0,0,0-4.09-.15H0.63ZM1.31,4.72V13.1a14.79,14.79,0,0,1,7,1.2c0-.08,0-0.14,0-0.19q0-1.5,0-3c0-1.6,0-3.2,0-4.8A0.28,0.28,0,0,0,8.21,6.1a11.14,11.14,0,0,0-1.29-.67,11.29,11.29,0,0,0-3.61-.7C2.65,4.7,2,4.72,1.31,4.72Z" transform="translate(-0.63 -4)"/><path class="cls-1" d="M11.88,13.51c0-.24,0-0.45,0-0.67,0-.43,0-0.87,0-1.3a0.82,0.82,0,0,1,.49-0.75,0.73,0.73,0,0,1,.82.13,0.9,0.9,0,0,1,.31.72c0,0.37,0,.75,0,1.15h0.19a0.81,0.81,0,0,1,.66.35,0.18,0.18,0,0,0,.2.09,0.77,0.77,0,0,1,.76.34,0.28,0.28,0,0,0,.25.15,0.71,0.71,0,0,1,.73.67,11.09,11.09,0,0,1,0,2.05,2.26,2.26,0,0,1-2.58,1.9,2.55,2.55,0,0,1-2.11-1.44,8.6,8.6,0,0,1-.63-1.9c-0.08-.29-0.16-0.59-0.22-0.89A0.63,0.63,0,0,1,11,13.4a0.71,0.71,0,0,1,.78,0Zm0.4,1.59h0c-0.09-.26-0.17-0.52-0.29-0.76a2.37,2.37,0,0,0-.37-0.53,0.31,0.31,0,0,0-.39-0.08,0.3,0.3,0,0,0-.09.35,0.68,0.68,0,0,0,0,.14c0.07,0.28.14,0.57,0.23,0.85a14.46,14.46,0,0,0,.53,1.58,2.08,2.08,0,0,0,1.9,1.3,1.88,1.88,0,0,0,2.1-1.76c0-.52,0-1,0-1.56a1,1,0,0,0,0-.17,0.36,0.36,0,0,0-.27-0.32,0.37,0.37,0,0,0-.42.15l-0.14.17c0-.34.07-0.67-0.3-0.8a0.51,0.51,0,0,0-.64.36c0-.31.05-0.68-0.34-0.8s-0.54.2-.69,0.5c0-.68,0-1.35,0-2a0.48,0.48,0,0,0-.41-0.56,0.47,0.47,0,0,0-.42.56q0,1.51,0,3Q12.28,14.91,12.28,15.1Z" transform="translate(-0.63 -4)"/><path class="cls-1" d="M16.07,5.69V6.37a12.85,12.85,0,0,0-5.81,1.1c0-.25,0-0.48,0-0.71a0.23,0.23,0,0,1,.13-0.11,10.23,10.23,0,0,1,2.44-.72,16.75,16.75,0,0,1,3.08-.25h0.16Z" transform="translate(-0.63 -4)"/><path class="cls-1" d="M16.07,7.15V7.82a12.93,12.93,0,0,0-5.81,1.11c0-.25,0-0.47,0-0.7a0.21,0.21,0,0,1,.12-0.12,9.6,9.6,0,0,1,2-.63A16.1,16.1,0,0,1,16,7.14h0.09Z" transform="translate(-0.63 -4)"/><path class="cls-2" d="M4.84,8L2.17,7.79V5.68a16.9,16.9,0,0,1,2.66.16V8Z" transform="translate(-0.63 -4)"/><path class="cls-1" d="M1.93,9.28V8.6H2.52a14.47,14.47,0,0,1,4.54.75L7.61,9.57a0.18,0.18,0,0,1,.13.2c0,0.2,0,.41,0,0.63A12.88,12.88,0,0,0,1.93,9.28Z" transform="translate(-0.63 -4)"/><path class="cls-1" d="M7.74,11.85a12.92,12.92,0,0,0-5.81-1.11V10.06H2.78a14.44,14.44,0,0,1,3.76.57c0.36,0.11.71,0.26,1.07,0.39a0.17,0.17,0,0,1,.13.2C7.74,11.42,7.74,11.62,7.74,11.85Z" transform="translate(-0.63 -4)"/><path class="cls-1" d="M5.22,11.72c0.31,0.07.6,0.11,0.88,0.2,0.52,0.16,1,.35,1.56.52a0.18,0.18,0,0,1,.14.21c0,0.2,0,.4,0,0.61l-0.11,0a8.71,8.71,0,0,0-2.29-.76,0.17,0.17,0,0,1-.17-0.2C5.23,12.09,5.22,11.92,5.22,11.72Z" transform="translate(-0.63 -4)"/><path class="cls-1" d="M5.22,7.39c0.31,0.07.6,0.11,0.88,0.2,0.52,0.16,1,.35,1.56.52a0.18,0.18,0,0,1,.14.21c0,0.2,0,.4,0,0.61l-0.11,0a8.71,8.71,0,0,0-2.29-.76,0.17,0.17,0,0,1-.17-0.2C5.23,7.76,5.22,7.6,5.22,7.39Z" transform="translate(-0.63 -4)"/></g></svg>