<svg xmlns="http://www.w3.org/2000/svg" width="40" height="20"><path fill="#57BD62" d="M39.57 12.58a.326.326 0 0 1-.251.535h-8.374a2.945 2.945 0 0 0-.178-.575l-.025-.048.04-.04A3.31 3.31 0 0 0 31.9 10c0-.939-.396-1.837-1.1-2.46l-.04-.04.024-.049c.089-.202.154-.42.194-.639h8.35a.33.33 0 0 1 .258.534l-2.022 2.516a.22.22 0 0 0 0 .275l2.006 2.444zM8.856 7.477l.04-.04-.023-.05a2.945 2.945 0 0 1-.178-.574H.33a.326.326 0 0 0-.25.534l2.014 2.452a.22.22 0 0 1 0 .275L.07 12.589a.33.33 0 0 0 .259.534h8.35c.04-.219.105-.429.194-.64l.024-.048-.04-.04a3.254 3.254 0 0 1-1.1-2.46 3.226 3.226 0 0 1 1.1-2.46zM29.53 9.005c.59.526.59 1.456-.008 1.982l-.389.34a1.32 1.32 0 0 0-.347 1.505l.202.477a1.315 1.315 0 0 1-.866 1.78l-.501.137c-.55.154-.939.64-.963 1.206l-.025.518a1.328 1.328 0 0 1-1.318 1.254c-.081 0-.154-.008-.235-.024l-.51-.09a1.155 1.155 0 0 0-.234-.024c-.478 0-.923.26-1.157.688l-.251.453a1.314 1.314 0 0 1-1.926.437l-.42-.308a1.332 1.332 0 0 0-1.545-.008l-.421.3c-.235.17-.502.242-.769.242a1.31 1.31 0 0 1-1.165-.695l-.25-.461a1.329 1.329 0 0 0-1.166-.696c-.073 0-.154.008-.226.016l-.51.089c-.073.016-.154.016-.227.016a1.324 1.324 0 0 1-1.318-1.262l-.025-.518a1.312 1.312 0 0 0-.962-1.205l-.502-.146a1.324 1.324 0 0 1-.858-1.788l.203-.477a1.32 1.32 0 0 0-.34-1.505l-.388-.348a1.318 1.318 0 0 1 .008-1.982l.388-.34a1.32 1.32 0 0 0 .348-1.505l-.202-.477a1.315 1.315 0 0 1 .865-1.78l.502-.138c.55-.153.938-.639.963-1.205l.024-.518a1.328 1.328 0 0 1 1.319-1.254c.08 0 .153.008.234.024l.51.09a1.318 1.318 0 0 0 1.392-.663l.25-.454A1.317 1.317 0 0 1 18.647.25l.42.307a1.332 1.332 0 0 0 1.545.008l.422-.299a1.29 1.29 0 0 1 .768-.243c.47 0 .923.243 1.165.696l.251.461c.235.429.68.696 1.165.696.073 0 .154-.008.227-.016l.51-.09c.072-.015.153-.015.226-.015.688 0 1.286.542 1.319 1.262l.024.518c.024.566.413 1.051.963 1.205l.502.146a1.324 1.324 0 0 1 .857 1.788l-.21.477a1.32 1.32 0 0 0 .34 1.505l.388.348zm-5.154.534s.437-.68-.13-1.198c-.703-.647-2.62-.218-2.62-.218-.13.024-.276.048-.43.089 0 0-.663.307 0-1.7.664-2.006-.444-2.313-.906-2.313-.46 0-.307.995-.307.995s-.995 2.735-1.942 3.463c-.25.267-.388.566-.46.777a.823.823 0 0 0-.551-.203h-1.278a.85.85 0 0 0-.85.85v3.398c0 .47.38.85.85.85h1.278a.848.848 0 0 0 .47-.146c.032-.024.193-.202.193-.672V11.4s-.008 2.613 1.473 2.775a20.8 20.8 0 0 0 1.812.056c.59.049 1.214.049 1.715-.056 1.691-.356 1.262-1.538 1.262-1.538.915-.687.397-1.537.397-1.537.825-.85.024-1.561.024-1.561z"/></svg>