<?xml version="1.0" encoding="utf-8"?>
<!-- Generator: Adobe Illustrator 19.2.0, SVG Export Plug-In . SVG Version: 6.00 Build 0)  -->
<svg version="1.1" id="Layer_1" xmlns="http://www.w3.org/2000/svg" xmlns:xlink="http://www.w3.org/1999/xlink" x="0px" y="0px"
	 viewBox="0 0 59.7 84.2" style="enable-background:new 0 0 59.7 84.2;" xml:space="preserve">
<style type="text/css">
	.st0{fill:#FFFFFF;}
	.st1{fill:#024665;stroke:#024665;stroke-width:3;stroke-miterlimit:10;}
	.st2{fill:#024665;}
	.st3{fill:#044464;}
</style>
<title>shops</title>
<image style="overflow:visible;opacity:0.75;enable-background:new    ;" width="255" height="130" xlink:href="FEA7F91D57E07431.png"  transform="matrix(0.2334 0 0 0.2326 0.19 53.99)">
</image>
<ellipse class="st0" cx="29.9" cy="52" rx="16.9" ry="2.3"/>
<circle class="st1" cx="29.9" cy="29.9" r="28.4"/>
<polygon class="st2" points="29.8,64.9 34.2,58.2 25.4,58.2 "/>
<path class="st3" d="M36.7,15.8c-2.8-1.6-7.9,0.2-10.2,6.1c-0.2,0.4-0.5-0.5-0.7-0.8c-3.8-7.7-6.4-8.7-9.6-7.3
	c-5.1,2.3-7.4,7.4-1.4,14.7c1.9,2.4,4.1,4.5,6.6,6.3c1,0.8,2,1.1,2.1,0.8s-0.6-1-1.6-2.2c-1.5-1.8-1.8-2.8-3.1-4.9
	c-2.8-4-2.4-6.7-1.1-7.8c1.5-1.2,4-2.1,6.6,2.7c1,1.9,1.5,2.7,2.1,2.1s3-4.1,4.7-4c5.6,0.1,1.2,6.3,0.6,7.3c-0.6,1.1,0.1,0.7,0.8,0
	c1.2-1,2.3-2.1,3.2-3.3C39.6,20.6,39.2,17.4,36.7,15.8z"/>
<path class="st0" d="M37.2,16.2c-2.8-2.1-6.5-0.5-9.6,5c-0.2,0.4-0.3,0.4-0.5,0c-2.9-8.2-6.3-9.4-10.5-7.6c-3.4,1.5-6.7,6-1.5,13.3
	c1.9,2.7,4.1,5.1,6.5,7.3c2.8,2.7,2.1,0.9,0.7-1.2c-1.1-1.8-2.1-3.6-3-5.4c-2.2-4.3-1.5-7-0.1-7.9c1.5-0.9,3.7-0.8,5.7,3.6
	c0.5,1.1,0.9,2.3,1.3,2.4s0.9-0.8,3.3-3.1c1.4-1.4,3.4-1.6,4.1-1.1c1.2,0.8,1.6,2.3-0.4,5.3c-0.2,0.3-0.8,1.2-1.5,2
	c-0.8,1-0.5,1.2,0.3,0.6c1.4-1,2.8-2,4-3.2C40.7,21.7,39.7,18,37.2,16.2z"/>
<path class="st0" d="M52.3,26.2c-7.3,2.2-17,9.8-18,10.8c-0.6,0.4-0.8,1.3-0.4,1.9c0,0,0.1,0.1,0.1,0.1c0.8,1.5,1.9,3.7,2.4,5
	c0.7,1.8,0.2,2.6-0.1,2.8c-0.3,0.2-1,0.1-2.9-2.2c-1.8-2.1-3.7-3-4.8-3c-1.1,0.1-2.1,0.5-3,1.2c-1.1,0.8-2.8,2.2-7,5.4
	c-1.9,1.5-3.5,0.4-1.3-1.9c2.4-2.5,3.8-3.6,8.3-7.9c1.1-1,1.1-1.4,0.4-2.9s-1.7-3.8-1.7-5.2s0.2-2.1,0.6-2.3s0.7,0.3,1.2,1.5
	c1,2.1,2.4,4.1,4,4.1c1.2,0,3.9-1.7,6.9-3.3c2.8-1.5,5.7-2.7,8.6-3.6c2.4-0.8,7.6-1.6,8.8-1.1C54.8,25.8,53.3,25.9,52.3,26.2z"/>
</svg>
