<?xml version="1.0" encoding="utf-8"?>
<!-- Generator: Adobe Illustrator 23.0.1, SVG Export Plug-In . SVG Version: 6.00 Build 0)  -->
<svg version="1.1" id="Capa_1" xmlns="http://www.w3.org/2000/svg" xmlns:xlink="http://www.w3.org/1999/xlink" x="0px" y="0px"
	 viewBox="0 0 512 512" style="enable-background:new 0 0 512 512;" xml:space="preserve">
<style type="text/css">
	.st0{fill:#DAD5D6;}
</style>
<g>
	<g>
		<path class="st0" d="M509,107c-2.9-4.2-7.6-6.8-12.8-7L178.7,86.3c-9.1-0.4-16.7,6.6-17.1,15.7c-0.4,9.1,6.6,16.7,15.7,17.1
			l296.1,12.8l-58.2,181.6H156.1L109.3,58.6c-1-5.6-4.9-10.2-10.2-12.3L22.4,16.2C14,12.9,4.5,17,1.1,25.5c-3.3,8.4,0.8,18,9.3,21.3
			l68.2,26.8l47.6,259.3c1.4,7.8,8.2,13.5,16.2,13.5h7.9l-18,50.1c-1.5,4.2-0.9,8.9,1.7,12.5c2.6,3.6,6.7,5.8,11.2,5.8h12.7
			c-7.8,8.7-12.7,20.2-12.7,32.9c0,27.2,22.1,49.3,49.3,49.3s49.3-22.1,49.3-49.3c0-12.6-4.8-24.1-12.7-32.9h107.4
			c-7.8,8.7-12.7,20.2-12.7,32.9c0,27.2,22.1,49.3,49.3,49.3c27.2,0,49.3-22.1,49.3-49.3c0-12.6-4.8-24.1-12.7-32.9h15.4
			c7.6,0,13.7-6.1,13.7-13.7c0-7.6-6.1-13.7-13.7-13.7H164.6l14.8-41.1h247.7c7.1,0,13.5-4.6,15.6-11.4l68.4-213.6
			C512.8,116.5,512,111.2,509,107z M194.4,469.6c-12.1,0-21.9-9.8-21.9-21.9c0-12.1,9.8-21.9,21.9-21.9c12.1,0,21.9,9.8,21.9,21.9
			C216.3,459.7,206.5,469.6,194.4,469.6z M375.1,469.6c-12.1,0-21.9-9.8-21.9-21.9c0-12.1,9.8-21.9,21.9-21.9s21.9,9.8,21.9,21.9
			C397,459.7,387.2,469.6,375.1,469.6z"/>
	</g>
</g>
</svg>
