<?xml version="1.0" encoding="utf-8"?>
<!-- Generator: Adobe Illustrator 19.2.0, SVG Export Plug-In . SVG Version: 6.00 Build 0)  -->
<svg version="1.1" id="Layer_1" xmlns="http://www.w3.org/2000/svg" xmlns:xlink="http://www.w3.org/1999/xlink" x="0px" y="0px"
	 viewBox="0 0 59.7 106.7" style="enable-background:new 0 0 59.7 106.7;" xml:space="preserve">
<style type="text/css">
	.st0{fill:#9D7E39;}
	.st1{fill:#FFFFFF;}
	.st2{fill:#9D7E39;stroke:#9D7E39;stroke-width:3;stroke-miterlimit:10;}
	.st3{fill:#E42529;}
</style>
<title>showroom</title>
<path class="st0" d="M18.4,6.7l0.7-0.8c0.7-0.8,1-1.9,1-3c0-0.8,0-1.6,0.1-2.5c0.2,0.4,0.3,0.7,0.5,1.1C21,2.2,21.4,3,21.9,3.7
	c0.6,1.1,1.8,1.8,3,1.8c-0.2,0.5-0.5,1-0.7,1.5c-0.5,1.2-0.5,2.7,0,3.9c0.2,0.5,0.5,0.9,0.9,1.2c0.8,0.8,2,0.8,2.8,0
	c0.1-0.1,0.2-0.2,0.3-0.4c0.9-1.2,1-2.7,0.4-4c-0.4-0.8-0.9-1.6-1.4-2.3c-0.1-0.1-0.2-0.2-0.2-0.3c0.8-0.8,1.6-1.5,2.3-2.3
	c0.5-0.9,0.9-1.9,1.1-3C30.5,2.1,31.8,4,33.7,5l-0.4,0.4c-0.8,1-1.5,2.1-1.8,3.4c-0.2,1.2,0.1,2.4,0.9,3.2c0.7,0.8,1.9,0.9,2.8,0.3
	c0.8-0.7,1.3-1.7,1.4-2.8c0.1-1.2-0.2-2.4-0.9-3.5c-0.1-0.1-0.2-0.3-0.3-0.5c0.2,0,0.5-0.1,0.7-0.1c1-0.2,1.8-0.9,2.3-1.7
	c0.6-1,1.1-2.1,1.6-3.1c0-0.1,0.1-0.2,0.1-0.2h0.1c0,1,0,1.9,0,2.9c0,1.2,0.6,2.3,1.5,3.1c0.1,0.1,0.1,0.1,0.2,0.2L41.5,7
	c-0.7,0.5-1.4,1.2-1.8,2c-0.2,0.4-0.4,0.9-0.4,1.4c0,0.5,0,1.1,0,1.6c0,0.9,0.7,1.7,1.7,1.7c0.3,0,0.5-0.1,0.8-0.2
	c1.1-0.5,1.8-1.5,2-2.6c0.2-1.1,0-2.2-0.6-3.1l0.7-0.3c1.1-0.4,2.1-1,2.9-1.7c0.7-0.6,1.3-1.2,2.1-1.7l-6.4,12.2
	c-0.3-0.1-0.5-0.3-0.8-0.4c-1.2-0.5-2.5-0.9-3.8-1c-4.1-0.5-8.2-0.6-12.3-0.3c-2,0.1-4.1,0.4-6,1c-0.5,0.2-1.1,0.5-1.6,0.7L11.6,4.1
	L11.7,4c0.9,0.7,1.7,1.5,2.6,2.2c0.9,0.7,2,1.2,3.1,1.5c-0.5,0.7-0.7,1.5-0.7,2.4c0,1.2,0.6,2.4,1.6,3.1c0.4,0.3,0.9,0.5,1.5,0.4
	c0.8-0.1,1.4-0.7,1.4-1.5c0.1-0.7,0.1-1.4,0-2.2c-0.1-0.5-0.3-1-0.7-1.4c-0.6-0.6-1.2-1.2-1.8-1.8C18.6,6.8,18.5,6.7,18.4,6.7z"/>
<path class="st0" d="M31,24.9c-3.6,0.1-7.2-0.3-10.7-1c-0.3-0.1-0.7-0.2-1-0.3c-0.6-0.2-1.1-0.7-1.3-1.3c-0.1-0.4,0-0.9,0.4-1.1
	c0,0,0.1-0.1,0.1-0.1c0.5-0.1,0.8-0.6,0.7-1.1c0,0,0,0,0-0.1c0-0.2,0-0.4,0-0.7c0.1-0.5-0.1-1-0.5-1.2c-0.3-0.2-0.5-0.5-0.5-0.9
	c0-0.3,0.2-0.6,0.5-0.7c1.8-0.6,3.7-1.1,5.7-1.3c2.6-0.4,5.3-0.5,7.9-0.4c3.1,0.1,6.2,0.6,9.1,1.5c0.4,0,0.7,0.3,0.8,0.7
	c0.1,0.4-0.1,0.9-0.5,1.1c-0.4,0.2-0.6,0.7-0.5,1.1c0,0.4,0,0.9,0,1.3c0,0.2,0.1,0.3,0.2,0.4c0,0,0,0,0,0l0,0
	c1.2,0.6,1.3,1.4,0.3,2.3c-0.4,0.3-0.8,0.5-1.3,0.7c-1.9,0.5-3.8,0.8-5.7,0.9C33.3,24.8,31.9,24.9,31,24.9z M40.1,23.3
	c-3.1-1.5-16.3-1.5-19.5-0.1C27,24.6,33.7,24.6,40.1,23.3L40.1,23.3z M31.3,18.4c0-0.6-0.5-1.1-1.1-1.1c0,0,0,0,0,0
	c-0.6,0-1.1,0.5-1.1,1.1c0,0,0,0,0,0c0,0.6,0.5,1.1,1.1,1.1S31.3,19,31.3,18.4z M35.3,18.5c0-0.4-0.3-0.7-0.7-0.7s-0.7,0.3-0.7,0.7
	c0.1,0.4,0.5,0.6,0.9,0.5C35,18.9,35.2,18.7,35.3,18.5L35.3,18.5z M25.9,17.8c-0.4,0-0.7,0.3-0.8,0.7c0,0.4,0.3,0.7,0.7,0.8
	c0.4,0,0.7-0.3,0.7-0.6c0,0,0,0,0,0C26.6,18.1,26.3,17.8,25.9,17.8C25.9,17.7,25.9,17.7,25.9,17.8L25.9,17.8z"/>
<image style="overflow:visible;opacity:0.75;enable-background:new    ;" width="255" height="130" xlink:href="DFE0299757CFFA56.png"  transform="matrix(0.2334 0 0 0.2326 0.19 76.41)">
</image>
<ellipse class="st1" cx="29.9" cy="74.4" rx="16.9" ry="2.3"/>
<circle class="st2" cx="29.9" cy="52.3" r="28.4"/>
<polygon class="st0" points="29.8,87.3 34.2,80.6 25.4,80.6 "/>
<path class="st1" d="M36.7,38.2c-2.8-1.6-7.9,0.2-10.2,6.1c-0.2,0.4-0.5-0.5-0.7-0.8c-3.8-7.7-6.4-8.7-9.6-7.3
	c-5.1,2.3-7.4,7.4-1.4,14.7c1.9,2.4,4.1,4.5,6.6,6.3c1,0.8,2,1.1,2.1,0.8S23,57,22,55.8c-1.5-1.8-1.8-2.8-3.1-4.9
	c-2.8-4-2.4-6.7-1.1-7.8c1.5-1.2,4-2.1,6.6,2.7c1,1.9,1.5,2.7,2.1,2.1s3-4.1,4.7-4c5.6,0.2,1.2,6.3,0.6,7.3c-0.6,1.1,0.1,0.7,0.8,0
	c1.2-1,2.3-2.1,3.2-3.3C39.6,43,39.2,39.8,36.7,38.2z"/>
<path class="st3" d="M37.2,38.6c-2.8-2.1-6.5-0.5-9.6,5c-0.2,0.4-0.3,0.4-0.5,0c-2.9-8.2-6.3-9.4-10.5-7.6c-3.4,1.5-6.7,6-1.5,13.3
	c1.9,2.7,4.1,5.1,6.5,7.3c2.8,2.7,2.1,0.9,0.7-1.2c-1.1-1.8-2.1-3.6-3-5.4c-2.2-4.3-1.5-7-0.1-7.9c1.5-0.9,3.7-0.8,5.7,3.6
	c0.5,1.1,0.9,2.3,1.3,2.4s0.9-0.8,3.3-3.1c1.4-1.4,3.4-1.6,4.1-1.1c1.2,0.8,1.6,2.3-0.5,5.3c-0.2,0.3-0.8,1.2-1.5,2
	c-0.8,1-0.5,1.2,0.3,0.6c1.4-1,2.8-2,4-3.2C40.7,44.1,39.7,40.4,37.2,38.6z"/>
<path class="st1" d="M52.3,48.6c-7.3,2.2-17,9.8-18,10.8c-0.6,0.4-0.8,1.3-0.4,1.9c0,0,0.1,0.1,0.1,0.1c0.8,1.5,1.9,3.7,2.4,5
	c0.7,1.8,0.2,2.6-0.1,2.8c-0.3,0.2-1,0.1-2.9-2.2c-1.8-2.1-3.7-3-4.8-3c-1.1,0.1-2.1,0.5-3,1.2c-1.1,0.8-2.8,2.2-7,5.4
	c-1.9,1.4-3.5,0.4-1.3-1.9c2.4-2.5,3.8-3.6,8.3-7.9c1.1-1,1.1-1.4,0.4-2.9s-1.7-3.8-1.7-5.2s0.2-2.1,0.6-2.3s0.7,0.3,1.2,1.5
	c1,2.1,2.4,4.1,4,4.1c1.2,0,3.9-1.7,6.9-3.3c2.8-1.5,5.7-2.7,8.7-3.7c2.4-0.8,7.6-1.6,8.8-1.1C54.8,48.2,53.3,48.3,52.3,48.6z"/>
</svg>
