<svg xmlns="http://www.w3.org/2000/svg" width="512.00824" height="512" viewBox="0 0 512.00824 512">
  <title>star-2</title>
  <g>
    <rect x="0.0074" width="512" height="512" style="fill: none"/>
    <path d="M266.94121,29.63319h0M256.00643,55.50947l54.20178,128.28621a25,25,0,0,0,20.88913,15.17838L469.877,210.89626,364.62136,302.08719a25.00008,25.00008,0,0,0-7.98038,24.55664l31.53989,135.65185L268.93135,390.37845a24.99986,24.99986,0,0,0-25.82174,0L123.86022,462.29556,155.4,326.64383a24.99984,24.99984,0,0,0-7.98013-24.55628L42.13712,210.87007l138.78035-11.92238a24.99973,24.99973,0,0,0,20.88837-15.177L256.00643,55.50947m.00091-43.63a12.95158,12.95158,0,0,0-12.10287,8.04234L178.77761,174.03944l-166.733,14.32375a13.14033,13.14033,0,0,0-7.49037,23.023l126.49524,109.596L93.15084,483.98334A13.10215,13.10215,0,0,0,112.731,498.202l143.28949-86.41541L399.31008,498.202a13.00784,13.00784,0,0,0,6.78235,1.938,13.171,13.171,0,0,0,12.79779-16.15667L380.99147,320.98218l126.469-109.56961a13.14642,13.14642,0,0,0-7.49024-23.02314L333.23708,174.06581l-65.12686-154.144a12.95159,12.95159,0,0,0-12.10288-8.04234Z" style="fill: #004263"/>
  </g>
</svg>
