<?xml version="1.0" encoding="utf-8"?>
<!-- Generator: Adobe Illustrator 19.2.0, SVG Export Plug-In . SVG Version: 6.00 Build 0)  -->
<svg version="1.1" id="Layer_1" xmlns="http://www.w3.org/2000/svg" xmlns:xlink="http://www.w3.org/1999/xlink" x="0px" y="0px"
	 viewBox="0 0 12.6 15" style="enable-background:new 0 0 12.6 15;" xml:space="preserve">
<style type="text/css">
	.st0{fill:none;stroke:#000000;stroke-width:0.25;stroke-miterlimit:10;}
	.st1{fill:none;stroke:#000000;stroke-width:0.5;stroke-miterlimit:10;}
</style>
<title>cart_1</title>
<g>
	<path class="st0" d="M8.8,14.6c-0.9,0-1.8-0.2-2.6-0.6c-1.3-0.5-2.5-1.3-3.5-2.4C1.7,10.4,0.9,9,0.5,7.5C0.4,7,0.3,6.6,0.3,6.1
		c0-0.3,0.1-0.5,0.3-0.7c0.3-0.3,0.5-0.5,0.8-0.7c0.2-0.2,0.6-0.2,0.9,0c0.3,0.3,0.6,0.6,1,1c0.2,0.2,0.4,0.4,0.6,0.6
		c0.3,0.3,0.3,0.7,0,1C3.7,7.5,3.5,7.7,3.3,7.9c0,0-0.1,0.1,0,0.1c0.2,0.7,0.5,1.4,1,2c0.7,0.9,1.6,1.4,2.7,1.6c0.1,0,0.1,0,0.1,0
		c0.2-0.2,0.4-0.4,0.7-0.6c0.3-0.3,0.7-0.3,1,0c0.5,0.5,1.1,1.1,1.6,1.6c0.3,0.3,0.3,0.7,0,1c-0.3,0.3-0.5,0.5-0.8,0.8
		C9.3,14.5,9.1,14.6,8.8,14.6z"/>
	<path class="st0" d="M12.2,4.1c0-2.1-1.7-3.7-3.7-3.7c-2.1,0-3.7,1.7-3.7,3.7c0,2.1,1.7,3.7,3.7,3.7C10.5,7.8,12.2,6.2,12.2,4.1z"
		/>
	<polyline class="st1" points="6.3,4.6 7.5,5.8 10.9,2.5 	"/>
	<line class="st0" x1="2.9" y1="7.4" x2="2.1" y2="6.6"/>
	<line class="st0" x1="1.7" y1="6.3" x2="1.5" y2="6"/>
	<line class="st0" x1="9.2" y1="13.8" x2="7.8" y2="12.3"/>
</g>
</svg>
