<?xml version="1.0" encoding="utf-8"?>
<!-- Generator: Adobe Illustrator 18.0.0, SVG Export Plug-In . SVG Version: 6.00 Build 0)  -->
<!DOCTYPE svg PUBLIC "-//W3C//DTD SVG 1.1//EN" "http://www.w3.org/Graphics/SVG/1.1/DTD/svg11.dtd">
<svg version="1.1" id="Слой_1" xmlns="http://www.w3.org/2000/svg" xmlns:xlink="http://www.w3.org/1999/xlink" x="0px" y="0px"
	 viewBox="0 0 45 36" enable-background="new 0 0 45 36" xml:space="preserve">
<path fill="none" stroke="#000000" stroke-width="0.5" stroke-linecap="round" stroke-linejoin="round" stroke-miterlimit="10" d="
	M11.1,17.4c0,0,1.3,0,2.2,0.1c0.9,0.2,6.7,0.2,6.7,0.2"/>
<path fill="none" stroke="#000000" stroke-width="0.5" stroke-linecap="round" stroke-linejoin="round" stroke-miterlimit="10" d="
	M0.6,20.3c0,0,0.6,3.1,1.2,5.4c0.6,1.9,1.3,3.9,1.9,6.2c0,0-3.4-10.6-3.2-11.4c1.2-3.7,3.6-3,5.9-3.2"/>
<path fill="none" stroke="#000000" stroke-width="0.5" stroke-linecap="round" stroke-linejoin="round" stroke-miterlimit="10" d="
	M31.4,15.7c0.2-0.9,0.4-1.8,0.1-2.1c-0.4-0.3-1.1-0.2-1.8,1.7C30.9,15.2,31.4,15.7,31.4,15.7z"/>
<path fill="none" stroke="#000000" stroke-width="0.5" stroke-linecap="round" stroke-linejoin="round" stroke-miterlimit="10" d="
	M32.5,16.6c0.5-0.9,0.9-1.4,1.3-1.2c0.4,0.2,0.6,1.3-0.3,2.6"/>
<path fill="none" stroke="#000000" stroke-width="0.5" stroke-linecap="round" stroke-linejoin="round" stroke-miterlimit="10" d="
	M33.2,19.4c-0.3,1.4-2.7,0.7-3-1.1c-0.1-0.8,0.9-1.9,1.9-1.5C33.1,17,33.4,18.3,33.2,19.4z"/>
<path fill="none" stroke="#000000" stroke-width="0.5" stroke-linecap="round" stroke-linejoin="round" stroke-miterlimit="10" d="
	M30.3,21.7c-0.2-0.1-0.3-0.4-0.2-0.7c0.1-0.3,0.4-0.4,0.6-0.2c0.2,0.1,0.5,0.5,0.4,0.8C30.9,21.8,30.6,21.8,30.3,21.7z"/>
<path fill="none" stroke="#000000" stroke-width="0.5" stroke-linecap="round" stroke-linejoin="round" stroke-miterlimit="10" d="
	M31.5,11.6c0.2-0.1,0.5,0.1,0.6,0.3"/>
<path fill="none" stroke="#000000" stroke-width="0.5" stroke-linecap="round" stroke-linejoin="round" stroke-miterlimit="10" d="
	M26.8,15.1c-0.1-0.3,0.1-0.6,0.3-0.6"/>
<path fill="none" stroke="#000000" stroke-width="0.5" stroke-linecap="round" stroke-linejoin="round" stroke-miterlimit="10" d="
	M34.2,12.7c0.2-0.1,0.5,0.1,0.6,0.3"/>
<path fill="none" stroke="#000000" stroke-width="0.5" stroke-linecap="round" stroke-linejoin="round" stroke-miterlimit="10" d="
	M26,15c-0.5-0.6-1.2-2-0.8-3c0.2-0.6,0.6-1,1-1.5c0.5-0.7,0.8-1.1,1.1-1.8c0.6-1.3,1-1.5,1.9-1.6c0.5-0.1,1.3-1.1,2.2-0.9
	C31.8,6.3,32.2,6,32.4,6c2.2-0.3,3.8,0.5,4.8,3.1c0.6,1.4,0.3,2.6-0.1,4c-0.2,0.8-0.9,3.4-1.9,3.1c0.6-1.8,0.8-4,0.5-5.9
	c-0.1-0.8-0.7-0.7-1.1-0.5c-0.7,0.3-1-0.1-1.7-0.6c-0.7-0.6-0.9,0.2-2.1,0.9c-0.6,0.4-0.8,1.4-1.8,2.8c-0.4,0.6-0.6,1.1-0.9,1
	c-0.2-0.1-0.4-0.9-0.8-1C26.4,12.9,26,15,26,15z"/>
<path fill="none" stroke="#000000" stroke-width="0.5" stroke-linecap="round" stroke-linejoin="round" stroke-miterlimit="10" d="
	M26,15c0,0,0,1.2,0.1,1.9c0.1,0.7,0.8,1,0.8,1s-0.1,2,0.2,2.9c0.3,0.9,1.2,2.7,1.2,2.7"/>
<path fill="none" stroke="#000000" stroke-width="0.5" stroke-linecap="round" stroke-linejoin="round" stroke-miterlimit="10" d="
	M35.2,16.1c0,0-0.3,0.7-0.6,1c-0.4,0.4-0.5,0.4-0.5,0.4s-0.3,2.2-0.7,3c-0.5,0.9-0.6,1.4-0.6,1.4"/>
<path fill="none" stroke="#000000" stroke-width="0.5" stroke-linecap="round" stroke-linejoin="round" stroke-miterlimit="10" d="
	M34.1,23.6"/>
<path fill="none" stroke="#000000" stroke-width="0.5" stroke-linecap="round" stroke-linejoin="round" stroke-miterlimit="10" d="
	M34.3,17.6"/>
<path fill="none" stroke="#000000" stroke-width="0.5" stroke-linecap="round" stroke-linejoin="round" stroke-miterlimit="10" d="
	M7.9,19.6c-0.2,0.7-0.2,0.9-0.1,1.6c0,0.2,0.1,0.6,0.1,0.8c-0.2,0.7-1.2,1.4-2.1,1.5C5.3,24.8,5.2,25,5,25.1
	c-0.3,0.3-0.7,0.1-1.1-0.3c-0.4-0.3-1-2.2-0.7-3.3c0.4-1.6,2.1-2.8,3.2-3.8c0.7-0.7,1.2-1.9,1.9-2.3c0.6-0.4,1.3-0.5,2.1,0.1
	c0.5,0.4,0.8,1.4,0.6,2.2c0.6,0.4,1.8,0.7,2.3,0.9"/>
<path fill="none" stroke="#000000" stroke-width="0.5" stroke-linecap="round" stroke-linejoin="round" stroke-miterlimit="10" d="
	M10.7,17.7c-0.6,0.4-1.5,1.1-1.9,1.9c-0.1,0.2-0.6,1.2-0.2,1.7c0.4,0.5,1,1.1,1.3,1.5c0.9,1,1.6,1.9,2.5,2.2
	c1.1,0.3,1.9-0.8,2.6-0.4"/>
<path fill="none" stroke="#000000" stroke-width="0.5" stroke-linecap="round" stroke-linejoin="round" stroke-miterlimit="10" d="
	M12.5,30c1.7-0.3,3.4,0,5.5,0c0.6,0,1-0.2,2.6-0.8c1.2-0.5,2.3-0.9,3.2-1.8c0.6,0.8,0.9,0.9,1.7,0.6c1.1-0.4,1.3-0.3,2.2,0
	c0.6,0.2,1,0.2,1.1,0.1c0.1-0.1,0.4-0.9,0.4-1.8c0.1-1.1,0-1.6-0.3-2.8c-0.4-0.2-0.8,0.1-1.7,0.2c-0.4,0-1.3-0.1-1.4-0.2
	c-0.2-0.2-0.2-1.2-0.1-2.2c0.2-1.3,0.2-2.8-0.1-3.9c-0.2-1-0.9-1.8-1.9-1.8c-0.8,0-2.3,1-2.8,1.4c-0.9,0.7-1.9,1.3-3.1,2.4
	c0,0-0.5-0.4-1.2-0.9c-0.9-0.7-2-1.4-3.4,0.2c0,0,1.4,1.8,1.8,3.6c0.3,1.2,0.3,2.4,0,3.4c-0.1,0.6-0.3,0.8-0.6,1.2
	c-0.3,0.5-0.5,1.2-0.7,1.3s-0.5,0.1-1,0C12.8,28.3,12.4,29.4,12.5,30z"/>
<path fill="none" stroke="#000000" stroke-width="0.5" stroke-linecap="round" stroke-linejoin="round" stroke-miterlimit="10" d="
	M21.1,21.7c0.7,2.1,2.1,5.1,2.7,5.7"/>
<path fill="none" stroke="#000000" stroke-width="0.5" stroke-linecap="round" stroke-linejoin="round" stroke-miterlimit="10" d="
	M28.1,23.5c0,0,0.7,2-0.6,4.3"/>
<path fill="none" stroke="#000000" stroke-width="0.5" stroke-linecap="round" stroke-linejoin="round" stroke-miterlimit="10" d="
	M28.9,23.5c0,0,0.9-0.7,1.9-1c1-0.4,1.6-0.5,1.9-0.4c1.2,0.4-0.3,1-0.4,1.4"/>
<path fill="none" stroke="#000000" stroke-width="0.5" stroke-linecap="round" stroke-linejoin="round" stroke-miterlimit="10" d="
	M26.1,17c0,0-0.2,0.3-0.4,0.4"/>
<path fill="none" stroke="#000000" stroke-width="0.5" stroke-linecap="round" stroke-linejoin="round" stroke-miterlimit="10" d="
	M25.8,23.5c-0.3,0.3-0.5,0.6-0.6,0.9"/>
<path fill="none" stroke="#000000" stroke-width="0.5" stroke-linecap="round" stroke-linejoin="round" stroke-miterlimit="10" d="
	M9.2,21.9C9,22,8.9,22.1,8.8,22.3c-0.5,0.6-0.6,1-0.6,1.2c0,0.3,0.1,0.9,0.1,0.9c0.6,0,1.1,0.9,1.5,1.5c1,1.3,1.8,2.1,3.1,2.4"/>
<line fill="none" stroke="#000000" stroke-width="0.5" stroke-linecap="round" stroke-linejoin="round" stroke-miterlimit="10" x1="7.9" y1="22" x2="8.8" y2="22.3"/>
<path fill="none" stroke="#000000" stroke-width="0.5" stroke-linecap="round" stroke-linejoin="round" stroke-miterlimit="10" d="
	M8.2,24.4c0,0-0.4,0.2-0.5,0.3c-0.2,0.2-0.6,1.3-1.1,2.1c-0.5,0.7-0.8,0.7-1,0.5c-0.2-0.2-0.3-0.1-0.4,0.2C5,27.9,4.5,28.7,4,28.9
	s-1.2-0.3-1.5-1.2c-0.4-1.1-0.3-2,0.8-3.6"/>
<path fill="none" stroke="#000000" stroke-width="0.5" stroke-linecap="round" stroke-linejoin="round" stroke-miterlimit="10" d="
	M7.8,24.6"/>
<path fill="none" stroke="#000000" stroke-width="0.5" stroke-linecap="round" stroke-linejoin="round" stroke-miterlimit="10" d="
	M13.5,18.5"/>
<path fill="none" stroke="#000000" stroke-width="0.5" stroke-linecap="round" stroke-linejoin="round" stroke-miterlimit="10" d="
	M23.4,15.4c0,0,0-3.5,0.3-4.7s1.2-3.2,2.2-4.6c1-1.3,1.3-1.9,1.6-2.4c0.5-0.7,2.1-0.3,3.4-0.1s2.5,1.2,3.3,1.7
	c0.8,0.5,1.9,0.6,2.9,1.7c1,1.1,1.9,2.4,3.1,3.8c1.3,1.5,2.7,2,3.6,3.4c1.2,1.7,0.2,5.4-0.5,8s-1.3,5.6-2.5,6.8
	c-2.3,2.4-3.5,3.7-5.1,3.4c-1.9-0.3-2.5-2-5.3-5"/>
<path fill="none" stroke="#000000" stroke-width="0.5" stroke-linecap="round" stroke-linejoin="round" stroke-miterlimit="10" d="
	M40.6,20.2c0,0-1.2,3.6-3.7,5.9"/>
<path fill="none" stroke="#000000" stroke-width="0.5" stroke-linecap="round" stroke-linejoin="round" d="M32.4,25.1
	c2.4,0.4,1.9,2.9,0.6,1.8c-1.6-1.5-3.3,1.9-5.2,1.2"/>
<path fill="none" stroke="#000000" stroke-width="0.4434" stroke-linecap="round" stroke-linejoin="round" d="M32.2,23.6
	c0.9-0.2,2-0.6,2.2,0.9c0.1,0.7-1.3,0.8-2,0.4"/>
<line fill="none" stroke="#000000" stroke-width="0.5" stroke-linecap="round" stroke-linejoin="round" stroke-miterlimit="10" x1="3.8" y1="31.8" x2="33.7" y2="31.8"/>
</svg>
