<?xml version="1.0" encoding="utf-8"?>
<!-- Generator: Adobe Illustrator 18.0.0, SVG Export Plug-In . SVG Version: 6.00 Build 0)  -->
<!DOCTYPE svg PUBLIC "-//W3C//DTD SVG 1.1//EN" "http://www.w3.org/Graphics/SVG/1.1/DTD/svg11.dtd">
<svg version="1.1" id="Слой_1" xmlns="http://www.w3.org/2000/svg" xmlns:xlink="http://www.w3.org/1999/xlink" x="0px" y="0px"
	 viewBox="0 0 36 36" enable-background="new 0 0 36 36" xml:space="preserve">
<path fill="none" stroke="#000000" stroke-width="0.5" stroke-miterlimit="10" d="M20,4.6c0,0-2.4,3.5-1.9,8.6
	c0.2,2,0.4,2.9,0.5,3.3c0.1,0.3,0.7,1.8,3.3,1c2.6-0.8,3.5-1.9,3.9-2.3l-0.3,2.5"/>
<path fill="none" stroke="#000000" stroke-width="0.5" stroke-linecap="round" stroke-linejoin="round" stroke-miterlimit="10" d="
	M29.7,4.5c-1.6-3.3-4.1-3.7-6.4-3.4c-2.6,0.3-3.6,1.7-3.5,2.9c0.2,2.2,3.3,1.7,3.3,1.7s-0.7-1.1,0.3-0.9c1.4,0.3,2.6,1.2,3.1,2
	c1.7,2.7-0.3,4.7-0.3,4.7l0.2,0.3c0,0,0.4-0.4,1-0.4c0.4,0,0.8,0.6,0.7,1.1C28.2,12.5,31.7,8.7,29.7,4.5z"/>
<g>
	<path d="M23.2,9.2c0,0,0.2-0.1,0.6-0.2c0.3-0.1,0.9-0.1,1.3,0.2c0.1,0.1,0.2,0.1,0.3,0.2c0.1,0.1,0.2,0.2,0.2,0.3
		c0.1,0.2,0.2,0.4,0.3,0.6c0.1,0.2,0,0.3,0.1,0.4c0,0.1,0,0.2,0,0.2s0,0-0.1-0.1c-0.1-0.1-0.1-0.2-0.2-0.3c-0.1-0.1-0.2-0.3-0.3-0.4
		c-0.1-0.1-0.3-0.3-0.5-0.3c-0.3-0.2-0.7-0.3-1.1-0.3C23.4,9.2,23.2,9.2,23.2,9.2z"/>
</g>
<g>
	<path d="M19.3,8.1c0,0,0.1-0.2,0.4-0.3c0.3-0.1,0.7-0.2,1.1-0.1c0.2,0.1,0.4,0.2,0.5,0.3c0.1,0.1,0.2,0.3,0.3,0.4
		c0.1,0.1,0.1,0.3,0.1,0.3c0,0.1,0,0.1,0,0.1s0,0-0.1-0.1c-0.1-0.1-0.2-0.1-0.3-0.2c-0.1-0.1-0.2-0.2-0.4-0.3
		c-0.1-0.1-0.3-0.2-0.4-0.2C20.4,8.1,20.1,8,19.8,8C19.5,8.1,19.3,8.1,19.3,8.1z"/>
</g>
<g>
	<path d="M19.4,13.8c0,0,0.2,0.2,0.4,0.4c0.2,0.2,0.5,0.5,0.9,0.6c0.3,0.1,0.8,0.1,1.1,0.1c0.3,0,0.6,0,0.6,0s-0.2,0.1-0.5,0.3
		c-0.3,0.1-0.8,0.3-1.3,0.1c-0.2-0.1-0.5-0.2-0.6-0.4c-0.2-0.2-0.3-0.3-0.3-0.5C19.4,14.1,19.4,13.8,19.4,13.8z"/>
</g>
<g>
	<path d="M25.7,14.3c0,0,0.2,0,0.5,0c0.3-0.1,0.7-0.2,0.9-0.5c0.3-0.3,0.5-0.6,0.6-0.9c0.1-0.3,0.2-0.5,0.2-0.5l0.5,0.2
		c0,0-0.1,0.2-0.3,0.5c-0.2,0.3-0.5,0.6-0.8,0.9c-0.3,0.3-0.8,0.4-1.1,0.4C25.9,14.4,25.7,14.3,25.7,14.3z"/>
</g>
<path fill="none" stroke="#000000" stroke-width="0.5" stroke-miterlimit="10" d="M18.3,9.4"/>
<path fill="none" stroke="#000000" stroke-width="0.5" stroke-miterlimit="10" d="M9,13.3"/>
<path fill="none" stroke="#000000" stroke-width="0.5" stroke-linecap="round" stroke-linejoin="round" stroke-miterlimit="10" d="
	M27.3,29.7c0.3-0.2,2.5-2.1,3-2.6c-0.5-2.1-0.5-2.8-1.5-4.2c-1.5-2.1-3.2-4-3.2-4l0.6-2.1c0,0-0.8,1.2-2.8,1.4
	c-0.7,0.1-1.2-0.1-1.8-0.1l-1.4,1.9l-0.3-2.2c-0.6-0.1-1.1-0.4-1.3-0.7c0,0-0.5-0.2-5.2-3.1c-2.1,0.3-3.7,0.8-3.7,0.8l6.3,6.3
	c-0.8,3.7,0.4,8.1,1.2,10.7c2.2,0,4.1,0,6.3,0c0.2-2.9,0.4-4.5,1-7l2,1.1C26.7,25.9,26.7,27.3,27.3,29.7z"/>
<path fill="none" stroke="#000000" stroke-width="0.5" stroke-linecap="round" stroke-linejoin="round" stroke-miterlimit="10" d="
	M30.3,27.1c0.5-0.7,0.7-2.5,1.1-2.7c0.5-0.2,1.6,0.1,2,1.3c0.5,1.4-0.6,2-1,2.6c-0.3,0.4,0,0.8,0.3,1.8"/>
<ellipse cx="24" cy="11.3" rx="0.5" ry="0.6"/>
<ellipse cx="20.2" cy="10" rx="0.5" ry="0.6"/>
<path fill="none" stroke="#000000" stroke-width="0.5" stroke-linecap="round" stroke-linejoin="round" stroke-miterlimit="10" d="
	M15.4,4.4c-0.3-0.2-0.6-0.2-0.9-0.1c-0.1-0.1-0.1-0.1-0.2-0.2c-0.5-0.3-0.8-0.2-1.1,0c0,0-0.1-0.1-0.1-0.1c-0.4-0.3-0.9-0.3-1.2,0.1
	c0,0,0,0-0.1,0c-0.4-0.1-0.7,0.1-0.9,0.4c-0.2,0.4,0,1,0.5,1.3c0.4,0.2,0.8,0.2,1.1,0c0.4,0.2,0.8,0.1,1-0.2l0,0
	c0.3,0.2,0.6,0.2,0.8,0.1l0,0c0.8,0.5,1.3,0.3,1.6-0.1C16.1,5.2,15.9,4.7,15.4,4.4z"/>
<ellipse fill="none" stroke="#000000" stroke-width="0.5" stroke-miterlimit="10" cx="20.2" cy="22.6" rx="0.5" ry="0.6"/>
<ellipse fill="none" stroke="#000000" stroke-width="0.5" stroke-miterlimit="10" cx="20.1" cy="24.9" rx="0.5" ry="0.6"/>
<g>
	<path d="M20.7,12C20.7,12,20.7,12,20.7,12c0,0.2,0.1,0.2,0.1,0.3c0.1,0.2,0.2,0.4,0.3,0.4c0,0,0.3,0,0.5-0.1
		c0.2-0.1,0.3-0.1,0.3-0.1s0,0.2-0.1,0.3c-0.1,0.1-0.1,0.2-0.3,0.3c-0.1,0.1-0.3,0.2-0.5,0.1c-0.2-0.1-0.3-0.3-0.4-0.4
		c0-0.2,0-0.3,0-0.4C20.6,12,20.7,12,20.7,12z"/>
</g>
<path fill="none" stroke="#000000" stroke-width="0.5" stroke-linecap="round" stroke-linejoin="round" stroke-miterlimit="10" d="
	M32.9,30.6c0,0-1-1.2-2-1.6c-1.3-0.5-3.6,2.4-3.6,3.5c0,0.9,0.4,1.6,0.9,1.9c0.8,0.5,1.9,0.5,3.4-0.3C33.2,33.4,34,32,32.9,30.6z"/>
<path fill="none" stroke="#000000" stroke-width="0.5" stroke-miterlimit="10" d="M27.4,33.2c0,0-0.5-2-0.1-3.6"/>
<path fill="none" stroke="#000000" stroke-width="0.5" stroke-miterlimit="10" d="M18.1,13.9c-6.5-0.7-11.1,2.2-11.1,2.2"/>
<path fill="none" stroke="#000000" stroke-width="0.5" stroke-miterlimit="10" d="M18.1,13.9"/>
<path fill="none" stroke="#000000" stroke-width="0.5" stroke-miterlimit="10" d="M24.9,15.9"/>
<path fill="none" stroke="#000000" stroke-width="0.5" stroke-miterlimit="10" d="M29.8,10.2c1.6,0.8,2.9,1.7,4.6,3.2
	c1.5,1.4-1.1,5.6-2.7,4.6c-3.6-2.4-4.4-2.7-5.9-3.1"/>
<path fill="none" stroke="#000000" stroke-width="0.5" stroke-miterlimit="10" d="M15.9,5.7c1,0.2,2.1,0.4,3.1,0.7"/>
<path fill="none" stroke="#000000" stroke-width="0.5" stroke-miterlimit="10" d="M4.8,5.7c0,0,2.4-0.5,6-0.4"/>
<path fill="none" stroke="#000000" stroke-width="0.5" stroke-miterlimit="10" d="M5.6,7.7c-1.7,0-3,1.8-3,4c0,2.5,1.4,4.5,3.3,4.6
	c2,0,3.7-2.2,3.7-5c0-3.1-1.8-5.6-4.1-5.6C3.1,5.7,1,8.4,1,11.8c0,3.8,2.2,6.9,5,7l0.3-2.6"/>
</svg>
