<?xml version="1.0" encoding="utf-8"?>
<!-- Generator: Adobe Illustrator 18.0.0, SVG Export Plug-In . SVG Version: 6.00 Build 0)  -->
<!DOCTYPE svg PUBLIC "-//W3C//DTD SVG 1.1//EN" "http://www.w3.org/Graphics/SVG/1.1/DTD/svg11.dtd">
<svg version="1.1" id="Слой_1" xmlns="http://www.w3.org/2000/svg" xmlns:xlink="http://www.w3.org/1999/xlink" x="0px" y="0px"
	 viewBox="0 0 36 36" enable-background="new 0 0 36 36" xml:space="preserve">
<path fill="none" stroke="#000000" stroke-width="0.5" stroke-linecap="round" stroke-linejoin="round" stroke-miterlimit="10" d="
	M2.1,12.2"/>
<g>
	
		<line fill="none" stroke="#000000" stroke-width="0.5" stroke-linecap="round" stroke-linejoin="round" stroke-miterlimit="10" x1="21.3" y1="6.2" x2="33.8" y2="6.2"/>
	
		<line fill="none" stroke="#000000" stroke-width="0.5" stroke-linecap="round" stroke-linejoin="round" stroke-miterlimit="10" x1="15.3" y1="6.1" x2="16.9" y2="6.1"/>
	
		<polyline fill="none" stroke="#000000" stroke-width="0.5" stroke-linecap="round" stroke-linejoin="round" stroke-miterlimit="10" points="
		12,13.1 2,13.1 10,7.4 	"/>
	
		<line fill="none" stroke="#000000" stroke-width="0.5" stroke-linecap="round" stroke-linejoin="round" stroke-miterlimit="10" x1="20.6" y1="13.1" x2="17.3" y2="13.1"/>
	<path fill="none" stroke="#000000" stroke-width="0.5" stroke-linecap="round" stroke-linejoin="round" stroke-miterlimit="10" d="
		M20.1,13.3"/>
	
		<polyline fill="none" stroke="#000000" stroke-width="0.5" stroke-linecap="round" stroke-linejoin="round" stroke-miterlimit="10" points="
		24.3,15.6 24.3,35 2,35 2,13.1 	"/>
	
		<line fill="none" stroke="#000000" stroke-width="0.5" stroke-linecap="round" stroke-linejoin="round" stroke-miterlimit="10" x1="11" y1="15.4" x2="11" y2="13.4"/>
	
		<line fill="none" stroke="#000000" stroke-width="0.5" stroke-linecap="round" stroke-linejoin="round" stroke-miterlimit="10" x1="11.1" y1="35" x2="11.1" y2="17.2"/>
	<path fill="none" stroke="#000000" stroke-width="0.5" stroke-linecap="round" stroke-linejoin="round" stroke-miterlimit="10" d="
		M11.1,35"/>
	<path fill="none" stroke="#000000" stroke-width="0.5" stroke-linecap="round" stroke-linejoin="round" stroke-miterlimit="10" d="
		M15.3,35"/>
	
		<line fill="none" stroke="#000000" stroke-width="0.5" stroke-linecap="round" stroke-linejoin="round" stroke-miterlimit="10" x1="15.3" y1="16.7" x2="15.3" y2="35"/>
	<path fill="none" stroke="#000000" stroke-width="0.5" stroke-linecap="round" stroke-linejoin="round" stroke-miterlimit="10" d="
		M15.3,13.2"/>
	<path fill="none" stroke="#000000" stroke-width="0.5" stroke-linecap="round" stroke-linejoin="round" stroke-miterlimit="10" d="
		M11.1,13.2"/>
	
		<polyline fill="none" stroke="#000000" stroke-width="0.5" stroke-linecap="round" stroke-linejoin="round" stroke-miterlimit="10" points="
		25.9,12.1 33.8,6.2 33.8,27.8 24.3,34.9 	"/>
	
		<line fill="none" stroke="#000000" stroke-width="0.5" stroke-linecap="round" stroke-linejoin="round" stroke-miterlimit="10" x1="30.3" y1="8.9" x2="30.3" y2="30.4"/>
	
		<line fill="none" stroke="#000000" stroke-width="0.5" stroke-linecap="round" stroke-linejoin="round" stroke-miterlimit="10" x1="27.7" y1="32.2" x2="27.7" y2="10.8"/>
	
		<line fill="none" stroke="#000000" stroke-width="0.5" stroke-linecap="round" stroke-linejoin="round" stroke-miterlimit="10" x1="5.3" y1="10.7" x2="12.4" y2="10.8"/>
	<path fill="none" stroke="#000000" stroke-width="0.5" stroke-linecap="round" stroke-linejoin="round" stroke-miterlimit="10" d="
		M5.3,10.7"/>
	<path fill="none" stroke="#000000" stroke-width="0.5" stroke-linecap="round" stroke-linejoin="round" stroke-miterlimit="10" d="
		M8,8.7"/>
	
		<line fill="none" stroke="#000000" stroke-width="0.5" stroke-linecap="round" stroke-linejoin="round" stroke-miterlimit="10" x1="12.8" y1="8.8" x2="8.2" y2="8.7"/>
	<path fill="none" stroke="#000000" stroke-width="0.5" stroke-linecap="round" stroke-linejoin="round" stroke-miterlimit="10" d="
		M15.3,8.7"/>
	<path fill="none" stroke="#000000" stroke-width="0.5" stroke-linecap="round" stroke-linejoin="round" stroke-miterlimit="10" d="
		M19.8,8.7"/>
	
		<line fill="none" stroke="#000000" stroke-width="0.5" stroke-linecap="round" stroke-linejoin="round" stroke-miterlimit="10" x1="30.2" y1="8.7" x2="24.7" y2="8.7"/>
	
		<line fill="none" stroke="#000000" stroke-width="0.5" stroke-linecap="round" stroke-linejoin="round" stroke-miterlimit="10" x1="25.7" y1="10.7" x2="27.6" y2="10.7"/>
	<path fill="none" stroke="#000000" stroke-width="0.5" stroke-linecap="round" stroke-linejoin="round" stroke-miterlimit="10" d="
		M11,13.1"/>
	<path fill="none" stroke="#000000" stroke-width="0.5" stroke-linecap="round" stroke-linejoin="round" stroke-miterlimit="10" d="
		M14.3,9.9"/>
	<path fill="none" stroke="#000000" stroke-width="0.5" stroke-linecap="round" stroke-linejoin="round" stroke-miterlimit="10" d="
		M15.3,9.8c-0.3,0.4-0.7,0.4-1.3-0.2c-1.1-1.1-2.4-2.5-4.9-2.2C6.8,7.7,6.3,7,6.9,5.5c0.6-1.3,2-3,4.3-2.6c2.1,0.4,3.2,1.5,3.9,2.7
		c0.1,0.3,0.3,0.5,0.4,0.8c0.1,0.2,0.2,0.5,0.2,0.7"/>
	<path fill="none" stroke="#000000" stroke-width="0.5" stroke-linecap="round" stroke-linejoin="round" stroke-miterlimit="10" d="
		M18.5,10.5c1.4,0.7,2.1,2.1,3.2,4.9c0.9,2.3,1.1,1.2,3.1-0.2c1.1-0.8,1.7-4.2,0.2-6.1c-1.7-2.1-3.7-2-5.1-1.7
		c-0.7,0.1-1,0.3-1.4,0.5"/>
	<path fill="none" stroke="#000000" stroke-width="0.5" stroke-linecap="round" stroke-linejoin="round" stroke-miterlimit="10" d="
		M18.2,7.9c0.7,1,0.6,2.2-0.1,2.8c-0.7,0.6-1.9,0.2-2.6-0.7c-0.7-1-0.6-2.2,0.1-2.8S17.5,6.9,18.2,7.9z"/>
	<path fill="none" stroke="#000000" stroke-width="0.5" stroke-linecap="round" stroke-linejoin="round" stroke-miterlimit="10" d="
		M13.9,9.9c-1.1,0.6-1.7,1.4-1.8,2.8c-0.1,2.1-0.3,2.5-1.4,2.9c-1,0.3-0.2,1.4,0.6,1.6c2.5,0.4,3.8-0.1,4.7-1.1
		c1.5-1.8,0.7-3.9,1.3-4.9"/>
	<path fill="none" stroke="#000000" stroke-width="0.5" stroke-linecap="round" stroke-linejoin="round" stroke-miterlimit="10" d="
		M17.2,6.9c-0.3-0.5-0.2-0.8,0.2-1.1c0.5-0.4,0.5-0.8,0.2-1.3c-0.4-0.8-1-1.6-1.2-2.5c-0.3-1.1,0.2-1,1.3-1c0.9,0,1.9,0.1,2.6,0.7
		c1.1,0.7,1.2,2,1.1,3.2c-0.3,1.6-0.9,2.1-1.7,2.4"/>
</g>
</svg>
