<?xml version="1.0" encoding="utf-8"?>
<!-- Generator: Adobe Illustrator 18.0.0, SVG Export Plug-In . SVG Version: 6.00 Build 0)  -->
<!DOCTYPE svg PUBLIC "-//W3C//DTD SVG 1.1//EN" "http://www.w3.org/Graphics/SVG/1.1/DTD/svg11.dtd">
<svg version="1.1" id="Слой_1" xmlns="http://www.w3.org/2000/svg" xmlns:xlink="http://www.w3.org/1999/xlink" x="0px" y="0px"
	 viewBox="0 0 36 36" enable-background="new 0 0 36 36" xml:space="preserve">
<path fill="none" stroke="#000000" stroke-width="0.5014" stroke-linecap="round" stroke-linejoin="round" stroke-miterlimit="10" d="
	M20.8,24.2c-0.1-1.1,0.9-0.9,1.3-0.7c2,1.1,2.6,1.8,2.6,2.3c0,0.8-0.5,1-3.4,0.3C20.9,25.9,20.9,25.4,20.8,24.2z"/>
<path fill="none" stroke="#000000" stroke-width="0.5014" stroke-linecap="round" stroke-linejoin="round" stroke-miterlimit="10" d="
	M12,3.3c4.8-1.1,10.1-0.4,15.1,1.4c1.4,0.5,1.6,1.6,1.6,3.1c0,0.4,0,0.9,0,1.3"/>
<path fill="none" stroke="#020202" stroke-width="0.5014" stroke-linecap="round" stroke-linejoin="round" stroke-miterlimit="10" d="
	M12.5,14.7c0,0,0.1-1.6,0.4-3.3s0.3-2.4,1.9-3.1s4-1.6,8.8-0.6c4.9,0.9,5.4,1.6,5.9,2c0.6,0.4,3.1,3,4.1,8.5c0,0.2,0.1,0.3,0.1,0.5
	c0.4-0.6,1.1-0.9,1.3-0.4c0.7,0.9,0,2.3-0.9,3.1c0,0.2,0,0.4,0,0.6c0.1,0.8,0.1,1.7,0,2.7c-0.1,1.9-0.2,3.6-0.7,4.2
	c-0.4,0.5-1.1,0.8-1.1,0.8s-0.2,1.1-1.3,1.1c-1.5,0-11.2-0.5-11.2-0.5s-0.9,0.1-1.4-0.8c-0.6-1.1-1.1-2.1-1.4-2.7
	c0.6,0.7,1.8,2,3.2,2.2c2,0.2,8.6,0.5,8.6,0.5"/>
<g>
	<g>
		<path fill="#020202" d="M2,7.7C1.9,7.8,1.8,7.8,1.8,7.9c0,0,0.1,0,0.3,0l1.8-0.6C4,7.2,4.1,7.1,4.1,7L4,7c0-0.1-0.2-0.1-0.3,0
			L2,7.7z"/>
		<path fill="#020202" d="M2,8.8C1.9,8.9,1.8,8.9,1.8,9c0,0,0.1,0,0.3,0l1.8-0.6c0.1,0,0.2-0.1,0.2-0.2l0-0.1C4,8,3.9,8,3.8,8L2,8.8
			z"/>
		<path fill="#020202" d="M2,9.9C1.9,9.9,1.8,10,1.8,10.1c0,0,0.1,0,0.3,0l1.8-0.6c0.1,0,0.2-0.1,0.2-0.2l0-0.1c0-0.1-0.2-0.1-0.3,0
			L2,9.9z"/>
	</g>
</g>
<path fill="none" stroke="#000000" stroke-width="0.5014" stroke-linecap="round" stroke-linejoin="round" stroke-miterlimit="10" d="
	M33,27.1c-0.1,0.4-0.5,0.5-1.2,0.4c-1.7-0.1-3.4-0.2-4.5-0.3c-0.4,0-1,0-1.2-0.6c-0.2-0.8-0.3-1.1-0.4-1.7c-0.2-0.9,0.5-0.7,0.8-0.7
	l6,0.5c0.4,0,0.7,0.5,0.7,0.8C33.3,26.6,33,27.1,33,27.1z"/>
<g>
	<path d="M22.4,19.4c0,0,1.1,1.2,2,2.6c0.5,0.7,0.9,1.4,1.1,1.9c0.3,0.6,0.4,0.9,0.4,0.9l0,0c0.1,0.1,0,0.3-0.1,0.3
		c-0.1,0.1-0.3,0-0.3-0.1c0,0,0,0,0,0c0,0-0.1-0.4-0.3-0.9c-0.2-0.6-0.6-1.3-1-2C23.3,20.7,22.4,19.4,22.4,19.4z"/>
</g>
<g>
	<path d="M32.6,20.8c0,0,0.4,1.2,0.6,2.3c0.1,0.6,0.2,1.2,0.2,1.7c0,0.5,0,0.8,0,0.8c0,0.1-0.1,0.2-0.2,0.2s-0.2-0.1-0.2-0.2
		c0,0,0,0,0,0c0,0,0-0.3,0-0.7c0-0.4,0-1-0.1-1.6C32.8,21.9,32.6,20.8,32.6,20.8z"/>
</g>
<g>
	<path d="M18.6,20.1c0,0,0.7,0.8,1.4,1.8c0.3,0.5,0.6,1,0.8,1.4C21,23.6,21,24,21,24l0,0c0,0.1-0.1,0.3-0.2,0.3
		c-0.1,0-0.3-0.1-0.3-0.2c0,0,0,0,0,0c0,0,0-0.2-0.1-0.6c-0.1-0.4-0.4-0.9-0.6-1.4C19.3,21,18.6,20.1,18.6,20.1z"/>
</g>
<path fill="none" stroke="#F90303" stroke-width="0.5014" stroke-linecap="round" stroke-linejoin="round" stroke-miterlimit="10" d="
	M16.1,24.7"/>
<path fill="none" stroke="#020202" stroke-width="0.5014" stroke-linecap="round" stroke-linejoin="round" stroke-miterlimit="10" d="
	M18,22.4c-4.1,0-4.1,0-4.1,0c-0.4,0-0.4-0.2-0.4-0.5c0-0.5,0-0.6,0.4-0.6c0,0,1.8,0,3.3,0C17.7,21.3,18.7,22.4,18,22.4z"/>
<g>
	<g>
		<path fill="none" stroke="#020202" stroke-width="0.5014" stroke-miterlimit="10" d="M27,27.3c0,0-6.3-0.3-7.2-0.5
			c-1.3-0.2-1.5-0.9-2.6-1.7c-0.5-0.4-2.2-1-4.3-0.3"/>
		<path fill="none" stroke="#020202" stroke-width="0.5014" stroke-miterlimit="10" d="M16.4,24.7"/>
		<path fill="none" stroke="#020202" stroke-width="0.5014" stroke-miterlimit="10" d="M15.4,24.6"/>
	</g>
</g>
<path fill="none" stroke="#020202" stroke-width="0.5014" stroke-miterlimit="10" d="M9,24.8c1.2,0,2.4,0,3.6,0.1
	c-1.2-4-0.6-10.2-0.6-14.6c0-3.7,0-5.1,0-7C7.6,3.6,4,4.8,0.8,7.3c-0.4,5.9,0.9,12,2.6,17.9c1.5-0.2,3.1-0.3,4.8-0.4L9,24.8z"/>
<path fill="none" stroke="#020202" stroke-width="0.5014" stroke-linecap="round" stroke-linejoin="round" stroke-miterlimit="10" d="
	M17.2,26.7"/>
<path fill="none" stroke="#020202" stroke-width="0.5014" stroke-linecap="round" stroke-linejoin="round" stroke-miterlimit="10" d="
	M20.1,30.3c0,0.5,0,0.7-0.1,1.1c-0.2,0.9-0.8,1.5-1.5,1.7c-1.3,0.3-2.7-0.9-3.1-2.8c-0.3-1.1-0.1-1.9,0.4-2.5"/>
<path fill="none" stroke="#020202" stroke-width="0.5014" stroke-linecap="round" stroke-linejoin="round" stroke-miterlimit="10" d="
	M31.2,30.8c-0.2,0.9-0.7,1.4-1.5,1.6c-1.1,0.3-2.2-0.3-2.8-1.7"/>
<path fill="none" stroke="#020202" stroke-width="0.5014" stroke-linecap="round" stroke-linejoin="round" stroke-miterlimit="10" d="
	M22.2,30.5c-0.3,0.7-0.6,0.9-1.2,1c-0.3,0.1-0.7,0.1-1-0.1"/>
<path fill="none" stroke="#020202" stroke-width="0.5014" stroke-linecap="round" stroke-linejoin="round" stroke-miterlimit="10" d="
	M10.9,27.6c0.2,0.5,0.3,0.9,0.4,1.5c0.1,1.8-0.7,3.3-1.9,3.4S7,31.2,6.9,29.4c-0.1-0.7-0.1-1.1,0.1-1.7"/>
<path fill="none" stroke="#020202" stroke-width="0.5014" stroke-linecap="round" stroke-linejoin="round" stroke-miterlimit="10" d="
	M12.4,27.6c0.1,0.4,0.3,0.8,0.3,1.2c0,1.8-0.7,3.3-1.9,3.4c-0.2,0-0.3,0-0.5-0.1"/>
<path fill="none" stroke="#000000" stroke-width="0.5014" stroke-linecap="round" stroke-linejoin="round" stroke-miterlimit="10" d="
	M10.2,32.1"/>
<path fill="none" stroke="#020202" stroke-width="0.5014" stroke-miterlimit="10" d="M33.3,19.2c-4.2-1.4-8.3-2.3-12.8-1.5
	c-0.9,0.2-1.1-0.2-1.3-0.8c-0.8-2-1.4-4.1-1.4-6.1c0-0.8,0.3-1,1.2-1.1c3.9-0.7,8.2,0.3,12.4,2.2"/>
<path fill="none" stroke="#020202" stroke-width="0.5014" stroke-linecap="round" stroke-linejoin="round" stroke-miterlimit="10" d="
	M17.6,28c-3.4-0.6-10-0.7-13.4-0.1c0-0.5,0-1,0-1.5c3.4-0.6,10.8-0.6,14.2,0.1"/>
<path fill="none" stroke="#020202" stroke-width="0.5014" stroke-miterlimit="10" d="M6.5,24.9c0,0,0.2,0.8,0,1.2"/>
<path fill="none" stroke="#020202" stroke-width="0.444" stroke-miterlimit="10" d="M14.8,9.4c-1.1,0.1-1.1,3.6-1.2,5.1
	c-0.1,0.9-0.5,4.7,0.5,4.9c0.7,0.1,2.7,0.4,3-0.7c0.5-2.3,0.2-6.4-0.7-8.4C16.1,9.8,16,9.4,14.8,9.4z"/>
</svg>
