<?xml version="1.0" encoding="utf-8"?>
<!-- Generator: Adobe Illustrator 13.0.0, SVG Export Plug-In . SVG Version: 6.00 Build 14948)  -->
<!DOCTYPE svg PUBLIC "-//W3C//DTD SVG 1.1//EN" "http://www.w3.org/Graphics/SVG/1.1/DTD/svg11.dtd">
<svg version="1.1" id="Слой_1" xmlns="http://www.w3.org/2000/svg" xmlns:xlink="http://www.w3.org/1999/xlink" x="0px" y="0px"
	 width="612px" height="792px" viewBox="0 0 612 792" enable-background="new 0 0 612 792" xml:space="preserve">
<path fill="none" stroke="#000000" stroke-width="0.5" stroke-linecap="round" stroke-linejoin="round" stroke-miterlimit="10" d="
	M292.548,393.756c0,0,1.427,0,2.416,0.11c0.988,0.219,7.358,0.219,7.358,0.219"/>
<path fill="none" stroke="#000000" stroke-width="0.5" stroke-linecap="round" stroke-linejoin="round" stroke-miterlimit="10" d="
	M281.017,396.94c0,0,0.659,3.404,1.318,5.931c0.659,2.086,1.428,4.282,2.086,6.809c0,0-3.734-11.641-3.514-12.52
	c1.318-4.063,3.954-3.294,6.479-3.514"/>
<path fill="none" stroke="#000000" stroke-width="0.5" stroke-linecap="round" stroke-linejoin="round" stroke-miterlimit="10" d="
	M314.842,391.889c0.22-0.988,0.439-1.977,0.109-2.306c-0.439-0.33-1.208-0.22-1.977,1.867
	C314.292,391.34,314.842,391.889,314.842,391.889z"/>
<path fill="none" stroke="#000000" stroke-width="0.5" stroke-linecap="round" stroke-linejoin="round" stroke-miterlimit="10" d="
	M316.05,392.877c0.549-0.988,0.988-1.537,1.428-1.318c0.438,0.22,0.658,1.428-0.33,2.855"/>
<path fill="none" stroke="#000000" stroke-width="0.5" stroke-linecap="round" stroke-linejoin="round" stroke-miterlimit="10" d="
	M316.818,395.952c-0.33,1.537-2.965,0.769-3.295-1.208c-0.109-0.878,0.988-2.086,2.087-1.647
	C316.708,393.316,317.038,394.744,316.818,395.952z"/>
<path fill="none" stroke="#000000" stroke-width="0.5" stroke-linecap="round" stroke-linejoin="round" stroke-miterlimit="10" d="
	M313.634,398.478c-0.22-0.109-0.33-0.438-0.22-0.769c0.109-0.329,0.439-0.439,0.658-0.22c0.22,0.11,0.55,0.55,0.439,0.879
	C314.292,398.588,313.963,398.588,313.634,398.478z"/>
<path fill="none" stroke="#000000" stroke-width="0.5" stroke-linecap="round" stroke-linejoin="round" stroke-miterlimit="10" d="
	M314.951,387.386c0.22-0.11,0.549,0.11,0.659,0.33"/>
<path fill="none" stroke="#000000" stroke-width="0.5" stroke-linecap="round" stroke-linejoin="round" stroke-miterlimit="10" d="
	M309.79,391.23c-0.11-0.33,0.109-0.659,0.329-0.659"/>
<path fill="none" stroke="#000000" stroke-width="0.5" stroke-linecap="round" stroke-linejoin="round" stroke-miterlimit="10" d="
	M317.916,388.594c0.22-0.11,0.55,0.11,0.659,0.33"/>
<path fill="none" stroke="#000000" stroke-width="0.5" stroke-linecap="round" stroke-linejoin="round" stroke-miterlimit="10" d="
	M308.911,391.12c-0.549-0.659-1.317-2.196-0.879-3.295c0.22-0.659,0.659-1.098,1.099-1.647c0.549-0.769,0.879-1.208,1.208-1.977
	c0.659-1.427,1.099-1.647,2.087-1.757c0.549-0.11,1.428-1.208,2.416-0.988c0.439,0.11,0.878-0.22,1.098-0.22
	c2.416-0.33,4.174,0.549,5.271,3.404c0.659,1.538,0.329,2.855-0.109,4.393c-0.22,0.879-0.988,3.734-2.087,3.405
	c0.659-1.977,0.879-4.393,0.549-6.479c-0.109-0.878-0.769-0.769-1.208-0.549c-0.769,0.33-1.098-0.109-1.867-0.659
	c-0.769-0.659-0.988,0.22-2.306,0.988c-0.659,0.439-0.879,1.538-1.977,3.075c-0.439,0.659-0.659,1.208-0.988,1.098
	c-0.22-0.11-0.439-0.988-0.879-1.098C309.351,388.814,308.911,391.12,308.911,391.12z"/>
<path fill="none" stroke="#000000" stroke-width="0.5" stroke-linecap="round" stroke-linejoin="round" stroke-miterlimit="10" d="
	M308.911,391.12c0,0,0,1.318,0.11,2.086c0.109,0.769,0.878,1.098,0.878,1.098s-0.109,2.196,0.22,3.185s1.318,2.966,1.318,2.966"/>
<path fill="none" stroke="#000000" stroke-width="0.5" stroke-linecap="round" stroke-linejoin="round" stroke-miterlimit="10" d="
	M319.015,392.328c0,0-0.329,0.769-0.659,1.098c-0.439,0.439-0.549,0.439-0.549,0.439s-0.329,2.416-0.769,3.294
	c-0.55,0.988-0.659,1.537-0.659,1.537"/>
<path fill="none" stroke="#000000" stroke-width="0.5" stroke-linecap="round" stroke-linejoin="round" stroke-miterlimit="10" d="
	M317.807,400.564"/>
<path fill="none" stroke="#000000" stroke-width="0.5" stroke-linecap="round" stroke-linejoin="round" stroke-miterlimit="10" d="
	M318.026,393.975"/>
<path fill="none" stroke="#000000" stroke-width="0.5" stroke-linecap="round" stroke-linejoin="round" stroke-miterlimit="10" d="
	M289.034,396.172c-0.22,0.769-0.22,0.988-0.11,1.757c0,0.22,0.11,0.659,0.11,0.879c-0.22,0.769-1.318,1.537-2.307,1.647
	c-0.549,1.428-0.659,1.646-0.878,1.757c-0.33,0.329-0.769,0.109-1.208-0.329c-0.439-0.33-1.098-2.417-0.769-3.625
	c0.439-1.757,2.306-3.075,3.514-4.173c0.769-0.769,1.318-2.086,2.086-2.526c0.659-0.439,1.428-0.549,2.306,0.11
	c0.549,0.439,0.879,1.538,0.659,2.416c0.659,0.439,1.977,0.769,2.526,0.989"/>
<path fill="none" stroke="#000000" stroke-width="0.5" stroke-linecap="round" stroke-linejoin="round" stroke-miterlimit="10" d="
	M292.109,394.085c-0.659,0.439-1.647,1.208-2.086,2.087c-0.11,0.22-0.659,1.317-0.22,1.867c0.439,0.549,1.098,1.208,1.428,1.646
	c0.988,1.099,1.757,2.087,2.745,2.416c1.208,0.33,2.087-0.878,2.855-0.438"/>
<path fill="none" stroke="#000000" stroke-width="0.5" stroke-linecap="round" stroke-linejoin="round" stroke-miterlimit="10" d="
	M294.085,407.593c1.867-0.329,3.734,0,6.04,0c0.659,0,1.098-0.22,2.855-0.878c1.318-0.55,2.526-0.989,3.514-1.978
	c0.659,0.879,0.988,0.988,1.867,0.659c1.208-0.439,1.428-0.329,2.416,0c0.659,0.22,1.098,0.22,1.208,0.109
	c0.109-0.109,0.439-0.988,0.439-1.977c0.109-1.208,0-1.757-0.33-3.074c-0.439-0.22-0.878,0.109-1.866,0.219
	c-0.439,0-1.428-0.109-1.538-0.219c-0.22-0.22-0.22-1.318-0.109-2.416c0.22-1.428,0.22-3.075-0.11-4.283
	c-0.22-1.098-0.988-1.977-2.086-1.977c-0.878,0-2.526,1.098-3.075,1.538c-0.988,0.769-2.087,1.428-3.404,2.636
	c0,0-0.549-0.439-1.318-0.988c-0.989-0.769-2.197-1.538-3.734,0.219c0,0,1.537,1.977,1.977,3.954c0.33,1.318,0.33,2.636,0,3.734
	c-0.11,0.658-0.33,0.878-0.659,1.317c-0.33,0.549-0.549,1.317-0.769,1.428c-0.22,0.109-0.549,0.109-1.098,0
	C294.415,405.726,293.976,406.934,294.085,407.593z"/>
<path fill="none" stroke="#000000" stroke-width="0.5" stroke-linecap="round" stroke-linejoin="round" stroke-miterlimit="10" d="
	M303.53,398.478c0.769,2.307,2.306,5.602,2.965,6.26"/>
<path fill="none" stroke="#000000" stroke-width="0.5" stroke-linecap="round" stroke-linejoin="round" stroke-miterlimit="10" d="
	M311.218,400.455c0,0,0.769,2.196-0.659,4.722"/>
<path fill="none" stroke="#000000" stroke-width="0.5" stroke-linecap="round" stroke-linejoin="round" stroke-miterlimit="10" d="
	M312.096,400.455c0,0,0.988-0.77,2.087-1.099c1.099-0.439,1.757-0.549,2.087-0.439c1.317,0.439-0.33,1.099-0.439,1.538"/>
<path fill="none" stroke="#000000" stroke-width="0.5" stroke-linecap="round" stroke-linejoin="round" stroke-miterlimit="10" d="
	M309.021,393.316c0,0-0.22,0.33-0.439,0.439"/>
<path fill="none" stroke="#000000" stroke-width="0.5" stroke-linecap="round" stroke-linejoin="round" stroke-miterlimit="10" d="
	M308.691,400.455c-0.329,0.329-0.549,0.658-0.659,0.988"/>
<path fill="none" stroke="#000000" stroke-width="0.5" stroke-linecap="round" stroke-linejoin="round" stroke-miterlimit="10" d="
	M290.461,398.697c-0.219,0.11-0.329,0.22-0.439,0.439c-0.549,0.659-0.659,1.099-0.659,1.318c0,0.329,0.11,0.988,0.11,0.988
	c0.659,0,1.208,0.988,1.647,1.646c1.098,1.428,1.977,2.307,3.404,2.636"/>
<line fill="none" stroke="#000000" stroke-width="0.5" stroke-linecap="round" stroke-linejoin="round" stroke-miterlimit="10" x1="289.034" y1="398.808" x2="290.022" y2="399.137"/>
<path fill="none" stroke="#000000" stroke-width="0.5" stroke-linecap="round" stroke-linejoin="round" stroke-miterlimit="10" d="
	M289.363,401.443c0,0-0.439,0.22-0.549,0.329c-0.22,0.22-0.659,1.428-1.208,2.307c-0.549,0.769-0.879,0.769-1.098,0.549
	c-0.22-0.22-0.33-0.11-0.439,0.22c-0.22,0.439-0.769,1.317-1.318,1.537c-0.549,0.22-1.318-0.329-1.647-1.317
	c-0.439-1.208-0.329-2.196,0.879-3.954"/>
<path fill="none" stroke="#000000" stroke-width="0.5" stroke-linecap="round" stroke-linejoin="round" stroke-miterlimit="10" d="
	M288.924,401.663"/>
<path fill="none" stroke="#000000" stroke-width="0.5" stroke-linecap="round" stroke-linejoin="round" stroke-miterlimit="10" d="
	M295.184,394.964"/>
<path fill="none" stroke="#000000" stroke-width="0.5" stroke-linecap="round" stroke-linejoin="round" stroke-miterlimit="10" d="
	M306.056,391.559c0,0,0-3.843,0.329-5.161c0.33-1.318,1.318-3.514,2.417-5.052c1.098-1.428,1.428-2.086,1.757-2.636
	c0.549-0.769,2.306-0.33,3.733-0.11s2.746,1.318,3.624,1.867c0.879,0.549,2.087,0.659,3.186,1.867
	c1.098,1.208,2.086,2.636,3.404,4.173c1.428,1.647,2.965,2.196,3.953,3.733c1.318,1.867,0.22,5.931-0.549,8.786
	s-1.428,6.149-2.746,7.468c-2.525,2.636-3.844,4.062-5.601,3.733c-2.086-0.329-2.745-2.196-5.82-5.491"/>
<path fill="none" stroke="#000000" stroke-width="0.5" stroke-linecap="round" stroke-linejoin="round" stroke-miterlimit="10" d="
	M324.945,396.831c0,0-1.318,3.953-4.063,6.479"/>
<path fill="none" stroke="#000000" stroke-width="0.5" stroke-linecap="round" stroke-linejoin="round" d="M315.939,402.212
	c2.636,0.439,2.087,3.185,0.659,1.977c-1.757-1.647-3.624,2.087-5.711,1.317"/>
<path fill="none" stroke="#000000" stroke-width="0.4434" stroke-linecap="round" stroke-linejoin="round" d="M315.72,400.564
	c0.988-0.22,2.196-0.659,2.416,0.988c0.11,0.769-1.428,0.879-2.196,0.439"/>
<line fill="none" stroke="#000000" stroke-width="0.5" stroke-linecap="round" stroke-linejoin="round" stroke-miterlimit="10" x1="284.531" y1="409.569" x2="317.367" y2="409.569"/>
</svg>
