<?xml version="1.0" encoding="utf-8"?>
<!-- Generator: Adobe Illustrator 19.0.1, SVG Export Plug-In . SVG Version: 6.00 Build 0)  -->
<svg version="1.1" id="Слой_1" xmlns="http://www.w3.org/2000/svg" xmlns:xlink="http://www.w3.org/1999/xlink" x="0px" y="0px"
	 viewBox="0 0 36 36" style="enable-background:new 0 0 36 36;" xml:space="preserve">
<style type="text/css">
	.st0{fill:none;stroke:#000000;stroke-width:0.5;stroke-linecap:round;stroke-linejoin:round;stroke-miterlimit:10;}
	.st1{fill:none;stroke:#000000;stroke-width:0.5;stroke-miterlimit:10;}
</style>
<g>
	<g>
		<path class="st0" d="M372.9-11.4c-0.1-0.1-0.2-0.3-0.1-0.5c0.3-0.9,1.3-0.9,2.3-0.3c0.8,0.5,1.4,1.3,1.8,2.3
			c0.1,0.2,0.1,0.5,0.2,0.7c0.1,0.4,0,0.6-0.3,0.2c-0.1-0.2-0.3-0.4-0.5-0.6c-0.7-0.8-1.4-1.2-2.6-1.5
			C373.3-11.2,373.1-11.2,372.9-11.4z"/>
		<path class="st0" d="M367.2-4.7c0.1-0.3,0.2-0.6,0.4-0.8c0.5-0.6,1.3-1,1.9-1.5c0.2-0.2,0.5-0.4,0.7-0.6c0.7-0.8,0.6-1.8-0.1-1.8
			c-0.4,0-0.6-0.2-0.7-0.5c-0.1-0.3,0-0.8,0.6-1c0.6-0.2,1.1,0,1.5,0.5c0.5,0.6,0.6,1.6,0.4,2.4c-0.3,0.8-1,1.3-1.6,1.7
			c-0.4,0.3-0.8,0.5-1.2,0.8c-0.3,0.2-0.7,0.4-1,0.6c-0.2,0.2-0.3,0.4-0.4,0.7c0,0.2-0.1,0.6-0.3,0.5C367.2-3.7,367.2-4.4,367.2-4.7
			z"/>
		<ellipse class="st0" cx="367.2" cy="-8.5" rx="1.1" ry="1.1"/>
		<ellipse class="st0" cx="373.1" cy="-4.9" rx="1.1" ry="1.1"/>
	</g>
	<g>
		<path class="st0" d="M389-11.4c0.1-0.1,0.2-0.3,0.1-0.5c-0.3-0.9-1.3-0.9-2.3-0.3c-0.8,0.5-1.4,1.3-1.8,2.3
			c-0.1,0.2-0.1,0.5-0.2,0.7c-0.1,0.4,0,0.6,0.3,0.2c0.1-0.2,0.3-0.4,0.5-0.6c0.7-0.8,1.4-1.2,2.6-1.5
			C388.6-11.2,388.8-11.2,389-11.4z"/>
		<path class="st0" d="M394.7-4.7c-0.1-0.3-0.2-0.6-0.4-0.8c-0.5-0.6-1.3-1-1.9-1.5c-0.2-0.2-0.5-0.4-0.7-0.6
			c-0.7-0.8-0.6-1.8,0.1-1.8c0.4,0,0.6-0.2,0.7-0.5c0.1-0.3,0-0.8-0.6-1c-0.6-0.2-1.1,0-1.5,0.5c-0.5,0.6-0.6,1.6-0.4,2.4
			c0.3,0.8,1,1.3,1.6,1.7c0.4,0.3,0.8,0.5,1.2,0.8c0.3,0.2,0.7,0.4,1,0.6c0.2,0.2,0.3,0.4,0.4,0.7c0,0.2,0.1,0.6,0.3,0.5
			C394.7-3.7,394.7-4.4,394.7-4.7z"/>
		<ellipse class="st0" cx="394.7" cy="-8.5" rx="1.1" ry="1.1"/>
		<ellipse class="st0" cx="388.8" cy="-4.9" rx="1.1" ry="1.1"/>
	</g>
</g>
<path class="st0" d="M392.8,13.7h-23.7v-0.1c0-1.3,0.7-2.4,2.1-2.4h19.5C392.1,11.3,392.8,12.3,392.8,13.7L392.8,13.7z"/>
<path class="st0" d="M399-4.3c-0.2-0.1-0.8,0-1.6,0.6c-0.3,0.3-0.6,0.2-0.4-0.4c-0.8,0.1-1.6,0.8-2.6,1.7c-1,1-1-0.4-2.1-0.8
	C391-3.7,390.2-3,390.2-3s1.6,1.9,0.8,3.4c-0.5,0.9-1.5,1.1-2.4,0.5c-0.9-0.7-0.4-1.7-1.2-2.6c-0.6-0.7-1.6-0.8-2.7-0.4
	c1.1-1.6,2.9-3.5,2.2-5.6c0,0-2.7,0.9-4.2,0.6c0.6-1.2,1.6-2.2,1.2-4.2c0,0-1.4-0.1-2.3,1.1c0,0,2.3-2.7-0.7-4.9l0,0l0,0
	c-3,2.2-0.7,4.9-0.7,4.9c-0.9-1.2-2.3-1.1-2.3-1.1c-0.4,1.9,0.6,2.9,1.2,4.2c-1.5,0.4-4.2-0.6-4.2-0.6c-0.7,2.1,1.1,4,2.2,5.6
	c-1-0.4-2.1-0.3-2.7,0.4c-0.8,0.8-0.3,1.9-1.2,2.6c-0.9,0.7-1.9,0.4-2.4-0.5c-0.8-1.4,0.8-3.4,0.8-3.4s-0.8-0.7-2.2-0.2
	c-1.1,0.4-1,1.8-2.1,0.8c-1-1-1.7-1.6-2.6-1.7c0.2,0.7,0,0.7-0.4,0.4c-0.8-0.6-1.4-0.7-1.6-0.6c1.9,2.3,3,3.9,4.3,5.4
	c2.4,3,1,3.8,1.2,5.2c0.2,2,1.3,3,2.8,3c2.3,0,17.2,0,19.5,0c1.5,0,2.6-1,2.8-3c0.1-1.4-1.3-2.2,1.2-5.2C396-0.3,397.1-1.9,399-4.3z
	"/>
<path class="st0" d="M380.8-3.7c0.1-0.2,0.3-0.2,0.4,0l1.5,2.5c0.1,0.2,0.1,0.4,0,0.6l-1.5,2.4c-0.1,0.2-0.3,0.2-0.4,0l-1.5-2.4
	c-0.1-0.2-0.1-0.4,0-0.6L380.8-3.7z"/>
<circle class="st0" cx="381" cy="-6.6" r="1"/>
<circle class="st0" cx="381" cy="4.6" r="1"/>
<circle class="st0" cx="376.3" cy="0.4" r="1"/>
<circle class="st0" cx="385.7" cy="0.4" r="1"/>
<line class="st0" x1="34.7" y1="28.7" x2="34.7" y2="34.3"/>
<path class="st1" d="M32.4,13.5c0-0.1,0-0.2,0-0.2c0-0.2-0.1-0.3-0.1-0.5c0-0.2-0.1-0.3-0.1-0.5c-0.1-0.2-0.1-0.3-0.2-0.4l-0.1-0.2
	l-0.1-0.2c-0.4-0.6-0.9-1.1-1.4-1.4c-0.6-0.3-1.1-0.5-1.6-0.6c-0.5-0.1-1-0.1-1.5-0.1c-0.7,0-1.2,0.2-1.7,0.3
	c-0.1-0.1-0.1-0.1-0.2-0.2c-0.6-0.5-1.2-0.8-1.9-0.9c-0.6-0.2-1.3-0.3-1.8-0.3c-0.6,0-1.1,0.1-1.6,0.1c-0.8,0.2-1.4,0.4-1.8,0.6
	l-0.2-0.6c0-0.1-0.1-0.1-0.2-0.1V8.1c0.6-0.2,1-0.7,1-1.3c0-0.6-0.4-1.1-1-1.3V4.9h0.7c0.2,0,0.3-0.2,0.2-0.3l-0.6-0.8
	c0.1-0.1,0.2-0.1,0.2-0.2l0.9,0.6c0.1,0.1,0.3,0,0.3-0.2V1.9c0-0.2-0.2-0.2-0.3-0.2l-0.9,0.6c-0.1-0.1-0.1-0.2-0.2-0.2l0.6-0.8
	c0.1-0.1,0-0.3-0.2-0.3h-2.3c-0.2,0-0.3,0.2-0.2,0.3l0.6,0.8c-0.1,0.1-0.2,0.1-0.2,0.2l-0.9-0.6c-0.1-0.1-0.3,0-0.3,0.2v2.2
	c0,0.2,0.2,0.2,0.3,0.2l0.9-0.6c0.1,0.1,0.1,0.2,0.2,0.2l-0.6,0.8c-0.1,0.1,0,0.3,0.2,0.3H17v0.6c-0.6,0.2-1,0.7-1,1.3
	c0,0.6,0.4,1.1,1,1.3v0.3c-0.1,0-0.1,0.1-0.2,0.1l-0.2,0.6c-0.4-0.2-1-0.4-1.7-0.6c-0.5-0.1-1-0.1-1.6-0.1c-0.6,0-1.2,0.1-1.8,0.3
	c-0.6,0.2-1.3,0.5-1.9,0.9C9.6,9.7,9.5,9.7,9.4,9.8C9,9.6,8.5,9.5,7.8,9.5c-0.4,0-0.9,0-1.5,0.1c-0.5,0.1-1.1,0.3-1.6,0.6
	c-0.5,0.3-1.1,0.8-1.4,1.4l-0.1,0.2L3,12c-0.1,0.1-0.1,0.3-0.2,0.4c-0.1,0.1-0.1,0.3-0.1,0.5c0,0.2-0.1,0.3-0.1,0.5c0,0,0,0.1,0,0.2
	c0,0.1,0,0.3,0,0.4c0,0.4,0,0.9,0.2,1.5C3.2,16.7,4,18.1,5,19.3c0.2,0.3,0.5,0.6,0.7,0.9c0.2,0.3,0.5,0.5,0.6,0.8
	c0.4,0.5,0.9,1.4,0.9,1.4c0,0.9,0,1.9,0,2.8c-0.6,0.3-1,0.5-1,0.8c0,1.1,5,2,11.2,2s11.2-0.9,11.2-2c0-0.3-0.4-0.6-1-0.8
	c0-0.9,0-1.8,0-2.8c0.2-0.4,0.5-1,0.9-1.5c0.2-0.3,0.4-0.5,0.6-0.8c0.2-0.3,0.5-0.6,0.7-0.9c1-1.2,1.9-2.5,2.2-3.8
	c0.2-0.6,0.2-1.2,0.2-1.5C32.5,13.8,32.5,13.6,32.4,13.5z M8.5,22.1c-0.2-0.6-0.5-1.2-0.9-1.8c-0.2-0.3-0.4-0.6-0.7-0.9
	c-0.2-0.3-0.4-0.6-0.7-0.9c-0.9-1.2-1.5-2.4-1.8-3.3c-0.1-0.5-0.1-0.8-0.1-1.1c0-0.1,0-0.2,0-0.3c0-0.1,0-0.1,0-0.1
	c0-0.1,0-0.2,0.1-0.3c0-0.1,0.1-0.2,0.1-0.3c0-0.1,0.1-0.2,0.1-0.3l0.1-0.2l0.1-0.1c0.2-0.3,0.4-0.6,0.8-0.8C6,11.3,6.4,11.1,6.7,11
	c0.4-0.1,0.8-0.2,1.1-0.3c0.3-0.1,0.6-0.1,0.9-0.1c-0.2,0.2-0.3,0.5-0.4,0.7c0,0-0.1,0.2-0.2,0.6c-0.1,0.4-0.2,0.9-0.2,1.6
	c0,0.7,0.2,1.4,0.4,2.2c0.2,0.7,0.6,1.5,1,2.2c0.4,0.7,0.7,1.4,1,2c0.3,0.6,0.5,1.2,0.7,1.8c0.1,0.4,0.2,0.7,0.2,1
	c-0.8-0.1-1.7-0.1-2.5-0.2C8.7,22.4,8.6,22.2,8.5,22.1z M12.5,22.8c0-0.3-0.1-0.8-0.2-1.3c-0.1-0.6-0.3-1.3-0.6-2
	c-0.3-0.7-0.6-1.4-0.9-2.1c-0.3-0.7-0.6-1.4-0.8-2.1c-0.2-0.7-0.2-1.3-0.2-1.8c0-0.5,0.1-0.9,0.2-1.2c0.1-0.3,0.2-0.4,0.2-0.4
	c0.2-0.4,0.5-0.8,0.8-1.1c0.3-0.3,0.8-0.5,1.2-0.7c0.9-0.3,1.8-0.4,2.6-0.4c0.7,0,1.3,0.1,1.8,0.1c-0.3,1.2-0.6,2.9-0.6,4.9l0.5,8.2
	C15.2,22.9,13.8,22.9,12.5,22.8z M18.5,9.9c0.5,0,1.1-0.1,1.8-0.1c0.8,0,1.7,0.1,2.6,0.4c0.4,0.2,0.8,0.4,1.2,0.7
	c0.3,0.3,0.6,0.7,0.8,1.1c0,0,0.1,0.1,0.2,0.4c0.1,0.3,0.2,0.7,0.2,1.2c0,0.5,0,1.1-0.2,1.8c-0.2,0.7-0.4,1.3-0.8,2.1
	c-0.3,0.7-0.7,1.4-0.9,2.1c-0.3,0.7-0.5,1.4-0.6,2c-0.1,0.5-0.2,1-0.2,1.3c-1.4,0.1-2.7,0.1-4.1,0.1l0.5-8.2
	C19,12.8,18.8,11.1,18.5,9.9z M30.5,15.1c-0.2,0.9-0.9,2.2-1.8,3.3c-0.2,0.3-0.4,0.6-0.7,0.9c-0.2,0.3-0.5,0.6-0.7,0.9
	c-0.4,0.6-0.7,1.2-0.9,1.8c-0.1,0.2-0.1,0.3-0.2,0.5c-0.8,0.1-1.7,0.2-2.5,0.2c0-0.3,0.1-0.6,0.2-1c0.1-0.5,0.4-1.1,0.7-1.8
	c0.3-0.6,0.7-1.3,1-2c0.4-0.7,0.7-1.5,1-2.2c0.3-0.7,0.4-1.5,0.4-2.2c0-0.7-0.1-1.2-0.2-1.6c-0.1-0.4-0.2-0.6-0.2-0.6
	c-0.1-0.2-0.2-0.5-0.4-0.7c0.3,0,0.6,0,0.9,0.1c0.4,0.1,0.7,0.1,1.1,0.3c0.4,0.1,0.7,0.3,1.1,0.5c0.3,0.2,0.6,0.5,0.8,0.8l0.1,0.1
	l0.1,0.2c0,0.1,0.1,0.2,0.1,0.3c0,0.1,0.1,0.2,0.1,0.3c0,0.1,0.1,0.2,0.1,0.3c0,0,0,0,0,0.1c0,0.1,0,0.2,0,0.3
	C30.6,14.3,30.6,14.7,30.5,15.1z"/>
<g>
	<path class="st0" d="M28.7,20.8h3.5c0.4,0,0.9,0.3,1,0.7l1.5,7.4c0.1,0.4-0.2,0.7-0.6,0.7H3.8c-0.4,0-0.9-0.3-1-0.7l-1.5-7.4
		c-0.1-0.4,0.2-0.7,0.6-0.7h4.4"/>
	<path class="st0" d="M1.3,21.4c0,0,0,4,0,4.6c0,0.4,0,0.8,0.1,1.5c0.2,0.9,1.4,6.9,1.4,6.9C3,34.7,3.4,35,3.8,35H34
		c0.5,0,0.7-0.2,0.7-0.8"/>
	<line class="st0" x1="3.2" y1="29.5" x2="3.2" y2="34.7"/>
</g>
</svg>
